<?xml version="1.0" standalone="no"?>
<!DOCTYPE svg PUBLIC "-//W3C//DTD SVG 1.1//EN" "http://www.w3.org/Graphics/SVG/1.1/DTD/svg11.dtd" >
<svg>
<metadata>
Created by FontForge 20090914 at Mon Dec 20 05:04:06 2021
 By www-data
Copyright 2017 Google Inc. All Rights Reserved.
</metadata>
<defs>
<font id="GoogleSans-Regular" horiz-adv-x="650" >
  <font-face 
    font-family="Google Sans"
    font-weight="400"
    font-stretch="normal"
    units-per-em="1000"
    panose-1="2 11 5 3 3 5 2 4 2 4"
    ascent="800"
    descent="-200"
    x-height="510"
    cap-height="716"
    bbox="-365.004 -253 1477 959.001"
    underline-thickness="84"
    underline-position="-76"
    unicode-range="U+0002-U+2792"
  />
<missing-glyph horiz-adv-x="580" 
d="M501 0h-422v716h422v-716zM441 57v602h-302v-602h302z" />
    <glyph glyph-name="f_b.liga" unicode="fb" horiz-adv-x="977" 
d="M593.5 10.5c-31 17.667 -54.498 39.166 -70.498 64.499h-4v-75h-80v643h-148c-24.667 0 -44.834 -7.5 -60.501 -22.5s-23.5 -36.5 -23.5 -64.5v-46h131v-77h-131v-433h-85v433h-94v77h94v48c0 49.333 15.667 88.666 47 117.999s72 44 122 44h232v-218l-4 -68h4
c15.333 26 38.666 47.833 69.999 65.5s66.333 26.5 105 26.5c45.333 0 86.5 -11.667 123.5 -35s66.167 -55.666 87.5 -96.999s32 -87.666 32 -138.999c0 -52 -10.667 -98.5 -32 -139.5s-50.5 -73.167 -87.5 -96.5s-78.167 -35 -123.5 -35
c-38.667 0 -73.5 8.83301 -104.5 26.5zM771.002 84.999c26 16 46.833 38.833 62.5 68.5s23.5 63.5 23.5 101.5s-7.83301 71.833 -23.5 101.5s-36.5 52.5 -62.5 68.5s-53.667 24 -83 24c-30 0 -57.833 -8 -83.5 -24s-46.334 -38.667 -62.001 -68s-23.5 -63.333 -23.5 -102
s7.83301 -72.667 23.5 -102s36.334 -52 62.001 -68s53.5 -24 83.5 -24c29.333 0 57 8 83 24z" />
    <glyph glyph-name="f_f.liga" unicode="ff" horiz-adv-x="695" 
d="M122 433h-94.001v77h94v55c0 32 7.33301 60 22 84s34.334 42.5 59.001 55.5s52 19.5 82 19.5c28.667 0 53.667 -4 75 -12v-83c-12 4.66699 -23.333 8.5 -34 11.5s-23.334 4.5 -38.001 4.5c-22 0 -41 -7.83301 -57 -23.5s-24 -37.5 -24 -65.5v-46h232v55
c0 32 7.16699 60 21.5 84s34 42.5 59 55.5s52.5 19.5 82.5 19.5c27.333 0 52.333 -4 75 -12v-83c-13.333 5.33301 -25.166 9.33301 -35.499 12s-22.833 4 -37.5 4c-22 0 -41 -7.83301 -57 -23.5s-24 -37.5 -24 -65.5v-46h131v-77h-131v-433h-84v433h-232v-433h-85v433z" />
    <glyph glyph-name="f_f_b.liga" unicode="ffb" horiz-adv-x="1294" 
d="M909.5 10.5c-31 17.667 -54.499 39.166 -70.499 64.499h-4v-75h-80v643h-147c-25.333 0 -45.833 -7.5 -61.5 -22.5s-23.5 -36.5 -23.5 -64.5v-46h131v-77h-131v-433h-84v433h-232v-433h-85v433h-94v77h94v55c0 32 7.33301 60 22 84s34.334 42.5 59.001 55.5
s52 19.5 82 19.5c28.667 0 53.667 -4 75 -12v-83c-12 4.66699 -23.333 8.5 -34 11.5s-23.334 4.5 -38.001 4.5c-22 0 -41 -7.83301 -57 -23.5s-24 -37.5 -24 -65.5v-46h232v48c0 49.333 15.667 88.666 47 117.999s72 44 122 44h231v-218l-4 -68h4
c15.333 26 38.666 47.833 69.999 65.5s66.333 26.5 105 26.5c45.333 0 86.666 -11.667 123.999 -35s66.666 -55.666 87.999 -96.999s32 -87.666 32 -138.999c0 -52 -10.667 -98.5 -32 -139.5s-50.666 -73.167 -87.999 -96.5s-78.666 -35 -123.999 -35
c-38.667 0 -73.5 8.83301 -104.5 26.5zM1087 84.999c26 16 46.833 38.833 62.5 68.5s23.5 63.5 23.5 101.5s-7.83301 71.833 -23.5 101.5s-36.5 52.5 -62.5 68.5s-53.667 24 -83 24c-30 0 -57.833 -8 -83.5 -24s-46.334 -38.667 -62.001 -68s-23.5 -63.333 -23.5 -102
s7.83301 -72.667 23.5 -102s36.334 -52 62.001 -68s53.5 -24 83.5 -24c29.333 0 57 8 83 24z" />
    <glyph glyph-name="f_f_h.liga" unicode="ffh" horiz-adv-x="1255" 
d="M122 433h-94.002v77h94v55c0 32 7.33301 60 22 84s34.334 42.5 59.001 55.5s52 19.5 82 19.5c28.667 0 53.667 -4 75 -12v-83c-12 4.66699 -23.333 8.5 -34 11.5s-23.334 4.5 -38.001 4.5c-22 0 -41 -7.83301 -57 -23.5s-24 -37.5 -24 -65.5v-46h232v48
c0 49.333 15.667 88.666 47 117.999s72 44 122 44h231v-215l-4 -70h4c14.667 26 37.167 47.667 67.5 65s63.5 26 99.5 26c62 0 109.167 -18.167 141.5 -54.5s48.5 -84.5 48.5 -144.5v-327h-84v314c0 46 -11.667 80 -35 102s-53.666 33 -90.999 33
c-27.333 0 -52.166 -8 -74.499 -24s-40 -36.667 -53 -62s-19.5 -51.666 -19.5 -78.999v-284h-84v643h-147c-25.333 0 -45.833 -7.5 -61.5 -22.5s-23.5 -36.5 -23.5 -64.5v-46h131v-77h-131v-433h-84v433h-232v-433h-85v433z" />
    <glyph glyph-name="f_f_i.liga" unicode="ffi" horiz-adv-x="910" 
d="M122 433h-94.001v77h94v55c0 32 7.33301 60 22 84s34.334 42.5 59.001 55.5s52 19.5 82 19.5c28.667 0 53.667 -4 75 -12v-83c-12 4.66699 -23.333 8.5 -34 11.5s-23.334 4.5 -38.001 4.5c-22 0 -41 -7.83301 -57 -23.5s-24 -37.5 -24 -65.5v-46h232v55
c0 32 7.16699 60 21.5 84s34 42.5 59 55.5s52.5 19.5 82.5 19.5c27.333 0 52.333 -4 75 -12v-83c-13.333 5.33301 -25.166 9.33301 -35.499 12s-22.833 4 -37.5 4c-22 0 -41 -7.83301 -57 -23.5s-24 -37.5 -24 -65.5v-46h316v-510h-84v433h-232v-433h-84v433h-232v-433h-85
v433zM753.999 616c-12 12 -18 26.333 -18 43c0 17.333 6 31.833 18 43.5s26.333 17.5 43 17.5c17.333 0 31.833 -5.83301 43.5 -17.5s17.5 -26.167 17.5 -43.5c0 -16.667 -5.83301 -31 -17.5 -43s-26.167 -18 -43.5 -18c-16.667 0 -31 6 -43 18z" />
    <glyph glyph-name="f_f_j.liga" unicode="ffj" horiz-adv-x="910" 
d="M654 -219l-0.000976562 81c5.33301 -3.33301 12 -6 20 -8s15.333 -3 22 -3c20.667 0 35.667 6.5 45 19.5s14 32.167 14 57.5v505h-232v-433h-84v433h-232v-433h-85v433h-94v77h94v55c0 32 7.33301 60 22 84s34.334 42.5 59.001 55.5s52 19.5 82 19.5
c28.667 0 53.667 -4 75 -12v-83c-12 4.66699 -23.333 8.5 -34 11.5s-23.334 4.5 -38.001 4.5c-22 0 -41 -7.83301 -57 -23.5s-24 -37.5 -24 -65.5v-46h232v55c0 32 7.16699 60 21.5 84s34 42.5 59 55.5s52.5 19.5 82.5 19.5c27.333 0 52.333 -4 75 -12v-83
c-13.333 5.33301 -25.166 9.33301 -35.499 12s-22.833 4 -37.5 4c-22 0 -41 -7.83301 -57 -23.5s-24 -37.5 -24 -65.5v-46h316v-582c0 -51.333 -12.333 -89.833 -37 -115.5s-59 -38.5 -103 -38.5c-16 0 -31 2.33301 -45 7zM753.999 616c-12 12 -18 26.333 -18 43
c0 17.333 6 31.833 18 43.5s26.333 17.5 43 17.5c17.333 0 31.833 -5.83301 43.5 -17.5s17.5 -26.167 17.5 -43.5c0 -16.667 -5.83301 -31 -17.5 -43s-26.167 -18 -43.5 -18c-16.667 0 -31 6 -43 18z" />
    <glyph glyph-name="f_f_k.liga" unicode="ffk" horiz-adv-x="1197" 
d="M122 433l-94 0.000976562v77h94v55c0 32 7.33301 60 22 84s34.334 42.5 59.001 55.5s52 19.5 82 19.5c28.667 0 53.667 -4 75 -12v-83c-12 4.66699 -23.333 8.5 -34 11.5s-23.334 4.5 -38.001 4.5c-22 0 -41 -7.83301 -57 -23.5s-24 -37.5 -24 -65.5v-46h232v48
c0 49.333 15.667 88.666 47 117.999s72 44 122 44h231v-454l241 244h108v-4l-200 -202l205 -300v-4h-101l-164 245l-89 -88v-157h-84v643h-147c-25.333 0 -45.833 -7.5 -61.5 -22.5s-23.5 -36.5 -23.5 -64.5v-46h131v-77h-131v-433h-84v433h-232v-433h-85v433z" />
    <glyph glyph-name="f_f_l.liga" unicode="ffl" horiz-adv-x="903" 
d="M122 433l-94 0.000976562v77h94v55c0 32 7.33301 60 22 84s34.334 42.5 59.001 55.5s52 19.5 82 19.5c28.667 0 53.667 -4 75 -12v-83c-12 4.66699 -23.333 8.5 -34 11.5s-23.334 4.5 -38.001 4.5c-22 0 -41 -7.83301 -57 -23.5s-24 -37.5 -24 -65.5v-46h232v48
c0 49.333 15.667 88.666 47 117.999s72 44 122 44h231v-720h-84v643h-147c-25.333 0 -45.833 -7.5 -61.5 -22.5s-23.5 -36.5 -23.5 -64.5v-46h131v-77h-131v-433h-84v433h-232v-433h-85v433z" />
    <glyph glyph-name="f_f_t.liga" unicode="fft" horiz-adv-x="1004" 
d="M839 2c-18 6.66699 -32.668 15.666 -44.001 26.999c-13.333 12.667 -23.333 27.334 -30 44.001s-10 37 -10 61v299h-232v-433h-84v433h-232v-433h-85v433h-94v77h94v55c0 32 7.33301 60 22 84s34.334 42.5 59.001 55.5s52 19.5 82 19.5c28.667 0 53.667 -4 75 -12v-83
c-12 4.66699 -23.333 8.5 -34 11.5s-23.334 4.5 -38.001 4.5c-22 0 -41 -7.83301 -57 -23.5s-24 -37.5 -24 -65.5v-46h232v55c0 32 7.16699 60 21.5 84s34 42.5 59 55.5s52.5 19.5 82.5 19.5c27.333 0 52.333 -4 75 -12v-83c-13.333 5.33301 -25.166 9.33301 -35.499 12
s-22.833 4 -37.5 4c-22 0 -41 -7.83301 -57 -23.5s-24 -37.5 -24 -65.5v-46h232v144h84v-144h125v-77h-125v-278c0 -28 5.66699 -48.667 17 -62c12.667 -14.667 31 -22 55 -22c19.333 0 38 5.66699 56 17v-83c-10.667 -4.66699 -21 -8 -31 -10s-23 -3 -39 -3
c-20.667 0 -40 3.33301 -58 10z" />
    <glyph glyph-name="f_h.liga" unicode="fh" horiz-adv-x="939" 
d="M122 433h-93.999v77h94v48c0 49.333 15.667 88.666 47 117.999s72 44 122 44h232v-215l-4 -70h4c14.667 26 37.167 47.667 67.5 65s63.5 26 99.5 26c62 0 109.167 -18.167 141.5 -54.5s48.5 -84.5 48.5 -144.5v-327h-84v314c0 46 -11.833 80 -35.5 102
s-54.167 33 -91.5 33c-26.667 0 -51.167 -8 -73.5 -24s-40 -36.667 -53 -62s-19.5 -51.666 -19.5 -78.999v-284h-84v643h-148c-24.667 0 -44.834 -7.5 -60.501 -22.5s-23.5 -36.5 -23.5 -64.5v-46h131v-77h-131v-433h-85v433z" />
    <glyph glyph-name="f_i.liga" unicode="fi" horiz-adv-x="594" 
d="M122 433h-94v77h94v55c0 32 7.33301 60 22 84s34.334 42.5 59.001 55.5s52 19.5 82 19.5c28.667 0 53.667 -4 75 -12v-83c-12 4.66699 -23.333 8.5 -34 11.5s-23.334 4.5 -38.001 4.5c-22 0 -41 -7.83301 -57 -23.5s-24 -37.5 -24 -65.5v-46h316v-510h-84v433h-232v-433
h-85v433zM438 617c-12 12 -18 26.333 -18 43s6 31 18 43s26.333 18 43 18s31 -6 43 -18s18 -26.333 18 -43s-5.83301 -31 -17.5 -43s-26.167 -18 -43.5 -18c-16.667 0 -31 6 -43 18z" />
    <glyph glyph-name="f_j.liga" unicode="fj" horiz-adv-x="594" 
d="M338 -219v81c13.333 -7.33301 27.333 -11 42 -11c20.667 0 35.667 6.5 45 19.5s14 32.167 14 57.5v505h-232v-433h-85v433h-94v77h94v55c0 32 7.33301 60 22 84s34.334 42.5 59.001 55.5s52 19.5 82 19.5c28.667 0 53.667 -4 75 -12v-83
c-12 4.66699 -23.333 8.5 -34 11.5s-23.334 4.5 -38.001 4.5c-22 0 -41 -7.83301 -57 -23.5s-24 -37.5 -24 -65.5v-46h316v-582c0 -51.333 -12.333 -89.833 -37 -115.5s-59 -38.5 -103 -38.5c-16 0 -31 2.33301 -45 7zM438 616c-12 12 -18 26.333 -18 43
c0 17.333 6 31.833 18 43.5s26.333 17.5 43 17.5c17.333 0 31.833 -5.83301 43.5 -17.5s17.5 -26.167 17.5 -43.5c0 -16.667 -5.83301 -31 -17.5 -43s-26.167 -18 -43.5 -18c-16.667 0 -31 6 -43 18z" />
    <glyph glyph-name="f_k.liga" unicode="fk" horiz-adv-x="881" 
d="M122 433l-93.999 0.000976562v77h94v48c0 49.333 15.667 88.666 47 117.999s72 44 122 44h232v-454l241 244h108v-4l-200 -202l205 -300v-4h-101l-164 245l-89 -88v-157h-84v643h-148c-24.667 0 -44.834 -7.5 -60.501 -22.5s-23.5 -36.5 -23.5 -64.5v-46h131v-77h-131
v-433h-85v433z" />
    <glyph glyph-name="f_l.liga" unicode="fl" horiz-adv-x="586" 
d="M122 433l-93.999 0.000976562v77h94v48c0 49.333 15.667 88.666 47 117.999s72 44 122 44h232v-720h-84v643h-148c-24.667 0 -44.834 -7.5 -60.501 -22.5s-23.5 -36.5 -23.5 -64.5v-46h131v-77h-131v-433h-85v433z" />
    <glyph glyph-name="f_t.liga" unicode="ft" horiz-adv-x="688" 
d="M523 2c-18 6.66699 -33 15.667 -45 27c-13.333 12.667 -23.166 27.5 -29.499 44.5s-9.5 37.167 -9.5 60.5v299h-232v-433h-85v433h-94v77h94v55c0 32 7.33301 60 22 84s34.334 42.5 59.001 55.5s52 19.5 82 19.5c28.667 0 53.667 -4 75 -12v-83
c-12 4.66699 -23.333 8.5 -34 11.5s-23.334 4.5 -38.001 4.5c-22 0 -41 -7.83301 -57 -23.5s-24 -37.5 -24 -65.5v-46h232v144h84v-144h125v-77h-125v-278c0 -28 5.66699 -48.667 17 -62c11.333 -14.667 29.666 -22 54.999 -22c20 0 38.333 5.66699 55 17v-83
c-10 -4.66699 -20 -8 -30 -10s-23 -3 -39 -3c-20.667 0 -40 3.33301 -58 10z" />
    <glyph glyph-name="r_f.liga" unicode="rf" horiz-adv-x="756" 
d="M499 433h-95.001v77h95v55c0 32 7.33301 60 22 84s34.334 42.5 59.001 55.5s52 19.5 82 19.5c28.667 0 53.667 -4 75 -12v-83c-13.333 5.33301 -25.166 9.33301 -35.499 12s-22.5 4 -36.5 4c-22.667 0 -41.834 -7.83301 -57.501 -23.5s-23.5 -37.5 -23.5 -65.5v-46h130
v-77h-130v-433h-85v433zM62.999 510h80.999v-81h4c12 30 32.333 53.333 61 70s60 25 94 25c14.667 0 27 -1 37 -3v-87c-11.333 2.66699 -26.666 4 -45.999 4c-43.333 0 -78.5 -14.333 -105.5 -43s-40.5 -66 -40.5 -112v-283h-85v510z" />
    <glyph glyph-name="r_f_f.liga" unicode="rff" horiz-adv-x="1064" 
d="M63 510h80.999v-81h4c12 30 32.333 53.333 61 70s60 25 94 25c14.667 0 27 -1 37 -3v-87c-11.333 2.66699 -26.666 4 -45.999 4c-43.333 0 -78.5 -14.333 -105.5 -43s-40.5 -66 -40.5 -112v-283h-85v510zM490.999 433h-94.001v77h94v55c0 32 7.33301 60 22 84
s34.334 42.5 59.001 55.5s52 19.5 82 19.5c28.667 0 53.667 -4 75 -12v-83c-12 4.66699 -23.333 8.5 -34 11.5s-23.334 4.5 -38.001 4.5c-22 0 -41 -7.83301 -57 -23.5s-24 -37.5 -24 -65.5v-46h232v55c0 32 7.16699 60 21.5 84s34 42.5 59 55.5s52.5 19.5 82.5 19.5
c27.333 0 52.333 -4 75 -12v-83c-13.333 5.33301 -25.166 9.33301 -35.499 12s-22.833 4 -37.5 4c-22 0 -41 -7.83301 -57 -23.5s-24 -37.5 -24 -65.5v-46h131v-77h-131v-433h-84v433h-232v-433h-85v433z" />
    <glyph glyph-name="r_t.liga" unicode="rt" horiz-adv-x="745" 
d="M63 510h80.999v-81h4c12 30 32.333 53.333 61 70s60 25 94 25c14.667 0 27 -1 37 -3v-87c-11.333 2.66699 -26.666 4 -45.999 4c-43.333 0 -78.5 -14.333 -105.5 -43s-40.5 -66 -40.5 -112v-283h-85v510zM580.499 2c-17.667 6.66699 -32.499 15.666 -44.499 26.999
c-13.333 12.667 -23.333 27.334 -30 44.001s-10 37 -10 61v299h-89v77h89v144h85v-144h124v-77h-124v-278c0 -28 5.33301 -48.667 16 -62c12.667 -14.667 31 -22 55 -22c19.333 0 38 5.66699 56 17v-83c-10 -4.66699 -20.167 -8 -30.5 -10s-23.5 -3 -39.5 -3
c-20.667 0 -39.834 3.33301 -57.501 10z" />
    <glyph glyph-name="t_f.liga" unicode="tf" horiz-adv-x="690" 
d="M201.5 2c-17.667 6.66699 -32.499 15.666 -44.499 26.999c-13.333 12.667 -23.333 27.334 -30 44.001s-10 37 -10 61v299h-89v77h89v144h85v-144h231v55c0 32 7.33301 60 22 84s34.334 42.5 59.001 55.5s52 19.5 82 19.5c28.667 0 53.667 -4 75 -12v-83
c-12 4.66699 -23.333 8.5 -34 11.5s-23.334 4.5 -38.001 4.5c-22 0 -41 -7.83301 -57 -23.5s-24 -37.5 -24 -65.5v-46h131v-77h-131v-433h-85v433h-231v-278c0 -28 5.33301 -48.667 16 -62c12.667 -14.667 31 -22 55 -22c19.333 0 38 5.66699 56 17v-83
c-10 -4.66699 -20.167 -8 -30.5 -10s-23.5 -3 -39.5 -3c-20.667 0 -39.834 3.33301 -57.501 10z" />
    <glyph glyph-name="t_t.liga" unicode="tt" horiz-adv-x="681" 
d="M201.5 2c-17.667 6.66699 -32.499 15.666 -44.499 26.999c-13.333 12.667 -23.333 27.334 -30 44.001s-10 37 -10 61v299h-89v77h89v144h85v-144h230v144h84v-144h125v-77h-125v-278c0 -28 5.66699 -48.667 17 -62c11.333 -14.667 29.666 -22 54.999 -22
c20 0 38.333 5.66699 55 17v-83c-10 -4.66699 -20 -8 -30 -10s-23 -3 -39 -3c-20.667 0 -40 3.33301 -58 10s-33 15.667 -45 27c-13.333 12.667 -23.166 27.5 -29.499 44.5s-9.5 37.167 -9.5 60.5v299h-230v-278c0 -28 5.33301 -48.667 16 -62c12.667 -14.667 31 -22 55 -22
c19.333 0 38 5.66699 56 17v-83c-10 -4.66699 -20.167 -8 -30.5 -10s-23.5 -3 -39.5 -3c-20.667 0 -39.834 3.33301 -57.501 10z" />
    <glyph glyph-name=".notdef" horiz-adv-x="580" 
d="M501 0h-422v716h422v-716zM441 57v602h-302v-602h302z" />
    <glyph glyph-name="uni0002" horiz-adv-x="0" 
 />
    <glyph glyph-name="uni0009" unicode="&#x9;" horiz-adv-x="0" 
 />
    <glyph glyph-name="uni000A" unicode="&#xa;" horiz-adv-x="0" 
 />
    <glyph glyph-name="uni000D" unicode="&#xd;" horiz-adv-x="0" 
 />
    <glyph glyph-name="space" unicode=" " horiz-adv-x="232" 
 />
    <glyph glyph-name="exclam" unicode="!" horiz-adv-x="238" 
d="M77 473v243h84v-243l-10 -262h-65zM73.5 12.5c-12.333 12.333 -18.5 27.5 -18.5 45.5c0 17.333 6.16699 32.166 18.5 44.499s27.5 18.5 45.5 18.5c17.333 0 32.166 -6.16699 44.499 -18.5s18.5 -27.166 18.5 -44.499c0 -18 -6.16699 -33.167 -18.5 -45.5
s-27.166 -18.5 -44.499 -18.5c-18 0 -33.167 6.16699 -45.5 18.5z" />
    <glyph glyph-name="quotedbl" unicode="&#x22;" horiz-adv-x="322" 
d="M51 716h77v-221h-77v221zM194 716h77v-221h-77v221z" />
    <glyph glyph-name="numbersign" unicode="#" horiz-adv-x="641" 
d="M154 206h-124l12 70h123l21 141h-125l11 70h124l29 197h74l-29 -197h142l29 197h74l-29 -197h124l-11 -70h-123l-21 -141h125l-11 -70h-125l-31 -206h-74l31 206h-142l-31 -206h-74zM381 276l21 141h-142l-21 -141h142z" />
    <glyph glyph-name="dollar" unicode="$" horiz-adv-x="542" 
d="M443 48c-35.333 -32.667 -79.333 -53.001 -132 -61.001v-87h-70v86c-46.667 5.33301 -90.167 23.833 -130.5 55.5s-67.166 73.834 -80.499 126.501l76 30c9.33301 -33.333 26.166 -62 50.499 -86s52.5 -39 84.5 -45v251l-3 1c-60 24 -105.333 51.667 -136 83
s-46 70.333 -46 117c0 29.333 7.5 57.166 22.5 83.499s36.5 48.166 64.5 65.499s60.667 27.666 98 30.999v85h70v-87c46.667 -7.33301 84.167 -24.166 112.5 -50.499s47.5 -54.5 57.5 -84.5l-76 -32c-5.33301 18.667 -15.833 35.834 -31.5 51.501s-36.5 26.5 -62.5 32.5
v-235c58.667 -24.667 104.167 -51.667 136.5 -81s48.5 -68.666 48.5 -117.999c0 -55.333 -17.667 -99.333 -53 -132zM165.5 455.999c16.333 -17.333 41.5 -33.666 75.5 -48.999v210c-30 -4.66699 -54.167 -15.834 -72.5 -33.501s-27.5 -39.167 -27.5 -64.5
c0 -24.667 8.16699 -45.667 24.5 -63zM384.5 105.999c18.333 18.667 27.5 42.667 27.5 72c0 24.667 -8.33301 45.5 -25 62.5s-42 33.167 -76 48.5v-220c30.667 6 55.167 18.333 73.5 37z" />
    <glyph glyph-name="percent" unicode="%" horiz-adv-x="827" 
d="M124.5 381.5c-26.333 15.667 -47 36.667 -62 63s-22.5 54.5 -22.5 84.5s7.5 58.167 22.5 84.5s35.667 47.333 62 63s54.833 23.5 85.5 23.5s59 -7.83301 85 -23.5s46.5 -36.667 61.5 -63s22.5 -54.5 22.5 -84.5s-7.5 -58.167 -22.5 -84.5s-35.5 -47.333 -61.5 -63
s-54.333 -23.5 -85 -23.5s-59.167 7.83301 -85.5 23.5zM164 28l445 663l53 -36l-444 -662zM282 451.5c19.333 21 29 46.833 29 77.5c0 31.333 -9.66699 57.333 -29 78s-43.333 31 -72 31s-52.834 -10.333 -72.501 -31s-29.5 -46.667 -29.5 -78
c0 -30.667 9.83301 -56.5 29.5 -77.5s43.834 -31.5 72.501 -31.5s52.667 10.5 72 31.5zM532.5 7.5c-26.333 15.667 -47 36.667 -62 63s-22.5 54.5 -22.5 84.5s7.5 58.167 22.5 84.5s35.667 47.333 62 63s54.833 23.5 85.5 23.5s59 -7.83301 85 -23.5s46.5 -36.667 61.5 -63
s22.5 -54.5 22.5 -84.5s-7.5 -58.167 -22.5 -84.5s-35.5 -47.333 -61.5 -63s-54.333 -23.5 -85 -23.5s-59.167 7.83301 -85.5 23.5zM690 77.5c19.333 21 29 46.833 29 77.5c0 31.333 -9.66699 57.333 -29 78s-43.333 31 -72 31s-52.834 -10.333 -72.501 -31
s-29.5 -46.667 -29.5 -78c0 -30.667 9.83301 -56.5 29.5 -77.5s43.834 -31.5 72.501 -31.5s52.667 10.5 72 31.5z" />
    <glyph glyph-name="ampersand" unicode="&#x26;" horiz-adv-x="628" 
d="M516 121l68.001 -89l-64 -48l-51 68c-46.667 -45.333 -102.334 -68 -167.001 -68c-47.333 0 -90.833 11 -130.5 33s-71 52.167 -94 90.5s-34.5 80.833 -34.5 127.5c0 42 11.333 81.833 34 119.5s53.334 68.5 92.001 92.5l-1 1c-17.333 22.667 -30.333 43.5 -39 62.5
s-13 38.5 -13 58.5c0 29.333 7.66699 56.5 23 81.5s36 44.833 62 59.5s54.333 22 85 22c40 0 73.667 -11.5 101 -34.5s46.666 -51.833 57.999 -86.5l-73 -39c-8.66699 22.667 -19.5 41.5 -32.5 56.5s-30.833 22.5 -53.5 22.5c-24.667 0 -45 -7.5 -61 -22.5
s-24 -34.833 -24 -59.5s8.33301 -47.667 25 -69l241 -315l66 113l67 -40zM422.001 114l-206 271c-28.667 -15.333 -51.667 -36.5 -69 -63.5s-26 -55.5 -26 -85.5c0 -33.333 8 -63.333 24 -90s37.833 -47.5 65.5 -62.5s58.167 -22.5 91.5 -22.5
c48.667 0 88.667 17.667 120 53z" />
    <glyph glyph-name="quotesingle" unicode="'" horiz-adv-x="180" 
d="M51 716h77v-221h-77v221z" />
    <glyph glyph-name="parenleft" unicode="(" horiz-adv-x="323" 
d="M115.5 67.5c-35 79.667 -52.5 164.5 -52.5 254.5s17.5 174.833 52.5 254.5s76.833 147.5 125.5 203.5l62 -44c-45.333 -54 -82.666 -117.5 -111.999 -190.5s-44 -147.5 -44 -223.5s14.667 -150.5 44 -223.5s66.666 -136.5 111.999 -190.5l-62 -44
c-48.667 56 -90.5 123.833 -125.5 203.5z" />
    <glyph glyph-name="parenright" unicode=")" horiz-adv-x="323" 
d="M20 -92c45.333 54 82.666 117.5 111.999 190.5s44 147.5 44 223.5s-14.667 150.5 -44 223.5s-66.666 136.5 -111.999 190.5l62 44c48.667 -56 90.5 -123.833 125.5 -203.5s52.5 -164.5 52.5 -254.5s-17.5 -174.833 -52.5 -254.5s-76.833 -147.5 -125.5 -203.5z" />
    <glyph glyph-name="asterisk" unicode="*" horiz-adv-x="427" 
d="M77 418l76 103l-2 8l-112 38l23 67l110 -39l6 2v119h71v-119l5 -2l111 39l23 -67l-112 -38l-3 -8l77 -103l-58 -42l-75 103h-7l-75 -103z" />
    <glyph glyph-name="plus" unicode="+" horiz-adv-x="558" 
d="M496 236h-182v-182h-70v182h-182v70h182v182h70v-182h182v-70z" />
    <glyph glyph-name="comma" unicode="," horiz-adv-x="241" 
d="M51 -83l53 82.998c-12 2 -22.667 8.33301 -32 19s-14 23.667 -14 39c0 17.333 6.16699 32.166 18.5 44.499s27.5 18.5 45.5 18.5s33.167 -6.16699 45.5 -18.5s18.5 -27.166 18.5 -44.499c0 -11.333 -2.33301 -22.166 -7 -32.499s-11.667 -22.166 -21 -35.499l-66 -100z
" />
    <glyph glyph-name="hyphen" unicode="-" horiz-adv-x="441" 
d="M62 345h317v-70h-317v70z" />
    <glyph glyph-name="period" unicode="." horiz-adv-x="238" 
d="M73.5 12.5c-12.333 12.333 -18.5 27.5 -18.5 45.5c0 17.333 6.16699 32.166 18.5 44.499s27.5 18.5 45.5 18.5c17.333 0 32.166 -6.16699 44.499 -18.5s18.5 -27.166 18.5 -44.499c0 -18 -6.16699 -33.167 -18.5 -45.5s-27.166 -18.5 -44.499 -18.5
c-18 0 -33.167 6.16699 -45.5 18.5z" />
    <glyph glyph-name="slash" unicode="/" horiz-adv-x="438" 
d="M328 716h79l-297 -716h-79z" />
    <glyph glyph-name="zero" unicode="0" horiz-adv-x="645" 
d="M178.5 31.5c-41.667 31.667 -73.665 74.667 -95.998 129s-33.5 114.833 -33.5 181.5s11.167 127.167 33.5 181.5s54.166 97.333 95.499 129s89.333 47.5 144 47.5s102.667 -15.833 144 -47.5s73.166 -74.667 95.499 -129s33.5 -114.833 33.5 -181.5
s-11.167 -127.167 -33.5 -181.5s-54.333 -97.333 -96 -129s-89.5 -47.5 -143.5 -47.5s-101.833 15.833 -143.5 47.5zM421.002 101.5c28 24.333 49.667 57.5 65 99.5s23 89 23 141s-7.66699 99 -23 141s-37 75.167 -65 99.5s-61 36.5 -99 36.5s-71 -12.167 -99 -36.5
s-49.667 -57.5 -65 -99.5s-23 -89 -23 -141s7.66699 -99 23 -141s37 -75.167 65 -99.5s61 -36.5 99 -36.5s71 12.167 99 36.5z" />
    <glyph glyph-name="one" unicode="1" horiz-adv-x="380" 
d="M209 565l-120 -86l-44 65l195 140h54v-684h-85v565z" />
    <glyph glyph-name="two" unicode="2" horiz-adv-x="525" 
d="M45 85l123.002 124.499l128 132.5c34 36.667 57 65.334 69 86.001s18 45.667 18 75c0 20 -5.16699 38.833 -15.5 56.5s-25.333 32 -45 43s-43.167 16.5 -70.5 16.5c-36 0 -64.833 -10.5 -86.5 -31.5s-35.834 -43.833 -42.501 -68.5l-78 31
c6.66699 21.333 18.667 43.5 36 66.5s40.666 42.667 69.999 59s64 24.5 104 24.5c42 0 79.167 -9 111.5 -27s57.5 -42 75.5 -72s27 -62.333 27 -97c0 -70 -36.667 -142.333 -110 -217l-205 -206h323v-81h-432v85z" />
    <glyph glyph-name="three" unicode="3" horiz-adv-x="535" 
d="M173 2c-30 12 -57.168 30.833 -81.501 56.5s-41.833 57.834 -52.5 96.501l77 32c10.667 -38.667 28.834 -68.667 54.501 -90s55.834 -32 90.501 -32c25.333 0 49 5.5 71 16.5s39.5 26.333 52.5 46s19.5 41.5 19.5 65.5c0 23.333 -6.5 44.666 -19.5 63.999
s-30.667 34.5 -53 45.5s-46.833 16.5 -73.5 16.5h-59v79h53c36.667 0 67.334 10.5 92.001 31.5s37 48.833 37 83.5c0 32 -12 57.667 -36 77s-53.667 29 -89 29c-34.667 0 -61.834 -9 -81.501 -27s-33.834 -40 -42.501 -66l-78 33c12 36 35.167 68.5 69.5 97.5
s78.5 43.5 132.5 43.5c40 0 76 -8 108 -24s57.167 -38.333 75.5 -67s27.5 -60.667 27.5 -96s-9 -65.333 -27 -90s-40.333 -44 -67 -58v-4c34 -14 62 -35.5 84 -64.5s33 -63.167 33 -102.5c0 -40 -10.167 -76 -30.5 -108s-48 -57 -83 -75s-73.5 -27 -115.5 -27
c-28.667 0 -58 6 -88 18z" />
    <glyph glyph-name="four" unicode="4" horiz-adv-x="592" 
d="M373 147h-328v64l320 473h92v-457h88v-80h-88v-147h-84v147zM373 227v333h-4l-227 -333h231z" />
    <glyph glyph-name="five" unicode="5" horiz-adv-x="563" 
d="M179 4.5c-31.333 13.667 -59 34.334 -83 62.001s-41 61.834 -51 102.501l75 30c10 -40.667 28.5 -73.167 55.5 -97.5s59.167 -36.5 96.5 -36.5c44.667 0 81 13.667 109 41s42 63 42 107c0 43.333 -13.833 79.166 -41.5 107.499s-63.5 42.5 -107.5 42.5
c-24 0 -46.667 -5.5 -68 -16.5s-38.666 -26.167 -51.999 -45.5l-87 38l45 345h354v-81h-284l-27 -207l4 -1c35.333 30 78.666 45 129.999 45c39.333 0 75.833 -9.66699 109.5 -29s60.5 -46.333 80.5 -81s30 -73.334 30 -116.001s-10.167 -81.5 -30.5 -116.5
s-48.5 -62.667 -84.5 -83s-76 -30.5 -120 -30.5c-32 0 -63.667 6.83301 -95 20.5z" />
    <glyph glyph-name="six" unicode="6" horiz-adv-x="557" 
d="M157.5 17c-35.667 22 -63.333 50.499 -83 85.499s-29.5 71.833 -29.5 110.5c0 36.667 7.5 71.834 22.5 105.501s36.5 71.167 64.5 112.5l179 269l68 -47l-172 -241l2 -2c22.667 16 52 24 88 24c34.667 0 68.667 -9.66699 102 -29s60.5 -45.833 81.5 -79.5
s31.5 -71.167 31.5 -112.5c0 -40 -10.667 -77.5 -32 -112.5s-49.833 -63.167 -85.5 -84.5s-74.167 -32 -115.5 -32c-45.333 0 -85.833 11 -121.5 33zM353.001 84.499c22.667 13 40.667 30.667 54 53s20 47.166 20 74.499c0 26.667 -6.66699 51.167 -20 73.5
s-31.333 40 -54 53s-47.334 19.5 -74.001 19.5s-51.5 -6.5 -74.5 -19.5s-41.167 -30.667 -54.5 -53s-20 -46.833 -20 -73.5c0 -27.333 6.66699 -52.166 20 -74.499s31.5 -40 54.5 -53s47.833 -19.5 74.5 -19.5s51.334 6.5 74.001 19.5z" />
    <glyph glyph-name="seven" unicode="7" horiz-adv-x="529" 
d="M77 23l319 580h-351v81h439v-87l-332 -613z" />
    <glyph glyph-name="eight" unicode="8" horiz-adv-x="551" 
d="M158 11c-35.333 18 -63.0039 42.5 -83.0039 73.5s-30 65.5 -30 103.5c0 38.667 10.5 72.5 31.5 101.5s48.5 51.833 82.5 68.5v4c-26.667 16 -48.5 37.167 -65.5 63.5s-25.5 53.833 -25.5 82.5c0 36 8.83301 68.667 26.5 98s42.334 52.333 74.001 69s67.5 25 107.5 25
c39.333 0 74.833 -8.33301 106.5 -25s56.334 -39.667 74.001 -69s26.5 -62 26.5 -98c0 -28.667 -8.5 -56.167 -25.5 -82.5s-38.5 -47.5 -64.5 -63.5v-4c34 -16.667 61.5 -39.5 82.5 -68.5s31.5 -62.833 31.5 -101.5c0 -38 -10.167 -72.5 -30.5 -103.5
s-48.166 -55.5 -83.499 -73.5s-74.333 -27 -117 -27c-43.333 0 -82.666 9 -117.999 27zM362.996 429c22.667 20.667 34 47.667 34 81s-11.5 59.833 -34.5 79.5s-51.833 29.5 -86.5 29.5c-35.333 0 -64.5 -9.83301 -87.5 -29.5s-34.5 -46.167 -34.5 -79.5
s11.5 -60.333 34.5 -81s52.167 -31 87.5 -31s64.333 10.333 87 31zM378.496 100.5c27.667 23.667 41.5 54.5 41.5 92.5c0 36.667 -13.833 66.834 -41.5 90.501s-61.834 35.5 -102.501 35.5s-75 -11.833 -103 -35.5s-42 -53.834 -42 -90.501c0 -38 14 -68.833 42 -92.5
s62.333 -35.5 103 -35.5s74.834 11.833 102.501 35.5z" />
    <glyph glyph-name="nine" unicode="9" horiz-adv-x="557" 
d="M178 31l171.999 241.001l-2 2c-23.333 -16 -53 -24 -89 -24c-34.667 0 -68.667 9.66699 -102 29s-60.333 45.833 -81 79.5s-31 71.167 -31 112.5c0 40 10.5 77.5 31.5 112.5s49.333 63.167 85 84.5s74.5 32 116.5 32c45.333 0 85.833 -11 121.5 -33
s63.334 -50.5 83.001 -85.5s29.5 -71.833 29.5 -110.5c0 -36.667 -7.5 -71.834 -22.5 -105.501s-36.5 -71.167 -64.5 -112.5l-179 -269zM352.499 345.501c23 13 41.167 30.667 54.5 53s20 46.833 20 73.5c0 27.333 -6.66699 52.166 -20 74.499s-31.5 40 -54.5 53
s-47.833 19.5 -74.5 19.5s-51.334 -6.5 -74.001 -19.5s-40.667 -30.667 -54 -53s-20 -47.166 -20 -74.499c0 -26.667 6.66699 -51.167 20 -73.5s31.333 -40 54 -53s47.334 -19.5 74.001 -19.5s51.5 6.5 74.5 19.5z" />
    <glyph glyph-name="colon" unicode=":" horiz-adv-x="238" 
d="M73.5 406.5c-12.333 12.333 -18.5 27.5 -18.5 45.5s6.16699 33.167 18.5 45.5s27.5 18.5 45.5 18.5c17.333 0 32.166 -6.16699 44.499 -18.5s18.5 -27.5 18.5 -45.5s-6.16699 -33.167 -18.5 -45.5s-27.166 -18.5 -44.499 -18.5c-18 0 -33.167 6.16699 -45.5 18.5z
M73.5 12.5c-12.333 12.333 -18.5 27.5 -18.5 45.5c0 17.333 6.16699 32.166 18.5 44.499s27.5 18.5 45.5 18.5c17.333 0 32.166 -6.16699 44.499 -18.5s18.5 -27.166 18.5 -44.499c0 -18 -6.16699 -33.167 -18.5 -45.5s-27.166 -18.5 -44.499 -18.5
c-18 0 -33.167 6.16699 -45.5 18.5z" />
    <glyph glyph-name="semicolon" unicode=";" horiz-adv-x="245" 
d="M79.5 406.5c-12.333 12.333 -18.5 27.5 -18.5 45.5s6.16699 33.167 18.5 45.5s27.5 18.5 45.5 18.5c17.333 0 32.166 -6.16699 44.499 -18.5s18.5 -27.5 18.5 -45.5s-6.16699 -33.167 -18.5 -45.5s-27.166 -18.5 -44.499 -18.5c-18 0 -33.167 6.16699 -45.5 18.5zM56 -67
l53 82.998c-12 2 -22.667 8.33301 -32 19s-14 23.667 -14 39c0 17.333 6.16699 32.166 18.5 44.499s27.5 18.5 45.5 18.5s33.167 -6.16699 45.5 -18.5s18.5 -27.166 18.5 -44.499c0 -11.333 -2.33301 -22.166 -7 -32.499s-11.667 -22.166 -21 -35.499l-66 -100z" />
    <glyph glyph-name="less" unicode="&#x3c;" horiz-adv-x="497" 
d="M55 240v62l383 184v-78l-293 -135v-4l293 -135v-78z" />
    <glyph glyph-name="equal" unicode="=" horiz-adv-x="568" 
d="M61 449h446v-70h-446v70zM61 259h446v-70h-446v70z" />
    <glyph glyph-name="greater" unicode="&#x3e;" horiz-adv-x="497" 
d="M59 134l293 135v4l-293 135v78l383 -184v-62l-383 -184v78z" />
    <glyph glyph-name="question" unicode="?" horiz-adv-x="504" 
d="M201 259c0 33.333 6.33301 61 19 83s35.334 48.333 68.001 79c26.667 24 45.834 44.5 57.501 61.5s17.5 37.5 17.5 61.5c0 32 -10.333 57.833 -31 77.5s-49.334 29.5 -86.001 29.5c-33.333 0 -59.833 -9.5 -79.5 -28.5s-34.5 -42.5 -44.5 -70.5l-79 33
c14.667 38.667 38.667 72.834 72 102.501s76.666 44.5 129.999 44.5c40 0 75.5 -8.16699 106.5 -24.5s55 -38.833 72 -67.5s25.5 -60.667 25.5 -96c0 -36.667 -9.16699 -67.834 -27.5 -93.501s-41.833 -51.5 -70.5 -77.5c-22 -20 -38 -39 -48 -57s-15 -39 -15 -63v-42h-87
v48zM199.5 12.5c-12.333 12.333 -18.5 27.5 -18.5 45.5c0 17.333 6.16699 32.166 18.5 44.499s27.166 18.5 44.499 18.5c18 0 33.167 -6.16699 45.5 -18.5s18.5 -27.166 18.5 -44.499c0 -18 -6.16699 -33.167 -18.5 -45.5s-27.5 -18.5 -45.5 -18.5
c-17.333 0 -32.166 6.16699 -44.499 18.5z" />
    <glyph glyph-name="at" unicode="@" horiz-adv-x="884" 
d="M245.5 -30c-59.667 34.667 -106.662 81.502 -140.995 140.502s-51.5 123.5 -51.5 193.5s17.167 134.5 51.5 193.5s81.5 105.833 141.5 140.5s126 52 198 52s137.5 -17.333 196.5 -52s105.5 -81.5 139.5 -140.5s51 -123.5 51 -193.5
c0 -60.667 -12.833 -110.5 -38.5 -149.5s-62.167 -58.5 -109.5 -58.5c-24.667 0 -46.834 6.83301 -66.501 20.5s-34.5 32.167 -44.5 55.5c-16 -24.667 -36.167 -43.5 -60.5 -56.5s-51.833 -19.5 -82.5 -19.5c-35.333 0 -67.833 8.66699 -97.5 26s-53 41.5 -70 72.5
s-25.5 66.167 -25.5 105.5c0 38.667 8.66699 73.667 26 105s40.5 55.666 69.5 72.999s60.5 26 94.5 26c26 0 50.167 -5.5 72.5 -16.5s41.5 -26.167 57.5 -45.5h4v48h67v-261c0 -19.333 5.16699 -36.333 15.5 -51s25.833 -22 46.5 -22c28 0 47.5 14.833 58.5 44.5
s16.5 64.167 16.5 103.5c0 58.667 -14.333 112.334 -43 161.001s-67.334 87.167 -116.001 115.5s-102.334 42.5 -161.001 42.5s-112.5 -14.167 -161.5 -42.5s-87.833 -66.833 -116.5 -115.5s-43 -102.334 -43 -161.001s14.333 -112.334 43 -161.001
s67.5 -87.167 116.5 -115.5s102.833 -42.5 161.5 -42.5c47.333 0 89.666 9.33301 126.999 28l26 -63c-46.667 -21.333 -97.667 -32 -153 -32c-72.667 0 -138.834 17.333 -198.501 52zM524.005 202.502c24.667 24.333 37 56.833 37 97.5s-12.333 73.167 -37 97.5
s-54.334 36.5 -89.001 36.5s-64.167 -12.333 -88.5 -37s-36.5 -57 -36.5 -97s12.167 -72.333 36.5 -97s53.833 -37 88.5 -37s64.334 12.167 89.001 36.5z" />
    <glyph glyph-name="A" unicode="A" horiz-adv-x="669" 
d="M286 716h96l272 -716h-93l-72 197h-309l-72 -197h-93zM460 277l-95 258l-29 77h-4l-28 -77l-95 -258h251z" />
    <glyph glyph-name="B" unicode="B" horiz-adv-x="606" 
d="M80 716l256.999 -0.000976562c36 0 69.833 -8.33301 101.5 -25s56.834 -39.667 75.501 -69s28 -62.333 28 -99c0 -34.667 -8.83301 -65 -26.5 -91s-41.5 -46 -71.5 -60v-4c36 -12 65.333 -32.667 88 -62s34 -63.666 34 -102.999c0 -38.667 -9.83301 -73.5 -29.5 -104.5
s-46 -55.167 -79 -72.5s-68.5 -26 -106.5 -26h-271v716zM336.999 405.999c24 0 45.168 5.66602 63.501 16.999s32.5 25.833 42.5 43.5s15 35.834 15 54.501c0 18 -4.83301 35.833 -14.5 53.5s-23.334 32.167 -41.001 43.5s-38.167 17 -61.5 17h-177v-229h173zM356 80.998
c24 0 45.499 6 64.499 18s33.667 27.5 44 46.5s15.5 38.5 15.5 58.5s-5.33301 39.5 -16 58.5s-25.667 34.333 -45 46s-41.666 17.5 -66.999 17.5h-188v-245h192z" />
    <glyph glyph-name="C" unicode="C" horiz-adv-x="741" 
d="M227 33c-56.667 32.667 -101.168 77.4971 -133.501 134.497s-48.5 120.5 -48.5 190.5s16.167 133.5 48.5 190.5s76.833 101.833 133.5 134.5s119.667 49 189 49c53.333 0 102.166 -10.167 146.499 -30.5s82.833 -49.166 115.5 -86.499l-61 -59
c-27.333 32.667 -57.166 56.667 -89.499 72s-69.5 23 -111.5 23c-52 0 -99.667 -12.167 -143 -36.5s-77.833 -58.666 -103.5 -102.999s-38.5 -95.5 -38.5 -153.5s12.833 -109.167 38.5 -153.5s60.167 -78.666 103.5 -102.999s91 -36.5 143 -36.5
c86.667 0 160.334 35.667 221.001 107l62 -60c-33.333 -39.333 -74.333 -70.5 -123 -93.5s-102 -34.5 -160 -34.5c-69.333 0 -132.333 16.333 -189 49z" />
    <glyph glyph-name="D" unicode="D" horiz-adv-x="703" 
d="M80 716h216c73.333 0 137.333 -15.167 192 -45.5s96.667 -72.5 126 -126.5s44 -116 44 -186s-14.667 -132 -44 -186s-71.333 -96.167 -126 -126.5s-118.667 -45.5 -192 -45.5h-216v716zM296 81c84.667 0 151.834 24.333 201.501 73s74.5 116.667 74.5 204
s-24.833 155.333 -74.5 204s-116.834 73 -201.501 73h-132v-554h132z" />
    <glyph glyph-name="E" unicode="E" horiz-adv-x="551" 
d="M80 716h414v-81h-330v-237h298v-80h-298v-237h330v-81h-414v716z" />
    <glyph glyph-name="F" unicode="F" horiz-adv-x="531" 
d="M80 716h414v-81h-330v-245h298v-80h-298v-310h-84v716z" />
    <glyph glyph-name="G" unicode="G" horiz-adv-x="813" 
d="M230 33c-56.667 32.667 -101.666 77.667 -134.999 135s-50 120.666 -50 189.999s16.667 132.666 50 189.999s78.333 102.333 135 135s118.667 49 186 49c52.667 0 102.167 -9.33301 148.5 -28s84.5 -45 114.5 -79l-61 -61c-22.667 28 -51.667 49.5 -87 64.5
s-73.333 22.5 -114 22.5c-50.667 0 -97.834 -12.167 -141.501 -36.5s-78.667 -58.666 -105 -102.999s-39.5 -95.5 -39.5 -153.5s13.167 -109.167 39.5 -153.5s61.5 -78.666 105.5 -102.999s91 -36.5 141 -36.5c48 0 88.167 7.5 120.5 22.5s60.166 34.833 83.499 59.5
c17.333 18.667 31.333 41.167 42 67.5s17.334 55.5 20.001 87.5h-265v79h344c3.33301 -18.667 5 -36 5 -52c0 -44 -7 -86.833 -21 -128.5s-36.333 -78.167 -67 -109.5c-66 -71.333 -153.667 -107 -263 -107c-67.333 0 -129.333 16.333 -186 49z" />
    <glyph glyph-name="H" unicode="H" horiz-adv-x="698" 
d="M80 716h84v-310h370v310h84v-716h-84v326h-370v-326h-84v716z" />
    <glyph glyph-name="I" unicode="I" horiz-adv-x="244" 
d="M80 716h84v-716h-84v716z" />
    <glyph glyph-name="J" unicode="J" horiz-adv-x="530" 
d="M109 27.5c-39.333 29 -67.001 69.833 -83.001 122.5l80 33c24 -78.667 71 -118 141 -118c39.333 0 70.833 13.667 94.5 41s35.5 63.333 35.5 108v502h85v-495c0 -50 -9.16699 -92.833 -27.5 -128.5s-43.666 -62.667 -75.999 -81s-69.5 -27.5 -111.5 -27.5
c-52.667 0 -98.667 14.5 -138 43.5z" />
    <glyph glyph-name="K" unicode="K" horiz-adv-x="625" 
d="M80 716h84v-377h4l323 377h109v-4l-265 -306l284 -402v-4h-103l-238 341l-114 -131v-210h-84v716z" />
    <glyph glyph-name="L" unicode="L" horiz-adv-x="509" 
d="M80 716h84v-635h314v-81h-398v716z" />
    <glyph glyph-name="M" unicode="M" horiz-adv-x="866" 
d="M80 716h123l228 -587h4l228 587h123v-716h-84v455l4 136h-4l-234 -591h-70l-234 591h-4l4 -136v-455h-84v716z" />
    <glyph glyph-name="N" unicode="N" horiz-adv-x="708" 
d="M80 716h104l359 -570h4l-4 138v432h85v-716h-88l-376 597h-4l4 -138v-459h-84v716z" />
    <glyph glyph-name="O" unicode="O" horiz-adv-x="825" 
d="M225 34c-56 33.333 -100 78.5 -132 135.5s-48 119.833 -48 188.5c0 68 16 130.667 48 188s76 102.666 132 135.999s118.333 50 187 50s131 -16.667 187 -50s100.167 -78.666 132.5 -135.999s48.5 -120 48.5 -188c0 -68.667 -16 -131.5 -48 -188.5
s-76.167 -102.167 -132.5 -135.5s-118.833 -50 -187.5 -50s-131 16.667 -187 50zM553.5 102.5c43 25 77 59.667 102 104s37.5 94.833 37.5 151.5s-12.5 107.167 -37.5 151.5s-59 79 -102 104s-90.167 37.5 -141.5 37.5s-98.333 -12.5 -141 -37.5
s-76.667 -59.833 -102 -104.5s-38 -95 -38 -151s12.667 -106.333 38 -151s59.333 -79.5 102 -104.5s89.667 -37.5 141 -37.5s98.5 12.5 141.5 37.5z" />
    <glyph glyph-name="P" unicode="P" horiz-adv-x="576" 
d="M80 716h241c40 0 77 -9 111 -27s61.167 -43.167 81.5 -75.5s30.5 -68.833 30.5 -109.5s-10.167 -77.167 -30.5 -109.5s-47.5 -57.5 -81.5 -75.5s-71 -27 -111 -27h-157v-292h-84v716zM323 373c26.667 0 50.167 6.33301 70.5 19s36.166 29 47.499 49s17 41 17 63
s-5.66699 43 -17 63s-27.166 36.333 -47.499 49s-43.833 19 -70.5 19h-159v-262h159z" />
    <glyph glyph-name="Q" unicode="Q" horiz-adv-x="825" 
d="M587 27c-54 -28.667 -112.333 -42.998 -175 -42.998c-68.667 0 -131 16.667 -187 50s-100 78.5 -132 135.5s-48 119.833 -48 188.5c0 68 16 130.667 48 188s76 102.666 132 135.999s118.333 50 187 50s131 -16.667 187 -50s100.167 -78.666 132.5 -135.999
s48.5 -120 48.5 -188c0 -56.667 -11.167 -109.834 -33.5 -159.501s-53.833 -91.834 -94.5 -126.501l50 -74l-66 -43zM541 96.002l-86.999 130l66 45l86 -129c27.333 26 48.666 57.5 63.999 94.5s23 77.5 23 121.5c0 56.667 -12.5 107.167 -37.5 151.5s-59 79 -102 104
s-90.167 37.5 -141.5 37.5s-98.333 -12.5 -141 -37.5s-76.667 -59.833 -102 -104.5s-38 -95 -38 -151s12.667 -106.333 38 -151s59.333 -79.5 102 -104.5s89.667 -37.5 141 -37.5c44.667 0 87.667 10.333 129 31z" />
    <glyph glyph-name="R" unicode="R" horiz-adv-x="586" 
d="M80 716h242c39.333 0 76 -9 110 -27s61.167 -43.167 81.5 -75.5s30.5 -68.833 30.5 -109.5c0 -33.333 -7.5 -64.333 -22.5 -93s-35.667 -52.667 -62 -72s-55.5 -32.333 -87.5 -39l-2 -3l202 -293v-4h-100l-195 292h-113v-292h-84v716zM317 371
c24.667 0 47.832 5.66895 69.499 17.002s39 27.166 52 47.499s19.5 43.166 19.5 68.499c0 22 -5.66699 43 -17 63s-27.166 36.333 -47.499 49s-43.833 19 -70.5 19h-159v-264h153z" />
    <glyph glyph-name="S" unicode="S" horiz-adv-x="561" 
d="M126 35c-46.667 34 -78.6641 81.666 -95.9971 142.999l81 33c11.333 -42.667 32.333 -77.667 63 -105s66.667 -41 108 -41s76.333 11.167 105 33.5s43 52.833 43 91.5c0 33.333 -12.167 60.833 -36.5 82.5s-64.166 41.834 -119.499 60.501l-45 16
c-50.667 18 -92 41.667 -124 71s-48 70 -48 122c0 34 9.33301 65.5 28 94.5s44.667 52.167 78 69.5s70.666 26 111.999 26s77.333 -7.66699 108 -23s55.167 -34 73.5 -56s31.166 -43.667 38.499 -65l-80 -34c-6.66699 24.667 -21.834 47 -45.501 67s-54.834 30 -93.501 30
c-36.667 0 -68 -10.333 -94 -31s-39 -46.667 -39 -78c0 -28 11 -50.833 33 -68.5s55.333 -34.167 100 -49.5l47 -16c60.667 -22 108 -49.5 142 -82.5s51 -77.833 51 -134.5c0 -46 -11.833 -84.667 -35.5 -116s-53.5 -54.333 -89.5 -69s-73 -22 -111 -22
c-56 0 -107.333 17 -154 51z" />
    <glyph glyph-name="T" unicode="T" horiz-adv-x="539" 
d="M227 635h-201v81h486v-81h-200v-635h-85v635z" />
    <glyph glyph-name="U" unicode="U" horiz-adv-x="652" 
d="M193 19.5c-40 23.667 -71 56.668 -93 99.001s-33 91.166 -33 146.499v451h85v-455c0 -58 15.333 -105.167 46 -141.5s74.667 -54.5 132 -54.5s101.5 18.167 132.5 54.5s46.5 83.5 46.5 141.5v455h84v-451c0 -55.333 -10.5 -104.333 -31.5 -147s-51.333 -75.667 -91 -99
s-86.5 -35 -140.5 -35c-51.333 0 -97 11.833 -137 35.5z" />
    <glyph glyph-name="V" unicode="V" horiz-adv-x="630" 
d="M14 716h94l177 -519l24 -71h4l25 71l185 519h94l-262 -716h-88z" />
    <glyph glyph-name="W" unicode="W" horiz-adv-x="944" 
d="M17 716h94l130 -526l12 -49h4l15 49l160 526h88l153 -526l15 -49h4l141 575h94l-193 -716h-88l-152 518l-16 56h-4l-17 -56l-158 -518h-88z" />
    <glyph glyph-name="X" unicode="X" horiz-adv-x="631" 
d="M260 370l-228 346h102l179 -279h4l181 279h101l-228 -346l242 -370h-100l-196 299h-4l-195 -299h-100z" />
    <glyph glyph-name="Y" unicode="Y" horiz-adv-x="595" 
d="M257 331l-242 385h99l183 -300h4l180 300h99l-238 -385v-331h-85v331z" />
    <glyph glyph-name="Z" unicode="Z" horiz-adv-x="572" 
d="M38 89l386 546h-370v81h468v-89l-386 -546h390v-81h-488v89z" />
    <glyph glyph-name="bracketleft" unicode="[" horiz-adv-x="318" 
d="M80 792h201v-70h-124v-776h124v-70h-201v916z" />
    <glyph glyph-name="backslash" unicode="\" horiz-adv-x="438" 
d="M31 716h79l297 -716h-79z" />
    <glyph glyph-name="bracketright" unicode="]" horiz-adv-x="318" 
d="M37 -54h124v776h-124v70h201v-916h-201v70z" />
    <glyph glyph-name="asciicircum" unicode="^" horiz-adv-x="465" 
d="M199 716h67l187 -306h-89l-130 224h-4l-129 -224h-89z" />
    <glyph glyph-name="underscore" unicode="_" horiz-adv-x="476" 
d="M0 -146h476v-70h-476v70z" />
    <glyph glyph-name="grave" unicode="`" horiz-adv-x="397" 
d="M98 716h93l52 -127h-75z" />
    <glyph glyph-name="a" unicode="a" horiz-adv-x="531" 
d="M126 6c-29.333 14.667 -52 34.833 -68 60.5s-24 54.834 -24 87.501c0 54 20.333 96.167 61 126.5s92 45.5 154 45.5c30.667 0 59.167 -3.33301 85.5 -10s46.5 -14.334 60.5 -23.001v31c0 38 -13.333 68.5 -40 91.5s-60.334 34.5 -101.001 34.5
c-28.667 0 -55 -6.16699 -79 -18.5s-43 -29.5 -57 -51.5l-64 48c20 30.667 47.5 54.667 82.5 72s73.833 26 116.5 26c69.333 0 123.833 -18.167 163.5 -54.5s59.5 -85.833 59.5 -148.5v-323h-81v73h-4c-14.667 -24.667 -36.667 -45.667 -66 -63s-62.333 -26 -99 -26
c-37.333 0 -70.666 7.33301 -99.999 22zM314 80.999c24.667 14.667 44.333 34.332 59 58.999s22 51.667 22 81c-16 10.667 -35.667 19.334 -59 26.001s-48 10 -74 10c-46.667 0 -81.834 -9.66699 -105.501 -29s-35.5 -44.333 -35.5 -75c0 -28 10.667 -50.667 32 -68
s48.333 -26 81 -26c28.667 0 55.334 7.33301 80.001 22z" />
    <glyph glyph-name="b" unicode="b" horiz-adv-x="602" 
d="M217.5 10.5c-31 17.667 -54.167 39.165 -69.5 64.498h-4v-75h-81v716h85v-211l-4 -71h4c15.333 26 38.5 47.833 69.5 65.5s65.833 26.5 104.5 26.5c45.333 0 86.666 -11.667 123.999 -35s66.666 -55.666 87.999 -96.999s32 -87.666 32 -138.999
c0 -52 -10.667 -98.5 -32 -139.5s-50.666 -73.167 -87.999 -96.5s-78.666 -35 -123.999 -35c-38.667 0 -73.5 8.83301 -104.5 26.5zM395 84.998c26 16 46.833 38.833 62.5 68.5s23.5 63.5 23.5 101.5s-7.83301 71.833 -23.5 101.5s-36.5 52.5 -62.5 68.5s-53.667 24 -83 24
s-57 -8 -83 -24s-46.667 -38.667 -62 -68s-23 -63.333 -23 -102s7.66699 -72.667 23 -102s36 -52 62 -68s53.667 -24 83 -24s57 8 83 24z" />
    <glyph glyph-name="c" unicode="c" horiz-adv-x="546" 
d="M161 19.5c-39.333 23.667 -70.001 56.001 -92.001 97.001s-33 87.167 -33 138.5s11 97.666 33 138.999s52.667 73.666 92 96.999s83.666 35 132.999 35c55.333 0 101.833 -12.833 139.5 -38.5s64.5 -59.834 80.5 -102.501l-77 -32
c-12.667 31.333 -31.5 55.166 -56.5 71.499s-55.167 24.5 -90.5 24.5c-30 0 -58 -8.16699 -84 -24.5s-46.833 -39.166 -62.5 -68.499s-23.5 -63 -23.5 -101s7.83301 -71.667 23.5 -101s36.5 -52.166 62.5 -68.499s54 -24.5 84 -24.5c36 0 67 8.33301 93 25
s45.333 40.334 58 71.001l76 -32c-17.333 -42 -45.166 -76 -83.499 -102s-84.833 -39 -139.5 -39c-49.333 0 -93.666 11.833 -132.999 35.5z" />
    <glyph glyph-name="d" unicode="d" horiz-adv-x="602" 
d="M155.5 19c-37 23.333 -66.167 55.502 -87.5 96.502s-32 87.5 -32 139.5c0 51.333 10.667 97.666 32 138.999s50.5 73.666 87.5 96.999s78.167 35 123.5 35c39.333 0 74.333 -8.83301 105 -26.5s54 -39.5 70 -65.5h4l-4 71v211h85v-716h-81v75h-4
c-16 -25.333 -39.333 -46.833 -70 -64.5s-65.667 -26.5 -105 -26.5c-45.333 0 -86.5 11.667 -123.5 35zM372.5 85.002c25.667 16 46.334 38.667 62.001 68s23.5 63.333 23.5 102s-7.83301 72.667 -23.5 102s-36.334 52 -62.001 68s-53.5 24 -83.5 24
c-29.333 0 -57 -8 -83 -24s-46.833 -38.833 -62.5 -68.5s-23.5 -63.5 -23.5 -101.5s7.83301 -71.833 23.5 -101.5s36.5 -52.5 62.5 -68.5s53.667 -24 83 -24c30 0 57.833 8 83.5 24z" />
    <glyph glyph-name="e" unicode="e" horiz-adv-x="563" 
d="M159 19c-38.667 23.333 -68.8311 55.501 -90.498 96.501s-32.5 87.167 -32.5 138.5c0 49.333 10.167 94.666 30.5 135.999s49.166 74.333 86.499 99s80.666 37 129.999 37c50 0 93.333 -11.167 130 -33.5s64.834 -53.166 84.501 -92.499s29.5 -84.333 29.5 -135
c0 -10 -1 -18.667 -3 -26h-403c2 -38.667 11.333 -71.334 28 -98.001s37.834 -46.667 63.501 -60s52.5 -20 80.5 -20c65.333 0 115.666 30.667 150.999 92l72 -35c-22 -41.333 -51.833 -74 -89.5 -98s-83.167 -36 -136.5 -36c-48.667 0 -92.334 11.667 -131.001 35z
M437.003 309.001c-1.33301 21.333 -7.33203 42.667 -17.999 64s-27.5 39.333 -50.5 54s-51.833 22 -86.5 22c-40 0 -73.833 -12.833 -101.5 -38.5s-45.834 -59.5 -54.501 -101.5h311z" />
    <glyph glyph-name="f" unicode="f" horiz-adv-x="379" 
d="M122 433h-94v77h94v55c0 32 7.33301 60 22 84s34.334 42.5 59.001 55.5s52 19.5 82 19.5c28.667 0 53.667 -4 75 -12v-83c-12 4.66699 -23.333 8.5 -34 11.5s-23.334 4.5 -38.001 4.5c-22 0 -41 -7.83301 -57 -23.5s-24 -37.5 -24 -65.5v-46h131v-77h-131v-433h-85v433z
" />
    <glyph glyph-name="g" unicode="g" horiz-adv-x="597" 
d="M138.5 -190c-39 28 -65.166 61.665 -78.499 100.998l77 33c11.333 -29.333 30.166 -53.166 56.499 -71.499s57.5 -27.5 93.5 -27.5c52.667 0 93.5 15.333 122.5 46s43.5 74 43.5 130v57h-4c-16.667 -26 -40.167 -47.167 -70.5 -63.5s-64.833 -24.5 -103.5 -24.5
c-44 0 -84.167 11.333 -120.5 34s-65.166 54.334 -86.499 95.001s-32 87 -32 139c0 51.333 10.667 97.5 32 138.5s50.166 72.833 86.499 95.5s76.5 34 120.5 34c38.667 0 73.167 -8.16699 103.5 -24.5s53.833 -37.833 70.5 -64.5h4v73h81v-490
c0 -82 -22.667 -144.5 -68 -187.5s-105 -64.5 -179 -64.5c-60 0 -109.5 14 -148.5 42zM370.501 89.998c25 15.333 45 37.333 60 66s22.5 62.667 22.5 102c0 40 -7.5 74.333 -22.5 103s-35 50.5 -60 65.5s-52.833 22.5 -83.5 22.5s-58.667 -7.66699 -84 -23
s-45.5 -37.333 -60.5 -66s-22.5 -62.667 -22.5 -102s7.5 -73.5 22.5 -102.5s35.167 -51 60.5 -66s53.333 -22.5 84 -22.5s58.5 7.66699 83.5 23z" />
    <glyph glyph-name="h" unicode="h" horiz-adv-x="564" 
d="M63 716l84.999 -0.000976562v-211l-4 -70h4c14 26 36.167 47.667 66.5 65s63.5 26 99.5 26c62 0 109.333 -18.167 142 -54.5s49 -84.5 49 -144.5v-327h-85v314c0 46 -11.667 80 -35 102s-53.666 33 -90.999 33c-26.667 0 -51.167 -8 -73.5 -24s-40 -36.667 -53 -62
s-19.5 -51.666 -19.5 -78.999v-284h-85v716z" />
    <glyph glyph-name="i" unicode="i" horiz-adv-x="226" 
d="M70 622c-12 12 -18 26.333 -18 43s6 30.834 18 42.501s26.333 17.5 43 17.5s31 -5.83301 43 -17.5s18 -25.834 18 -42.501s-5.83301 -31 -17.5 -43s-26.167 -18 -43.5 -18c-16.667 0 -31 6 -43 18zM71 510h84v-510h-84v510z" />
    <glyph glyph-name="j" unicode="j" horiz-adv-x="226" 
d="M70 622c-12 12 -18 26.333 -18 43s6 30.834 18 42.501s26.333 17.5 43 17.5s31 -5.83301 43 -17.5s18 -25.834 18 -42.501s-5.83301 -31 -17.5 -43s-26.167 -18 -43.5 -18c-16.667 0 -31 6 -43 18zM-30 -219v81c5.33301 -3.33301 12 -6 20 -8s15.333 -3 22 -3
c20.667 0 35.667 6.5 45 19.5s14 32.167 14 57.5v582h84v-582c0 -51.333 -12.333 -89.833 -37 -115.5s-59 -38.5 -103 -38.5c-16 0 -31 2.33301 -45 7z" />
    <glyph glyph-name="k" unicode="k" horiz-adv-x="505" 
d="M63 716h85v-450l240 244h108v-4l-200 -202l205 -300v-4h-101l-164 245l-88 -88v-157h-85v716z" />
    <glyph glyph-name="l" unicode="l" horiz-adv-x="211" 
d="M63 716h85v-716h-85v716z" />
    <glyph glyph-name="m" unicode="m" horiz-adv-x="875" 
d="M63 510l81 0.00292969v-75h4c14.667 26 36.667 47.667 66 65s60.333 26 93 26c37.333 0 69.833 -9 97.5 -27s47.5 -42 59.5 -72c18 30 41.833 54 71.5 72s64.167 27 103.5 27c58.667 0 102.834 -17.833 132.501 -53.5s44.5 -84.167 44.5 -145.5v-327h-84v314
c0 47.333 -9.66699 81.666 -29 102.999s-48 32 -86 32c-25.333 0 -48.333 -7.33301 -69 -22s-36.834 -34.334 -48.501 -59.001s-17.5 -51.334 -17.5 -80.001v-288h-85v313c0 48 -9.66699 82.667 -29 104s-47.666 32 -84.999 32c-25.333 0 -48.333 -7.5 -69 -22.5
s-36.834 -35 -48.501 -60s-17.5 -51.833 -17.5 -80.5v-286h-85v510z" />
    <glyph glyph-name="n" unicode="n" horiz-adv-x="561" 
d="M63 510l81 0.000976562v-75h4c14 25.333 36.333 46.833 67 64.5s63.334 26.5 98.001 26.5c61.333 0 108.166 -17.833 140.499 -53.5s48.5 -84.167 48.5 -145.5v-327h-85v314c0 47.333 -11.333 81.666 -34 102.999s-53.667 32 -93 32
c-27.333 0 -51.833 -7.66699 -73.5 -23s-38.5 -35.5 -50.5 -60.5s-18 -51.167 -18 -78.5v-287h-85v510z" />
    <glyph glyph-name="o" unicode="o" horiz-adv-x="596" 
d="M163 20c-40 24 -71.167 56.667 -93.5 98s-33.5 87 -33.5 137s11.167 95.667 33.5 137s53.5 74 93.5 98s85 36 135 36s95 -12 135 -36s71.167 -56.667 93.5 -98s33.5 -87 33.5 -137s-11.167 -95.667 -33.5 -137s-53.5 -74 -93.5 -98s-85 -36 -135 -36s-95 12 -135 36z
M385.5 84.5c27 15.667 48.667 38.167 65 67.5s24.5 63.666 24.5 102.999s-8.16699 73.666 -24.5 102.999s-38 51.833 -65 67.5s-56.167 23.5 -87.5 23.5s-60.666 -7.83301 -87.999 -23.5s-49.166 -38.167 -65.499 -67.5s-24.5 -63.666 -24.5 -102.999
s8.16699 -73.666 24.5 -102.999s38.166 -51.833 65.499 -67.5s56.666 -23.5 87.999 -23.5s60.5 7.83301 87.5 23.5z" />
    <glyph glyph-name="p" unicode="p" horiz-adv-x="598" 
d="M59 510l81 -0.00195312v-76h4c15.333 26 38.5 47.833 69.5 65.5s65.833 26.5 104.5 26.5c45.333 0 86.666 -11.667 123.999 -35s66.666 -55.666 87.999 -96.999s32 -87.666 32 -138.999c0 -52 -10.667 -98.5 -32 -139.5s-50.666 -73.167 -87.999 -96.5
s-78.666 -35 -123.999 -35c-38.667 0 -73.5 8.83301 -104.5 26.5s-54.167 39.167 -69.5 64.5h-4l4 -70v-221h-85v726zM391 84.998c26 16 46.833 38.833 62.5 68.5s23.5 63.5 23.5 101.5s-7.83301 71.833 -23.5 101.5s-36.5 52.5 -62.5 68.5s-53.667 24 -83 24
s-57 -8 -83 -24s-46.667 -38.667 -62 -68s-23 -63.333 -23 -102s7.66699 -72.667 23 -102s36 -52 62 -68s53.667 -24 83 -24s57 8 83 24z" />
    <glyph glyph-name="q" unicode="q" horiz-adv-x="598" 
d="M454 5l4 70.002h-4c-16 -25.333 -39.333 -46.833 -70 -64.5s-65.667 -26.5 -105 -26.5c-45.333 0 -86.5 11.667 -123.5 35s-66.167 55.5 -87.5 96.5s-32 87.5 -32 139.5c0 51.333 10.667 97.666 32 138.999s50.5 73.666 87.5 96.999s78.167 35 123.5 35
c39.333 0 74.333 -8.83301 105 -26.5s54 -39.5 70 -65.5h4v76h81v-726h-85v221zM372.5 85.002c25.667 16 46.334 38.667 62.001 68s23.5 63.333 23.5 102s-7.83301 72.667 -23.5 102s-36.334 52 -62.001 68s-53.5 24 -83.5 24c-29.333 0 -57 -8 -83 -24
s-46.833 -38.833 -62.5 -68.5s-23.5 -63.5 -23.5 -101.5s7.83301 -71.833 23.5 -101.5s36.5 -52.5 62.5 -68.5s53.667 -24 83 -24c30 0 57.833 8 83.5 24z" />
    <glyph glyph-name="r" unicode="r" horiz-adv-x="375" 
d="M63 510h81.001v-82h4c10 28 29.333 51.167 58 69.5s58.667 27.5 90 27.5c23.333 0 43.333 -3.33301 60 -10v-92c-21.333 10.667 -45.333 16 -72 16c-24.667 0 -47.334 -7 -68.001 -21s-37.167 -32.833 -49.5 -56.5s-18.5 -49.167 -18.5 -76.5v-285h-85v510z" />
    <glyph glyph-name="s" unicode="s" horiz-adv-x="473" 
d="M104 22.5c-36.667 25.667 -62.666 58.5039 -77.999 98.5039l76 34c12.667 -30.667 31.5 -54.334 56.5 -71.001s52.5 -25 82.5 -25c32 0 59.333 6.5 82 19.5s34 31.5 34 55.5c0 21.333 -9 38.5 -27 51.5s-46.333 24.167 -85 33.5l-62 16c-40.667 10 -74 27 -100 51
s-39 55 -39 93c0 29.333 8.83301 55.166 26.5 77.499s41.167 39.5 70.5 51.5s61 18 95 18c44.667 0 84.5 -9.66699 119.5 -29s59.833 -46.333 74.5 -81l-74 -34c-22.667 45.333 -63 68 -121 68c-28 0 -52.5 -6.5 -73.5 -19.5s-31.5 -29.5 -31.5 -49.5
c0 -18.667 7.33301 -33.834 22 -45.501s36.667 -21.167 66 -28.5l74 -19c50 -12.667 87.667 -31.5 113 -56.5s38 -55.5 38 -91.5c0 -31.333 -9 -58.833 -27 -82.5s-42.333 -41.834 -73 -54.501s-64.667 -19 -102 -19c-54.667 0 -100.334 12.833 -137.001 38.5z" />
    <glyph glyph-name="t" unicode="t" horiz-adv-x="366" 
d="M201.5 2c-17.667 6.66699 -32.499 15.666 -44.499 26.999c-13.333 12.667 -23.333 27.334 -30 44.001s-10 37 -10 61v299h-89v77h89v144h85v-144h124v-77h-124v-278c0 -28 5.33301 -48.667 16 -62c12.667 -14.667 31 -22 55 -22c19.333 0 38 5.66699 56 17v-83
c-10 -4.66699 -20.167 -8 -30.5 -10s-23.5 -3 -39.5 -3c-20.667 0 -39.834 3.33301 -57.501 10z" />
    <glyph glyph-name="u" unicode="u" horiz-adv-x="561" 
d="M107.5 38c-32.333 36 -48.499 86.333 -48.499 151v321h85v-308c0 -48.667 11 -84.334 33 -107.001s51.667 -34 89 -34c28.667 0 54.167 7.66699 76.5 23s39.666 35.333 51.999 60s18.5 50.667 18.5 78v288h85v-510h-81v74h-4c-14 -25.333 -36.333 -46.666 -67 -63.999
s-63.334 -26 -98.001 -26c-61.333 0 -108.166 18 -140.499 54z" />
    <glyph glyph-name="v" unicode="v" horiz-adv-x="514" 
d="M7 510h91l158 -410h2l160 410h89l-208 -510h-86z" />
    <glyph glyph-name="w" unicode="w" horiz-adv-x="777" 
d="M7 510h87l122 -403h1l128 403h88l129 -402h1l121 402h86l-165 -510h-86l-132 407l-131 -407h-85z" />
    <glyph glyph-name="x" unicode="x" horiz-adv-x="487" 
d="M193 259l-177 251h96l132 -189l127 189h99l-178 -251l182 -259h-99l-133 196l-130 -196h-99z" />
    <glyph glyph-name="y" unicode="y" horiz-adv-x="516" 
d="M219 32l-211 478h92l160 -379h2l154 379h92l-315 -726h-88z" />
    <glyph glyph-name="z" unicode="z" horiz-adv-x="487" 
d="M37 73l301 360h-292v77h396v-73l-302 -360h310v-77h-413v73z" />
    <glyph glyph-name="braceleft" unicode="{" horiz-adv-x="313" 
d="M141 -79.5c-29.333 29.667 -44 69.165 -44 118.498v175c0 27.333 -6.83301 48.333 -20.5 63s-31.5 22 -53.5 22v70c22 0 39.833 7.33301 53.5 22s20.5 35.667 20.5 63v175c0 49.333 14.667 88.833 44 118.5s69 44.5 119 44.5h22v-70h-21c-25.333 0 -46 -8.66699 -62 -26
s-24 -40.666 -24 -69.999v-175c0 -31.333 -5.66699 -56.333 -17 -75s-28.333 -32 -51 -40v-4c22.667 -8 39.667 -21.167 51 -39.5s17 -43.5 17 -75.5v-175c0 -29.333 8 -52.666 24 -69.999s36.667 -26 62 -26h21v-70h-22c-50 0 -89.667 14.833 -119 44.5z" />
    <glyph glyph-name="bar" unicode="|" horiz-adv-x="237" 
d="M80 792h77v-912h-77v912z" />
    <glyph glyph-name="braceright" unicode="}" horiz-adv-x="313" 
d="M31 -54l21 0.00195312c25.333 0 46.166 8.66699 62.499 26s24.5 40.666 24.5 69.999v175c0 32 5.5 57.167 16.5 75.5s27.833 31.5 50.5 39.5v4c-22.667 8 -39.5 21.333 -50.5 40s-16.5 43.667 -16.5 75v175c0 29.333 -8.16699 52.666 -24.5 69.999s-37.166 26 -62.499 26
h-21v70h22c50 0 89.667 -14.833 119 -44.5s44 -69.167 44 -118.5v-175c0 -27.333 6.83301 -48.333 20.5 -63s31.5 -22 53.5 -22v-70c-22 0 -39.833 -7.33301 -53.5 -22s-20.5 -35.667 -20.5 -63v-175c0 -49.333 -14.667 -88.833 -44 -118.5s-69 -44.5 -119 -44.5h-22v70z
" />
    <glyph glyph-name="asciitilde" unicode="~" horiz-adv-x="535" 
d="M327.5 245.5c-19 6.33301 -42.5 15.5 -70.5 27.5c-24.667 10.667 -44.5 18.5 -59.5 23.5s-28.167 7.5 -39.5 7.5c-15.333 0 -28 -5.5 -38 -16.5s-15.667 -23.833 -17 -38.5h-66c0 26 5.66699 49 17 69s26.166 35.333 44.499 46s37.5 16 57.5 16
c16.667 0 34.334 -3.16699 53.001 -9.5s42.667 -15.5 72 -27.5c24 -10.667 43.333 -18.5 58 -23.5s27.667 -7.5 39 -7.5c15.333 0 27.833 5.5 37.5 16.5s15.167 23.833 16.5 38.5h67c0 -26 -5.83301 -49 -17.5 -69s-26.667 -35.333 -45 -46s-37.5 -16 -57.5 -16
c-15.333 0 -32.5 3.16699 -51.5 9.5z" />
    <glyph glyph-name="uni00A0" unicode="&#xa0;" horiz-adv-x="232" 
 />
    <glyph glyph-name="exclamdown" unicode="&#xa1;" horiz-adv-x="238" 
d="M73.5 416.5c-12.333 12.333 -18.5 27.5 -18.5 45.5s6.16699 33.167 18.5 45.5s27.5 18.5 45.5 18.5c17.333 0 32.166 -6.16699 44.499 -18.5s18.5 -27.5 18.5 -45.5s-6.16699 -33.167 -18.5 -45.5s-27.166 -18.5 -44.499 -18.5c-18 0 -33.167 6.16699 -45.5 18.5zM77 27
l9 277h65l10 -277v-243h-84v243z" />
    <glyph glyph-name="cent" unicode="&#xa2;" horiz-adv-x="531" 
d="M432.5 130.5c-31 -25 -68.833 -40.168 -113.5 -45.501v-85h-70v85c-41.333 5.33301 -78.166 19.833 -110.499 43.5s-57.5 54 -75.5 91s-27 77.833 -27 122.5s9 85.5 27 122.5s43.167 67.333 75.5 91s69.166 38.167 110.499 43.5v85h70v-85
c44.667 -5.33301 82 -20.5 112 -45.5s52.667 -55.5 68 -91.5l-77 -32c-20.667 50.667 -55 81.334 -103 92.001v-360c24.667 5.33301 46.167 16 64.5 32s32.833 36 43.5 60l75 -32c-15.333 -36 -38.5 -66.5 -69.5 -91.5zM157.5 223.999c25 -32.667 55.5 -53.332 91.5 -61.999
v360c-36 -8.66699 -66.5 -29.334 -91.5 -62.001s-37.5 -72 -37.5 -118s12.5 -85.333 37.5 -118z" />
    <glyph glyph-name="sterling" unicode="&#xa3;" horiz-adv-x="525" 
d="M505 111c-28 -74 -80.666 -111.001 -157.999 -111.001h-309v73c32.667 14.667 57.5 35.667 74.5 63s25.5 57 25.5 89c0 5.33301 -0.666992 13.333 -2 24h-97v71h70c-1.33301 2.66699 -7 12.334 -17 29.001c-17.333 29.333 -30.5 55.166 -39.5 77.499
s-13.5 47.833 -13.5 76.5c0 34.667 8.5 67.167 25.5 97.5s41 54.5 72 72.5s66.5 27 106.5 27c53.333 0 96.333 -14.167 129 -42.5s55.334 -61.166 68.001 -98.499l-78 -32c-8 26 -21.833 47.833 -41.5 65.5s-45.5 26.5 -77.5 26.5c-36.667 0 -65.834 -11.667 -87.501 -35
s-32.5 -50.333 -32.5 -81c0 -22.667 4 -43.5 12 -62.5s20.333 -42.167 37 -69.5l13.5 -22.5c6.33301 -10.333 11.5 -19.833 15.5 -28.5h138v-71h-118v-11c0 -28 -5.5 -55.5 -16.5 -82.5s-26.5 -50.833 -46.5 -71.5l4 -3h185c24.667 0 43.667 4.83301 57 14.5
s23.666 24.5 30.999 44.5z" />
    <glyph glyph-name="currency" unicode="&#xa4;" horiz-adv-x="611" 
d="M68 143l60 58.001c-25.333 38 -38 79.333 -38 124c0 46 12.667 87.333 38 124l-60 59l50 50l59 -57c37.333 28.667 80 43 128 43c48.667 0 91.667 -14.333 129 -43l59 57l50 -50l-59 -58c24.667 -38.667 37 -80.334 37 -125.001c0 -44 -12.333 -85.333 -37 -124l59 -58
l-50 -50l-59 57c-38 -29.333 -81 -44 -129 -44c-47.333 0 -90 14.667 -128 44l-59 -57zM374.5 199.501c21 13 37.667 30.667 50 53s18.5 46.5 18.5 72.5s-6.16699 50.167 -18.5 72.5s-29 40 -50 53s-44.167 19.5 -69.5 19.5c-24.667 0 -47.5 -6.5 -68.5 -19.5
s-37.667 -30.667 -50 -53s-18.5 -46.5 -18.5 -72.5s6.16699 -50.167 18.5 -72.5s29 -40 50 -53s43.833 -19.5 68.5 -19.5c25.333 0 48.5 6.5 69.5 19.5z" />
    <glyph glyph-name="yen" unicode="&#xa5;" horiz-adv-x="572" 
d="M246 169h-171v70h171v85h-171v70h126l-186 290h97l140 -232l34 -57h4l33 57l137 232h97l-183 -290h123v-70h-167v-85h167v-70h-167v-169h-84v169z" />
    <glyph glyph-name="brokenbar" unicode="&#xa6;" horiz-adv-x="237" 
d="M80 756h77v-380h-77v380zM80 292h77v-412h-77v412z" />
    <glyph glyph-name="section" unicode="&#xa7;" horiz-adv-x="545" 
d="M498 -42c0 -39.333 -10.6641 -73.332 -31.9971 -101.999s-49 -50.5 -83 -65.5s-69.333 -22.5 -106 -22.5c-52 0 -99.333 16.5 -142 49.5s-72 79.833 -88 140.5l80 32c11.333 -42 29.833 -76 55.5 -102s57.167 -39 94.5 -39s69 10.167 95 30.5s39 45.833 39 76.5
c0 34 -12.833 61.5 -38.5 82.5s-67.834 40.5 -126.501 58.5c-59.333 18.667 -103.5 42.5 -132.5 71.5s-43.5 65.167 -43.5 108.5c0 26.667 7.66699 52.334 23 77.001s36.666 45 63.999 61c-58.667 35.333 -88 83.333 -88 144c0 28 8 55.333 24 82s39.5 48.5 70.5 65.5
s67.5 25.5 109.5 25.5c35.333 0 67.166 -7.5 95.499 -22.5s51.666 -33.667 69.999 -56s30.833 -44.5 37.5 -66.5l-78 -32c-7.33301 24 -21.833 46 -43.5 66s-48.167 30 -79.5 30c-23.333 0 -44.166 -4.33301 -62.499 -13s-32.5 -20.167 -42.5 -34.5s-15 -29.166 -15 -44.499
c0 -24.667 10 -45 30 -61s51.667 -31.333 95 -46c69.333 -22 123 -48.5 161 -79.5s57 -75.167 57 -132.5c0 -28.667 -6.16699 -55.334 -18.5 -80.001s-28.833 -44.334 -49.5 -59.001c45.333 -36.667 68 -84.334 68 -143.001zM186.003 218.001
c19.333 -16 50.666 -31.001 93.999 -45.001c28.667 -8.66699 56.334 -19 83.001 -31c14.667 10 26.5 24 35.5 42s13.5 35.333 13.5 52c0 34.667 -12.833 62.167 -38.5 82.5s-68.167 39.833 -127.5 58.5l-7 2c-24.667 -7.33301 -44.5 -20.666 -59.5 -39.999
s-22.5 -39 -22.5 -59c0 -25.333 9.66699 -46 29 -62z" />
    <glyph glyph-name="dieresis" unicode="&#xa8;" horiz-adv-x="392" 
d="M76 621.5c-10.667 11 -16 23.501 -16 37.501c0 15.333 5.33301 28.166 16 38.499s23.334 15.5 38.001 15.5c15.333 0 28 -5.16699 38 -15.5s15 -23.166 15 -38.499c0 -14.667 -5 -27.334 -15 -38.001s-22.667 -16 -38 -16c-14.667 0 -27.334 5.5 -38.001 16.5z
M240.5 621.501c-11 11 -16.501 23.501 -16.501 37.501c0 15.333 5.33301 28.166 16 38.499s23.334 15.5 38.001 15.5c15.333 0 28.166 -5.16699 38.499 -15.5s15.5 -23.166 15.5 -38.499c0 -14.667 -5.16699 -27.334 -15.5 -38.001s-23.166 -16 -38.499 -16
c-14 0 -26.5 5.5 -37.5 16.5z" />
    <glyph glyph-name="copyright" unicode="&#xa9;" horiz-adv-x="530" 
d="M150 303c-35.333 20.667 -63.333 48.667 -84 84s-31 73.666 -31 114.999s10.333 79.666 31 114.999s48.667 63.333 84 84s73.666 31 114.999 31s79.666 -10.333 114.999 -31s63.333 -48.667 84 -84s31 -73.666 31 -114.999s-10.333 -79.666 -31 -114.999
s-48.667 -63.333 -84 -84s-73.666 -31 -114.999 -31s-79.666 10.333 -114.999 31zM357.5 343c28.333 16.667 50.833 39.167 67.5 67.5s25 58.833 25 91.5c0 33.333 -8.33301 64.166 -25 92.499s-39.167 50.666 -67.5 66.999s-59.166 24.5 -92.499 24.5
c-32.667 0 -63.167 -8.16699 -91.5 -24.5s-50.833 -38.666 -67.5 -66.999s-25 -59.166 -25 -92.499c0 -32.667 8.33301 -63.167 25 -91.5s39.167 -50.833 67.5 -67.5s58.833 -25 91.5 -25c33.333 0 64.166 8.33301 92.499 25zM185 418
c-22.667 23.333 -34.002 51.334 -34.002 84.001c0 33.333 11.333 61.5 34 84.5s50.667 34.5 84 34.5c18.667 0 34.667 -3.33301 48 -10s26.333 -16.334 39 -29.001l-31 -28c-7.33301 8.66699 -15.166 15 -23.499 19s-19.166 6 -32.499 6c-20 0 -37.333 -7.5 -52 -22.5
s-22 -33.167 -22 -54.5s7.33301 -39.5 22 -54.5s32 -22.5 52 -22.5c24.667 0 45 10.667 61 32l33 -26c-24 -32 -55.333 -48 -94 -48c-33.333 0 -61.333 11.667 -84 35z" />
    <glyph glyph-name="ordfeminine" unicode="&#xaa;" horiz-adv-x="474" 
d="M124 290.5c-25.333 12.333 -45.501 29.668 -60.501 52.001s-22.5 47.833 -22.5 76.5c0 46 18.167 82 54.5 108s81.166 39 134.499 39c26 0 50.167 -3.16699 72.5 -9.5s39.833 -13.166 52.5 -20.499v16c0 33.333 -11 59.666 -33 78.999s-49 29 -81 29
c-26 0 -47.667 -4.5 -65 -13.5s-31.666 -23.5 -42.999 -43.5l-72 35c12.667 26 33.834 48.167 63.501 66.5s67.5 27.5 113.5 27.5c36 0 68.833 -7.16699 98.5 -21.5s53.167 -35.333 70.5 -63s26 -60.834 26 -99.501v-262h-78v66h-4c-13.333 -23.333 -32.5 -42.5 -57.5 -57.5
s-53.833 -22.5 -86.5 -22.5c-30 0 -57.667 6.16699 -83 18.5zM284.499 359.002c21 11.333 38.001 26.832 51.001 46.499s19.5 41.834 19.5 66.501c-0.666992 0.666992 -4.83398 3.66699 -12.501 9s-20.5 10.5 -38.5 15.5s-37 7.5 -57 7.5
c-40.667 0 -71.167 -8.16699 -91.5 -24.5s-30.5 -37.833 -30.5 -64.5c0 -23.333 9.33301 -41.333 28 -54s40.667 -19 66 -19c22.667 0 44.5 5.66699 65.5 17z" />
    <glyph glyph-name="guillemotleft" unicode="&#xab;" horiz-adv-x="548" 
d="M37 271l200 217l50 -46l-161 -171l161 -171l-50 -46zM237 271l200 217l50 -46l-161 -171l161 -171l-50 -46z" />
    <glyph glyph-name="logicalnot" unicode="&#xac;" horiz-adv-x="573" 
d="M418 312h-363v70h431v-277h-68v207z" />
    <glyph glyph-name="uni00AD" unicode="&#xad;" horiz-adv-x="441" 
d="M62 345h317v-70h-317v70z" />
    <glyph glyph-name="registered" unicode="&#xae;" horiz-adv-x="530" 
d="M150 303c-35.333 20.667 -63.333 48.667 -84 84s-31 73.666 -31 114.999s10.333 79.666 31 114.999s48.667 63.333 84 84s73.666 31 114.999 31s79.666 -10.333 114.999 -31s63.333 -48.667 84 -84s31 -73.666 31 -114.999s-10.333 -79.666 -31 -114.999
s-48.667 -63.333 -84 -84s-73.666 -31 -114.999 -31s-79.666 10.333 -114.999 31zM357.5 343c28.333 16.667 50.833 39.167 67.5 67.5s25 58.833 25 91.5c0 33.333 -8.33301 64.166 -25 92.499s-39.167 50.666 -67.5 66.999s-59.166 24.5 -92.499 24.5
c-32.667 0 -63.167 -8.16699 -91.5 -24.5s-50.833 -38.666 -67.5 -66.999s-25 -59.166 -25 -92.499c0 -32.667 8.33301 -63.167 25 -91.5s39.167 -50.833 67.5 -67.5s58.833 -25 91.5 -25c33.333 0 64.166 8.33301 92.499 25zM189 615h95c19.333 0 36.333 -7 51 -21
s22 -31 22 -51c0 -15.333 -4.83301 -29 -14.5 -41s-21.5 -20 -35.5 -24l-2 -2l60 -85v-2h-50l-56 85h-26v-85h-44v226zM280 514c8.66699 0 16.333 2.66699 23 8s10 12.333 10 21c0 8 -3 15 -9 21s-13.667 9 -23 9h-48v-59h47z" />
    <glyph glyph-name="macron" unicode="&#xaf;" horiz-adv-x="399" 
d="M61 692h277v-66h-277v66z" />
    <glyph glyph-name="degree" unicode="&#xb0;" horiz-adv-x="323" 
d="M96.5 459.5c-20.333 11.667 -36.333 27.334 -48 47.001s-17.5 41.167 -17.5 64.5s5.83301 45 17.5 65s27.667 35.667 48 47s42.166 17 65.499 17s44.833 -5.66699 64.5 -17s35.334 -27 47.001 -47s17.5 -41.667 17.5 -65s-5.83301 -44.833 -17.5 -64.5
s-27.334 -35.334 -47.001 -47.001s-41.167 -17.5 -64.5 -17.5s-45.166 5.83301 -65.499 17.5zM209 521.5c12.667 13.667 19 30.167 19 49.5s-6.33301 35.833 -19 49.5s-28.334 20.5 -47.001 20.5s-34.5 -6.83301 -47.5 -20.5s-19.5 -30.167 -19.5 -49.5
s6.5 -35.833 19.5 -49.5s28.833 -20.5 47.5 -20.5s34.334 6.83301 47.001 20.5z" />
    <glyph glyph-name="plusminus" unicode="&#xb1;" horiz-adv-x="544" 
d="M237 299h-182v70h182v157h70v-157h182v-70h-182v-157h-70v157zM55 70h434v-70h-434v70z" />
    <glyph glyph-name="uni00B2" unicode="&#xb2;" horiz-adv-x="302" 
d="M23 406l135.002 135.002c14 14.667 24.833 27.667 32.5 39s11.5 23.666 11.5 36.999s-5.33301 24.666 -16 33.999s-24 14 -40 14s-29.833 -5.16699 -41.5 -15.5s-19.5 -25.5 -23.5 -45.5l-60 25c6.66699 29.333 21.667 52.5 45 69.5s49.666 25.5 78.999 25.5
c33.333 0 62.166 -9.83301 86.499 -29.5s36.5 -45.5 36.5 -77.5c0 -20.667 -6 -40 -18 -58s-26.667 -35.667 -44 -53l-97 -97h161v-59h-247v56z" />
    <glyph glyph-name="uni00B3" unicode="&#xb3;" horiz-adv-x="322" 
d="M71 367c-24.667 16.667 -41 41.3311 -49 73.998l60 23c5.33301 -21.333 14.833 -37.166 28.5 -47.499s28.834 -15.5 45.501 -15.5c17.333 0 32.5 5.5 45.5 16.5s19.5 24.833 19.5 41.5c0 16 -6.16699 28.833 -18.5 38.5s-27.5 14.5 -45.5 14.5h-41v56h36
c16.667 0 30.167 4.66699 40.5 14s15.5 21.333 15.5 36c0 14 -5.16699 25.333 -15.5 34s-22.833 13 -37.5 13c-29.333 0 -50 -15 -62 -45l-57 23c8.66699 24.667 23.167 44.334 43.5 59.001s45.5 22 75.5 22c35.333 0 64.166 -9.83301 86.499 -29.5
s33.5 -44.834 33.5 -75.501s-15.333 -56 -46 -76c38.667 -21.333 58 -49.333 58 -84c0 -35.333 -12.833 -63.666 -38.5 -84.999s-56.5 -32 -92.5 -32c-32 0 -60.333 8.33301 -85 25z" />
    <glyph glyph-name="acute" unicode="&#xb4;" horiz-adv-x="397" 
d="M207 716h93l-71 -127h-74z" />
    <glyph glyph-name="uni00B5" unicode="&#xb5;" horiz-adv-x="561" 
d="M59 510h85.001v-305c0 -49.333 11.167 -85.666 33.5 -108.999s51.833 -35 88.5 -35c28.667 0 54.167 7.66699 76.5 23s39.666 35.5 51.999 60.5s18.5 51.167 18.5 78.5v287h85v-510h-81v74h-4c-15.333 -26 -37.5 -47.5 -66.5 -64.5s-61.833 -25.5 -98.5 -25.5
c-20 0 -39.167 4.16699 -57.5 12.5s-33.833 19.166 -46.5 32.499h-4l4 -60v-185h-85v726z" />
    <glyph glyph-name="paragraph" unicode="&#xb6;" horiz-adv-x="614" 
d="M292 296h-44c-40.667 0 -78.167 8.5 -112.5 25.5s-61.666 41.5 -81.999 73.5s-30.5 69 -30.5 111s10.167 79 30.5 111s47.666 56.5 81.999 73.5s71.833 25.5 112.5 25.5h288v-932h-78v851h-89v-851h-77v512z" />
    <glyph glyph-name="periodcentered" unicode="&#xb7;" horiz-adv-x="183" 
d="M46.5 278.5c-12.333 12.333 -18.5 27.5 -18.5 45.5s6.16699 33.167 18.5 45.5s27.5 18.5 45.5 18.5c17.333 0 32.166 -6.16699 44.499 -18.5s18.5 -27.5 18.5 -45.5s-6.16699 -33.167 -18.5 -45.5s-27.166 -18.5 -44.499 -18.5c-18 0 -33.167 6.16699 -45.5 18.5z" />
    <glyph glyph-name="cedilla" unicode="&#xb8;" horiz-adv-x="403" 
d="M108.5 -218c-17 12.667 -29.168 28.667 -36.501 48l50 22c3.33301 -10 8.83301 -18.5 16.5 -25.5s16.834 -10.5 27.501 -10.5c13.333 0 24 4.16699 32 12.5s12 18.5 12 30.5c0 12.667 -4 23.334 -12 32.001s-18.667 13 -32 13c-14 0 -25.667 -5.66699 -35 -17l-44 20
l35 93h53l-22 -49c12 2 19.667 3 23 3c25.333 0 46.833 -9 64.5 -27s26.5 -40.667 26.5 -68c0 -26.667 -9.66699 -49.334 -29 -68.001s-43.333 -28 -72 -28c-21.333 0 -40.5 6.33301 -57.5 19z" />
    <glyph glyph-name="uni00B9" unicode="&#xb9;" horiz-adv-x="239" 
d="M112 632l-52 -43l-37 48l98 79h56v-366h-65v282z" />
    <glyph glyph-name="ordmasculine" unicode="&#xba;" horiz-adv-x="515" 
d="M144.5 302c-33.667 20 -60 47.5 -79 82.5s-28.5 74.167 -28.5 117.5s9.5 82.5 28.5 117.5s45.333 62.5 79 82.5s71.5 30 113.5 30s79.833 -10 113.5 -30s60 -47.5 79 -82.5s28.5 -74.167 28.5 -117.5s-9.5 -82.5 -28.5 -117.5s-45.333 -62.5 -79 -82.5
s-71.5 -30 -113.5 -30s-79.833 10 -113.5 30zM326 366c21.333 13.333 38.5 31.833 51.5 55.5s19.5 50.5 19.5 80.5s-6.5 56.833 -19.5 80.5s-30.167 42.167 -51.5 55.5s-44 20 -68 20c-24.667 0 -47.667 -6.66699 -69 -20s-38.5 -31.833 -51.5 -55.5
s-19.5 -50.5 -19.5 -80.5s6.5 -56.833 19.5 -80.5s30.167 -42.167 51.5 -55.5s44.333 -20 69 -20c24 0 46.667 6.66699 68 20z" />
    <glyph glyph-name="guillemotright" unicode="&#xbb;" horiz-adv-x="548" 
d="M57 100l160 171l-160 171l50 46l200 -217l-200 -217zM257 100l160 171l-160 171l50 46l200 -217l-200 -217z" />
    <glyph glyph-name="onequarter" unicode="&#xbc;" horiz-adv-x="732" 
d="M137 632l-52 -43l-37 48l98 79h56v-366h-65v282zM100 28l466 695l53 -36l-466 -694zM562 74h-172v44l176 248h61v-236h49v-56h-49v-74h-65v74zM562 130v137h-4l-98 -137h102z" />
    <glyph glyph-name="onehalf" unicode="&#xbd;" horiz-adv-x="774" 
d="M137 632l-52 -43l-37 48l98 79h56v-366h-65v282zM92 28l466 695l53 -36l-466 -694zM469 56l135.002 135.002c14 14.667 24.833 27.667 32.5 39s11.5 23.666 11.5 36.999s-5.33301 24.666 -16 33.999s-24 14 -40 14s-29.833 -5.16699 -41.5 -15.5s-19.5 -25.5 -23.5 -45.5
l-60 25c6.66699 29.333 21.667 52.5 45 69.5s49.666 25.5 78.999 25.5c33.333 0 62.166 -9.83301 86.499 -29.5s36.5 -45.5 36.5 -77.5c0 -20.667 -6 -40 -18 -58s-26.667 -35.667 -44 -53l-97 -97h161v-59h-247v56z" />
    <glyph glyph-name="threequarters" unicode="&#xbe;" horiz-adv-x="825" 
d="M97 367c-24.667 16.667 -41 41.3311 -49 73.998l60 23c5.33301 -21.333 14.833 -37.166 28.5 -47.499s28.834 -15.5 45.501 -15.5c17.333 0 32.5 5.5 45.5 16.5s19.5 24.833 19.5 41.5c0 16 -6.16699 28.833 -18.5 38.5s-27.5 14.5 -45.5 14.5h-41v56h36
c16.667 0 30.167 4.66699 40.5 14s15.5 21.333 15.5 36c0 14 -5.16699 25.333 -15.5 34s-22.833 13 -37.5 13c-29.333 0 -50 -15 -62 -45l-57 23c8.66699 24.667 23.167 44.334 43.5 59.001s45.5 22 75.5 22c35.333 0 64.166 -9.83301 86.499 -29.5
s33.5 -44.834 33.5 -75.501s-15.333 -56 -46 -76c38.667 -21.333 58 -49.333 58 -84c0 -35.333 -12.833 -63.666 -38.5 -84.999s-56.5 -32 -92.5 -32c-32 0 -60.333 8.33301 -85 25zM180 27.9971l466 695l53 -36l-466 -694zM655 73.9971h-172v44l176 248h61v-236h49v-56h-49
v-74h-65v74zM655 129.997v137h-4l-98 -137h102z" />
    <glyph glyph-name="questiondown" unicode="&#xbf;" horiz-adv-x="493" 
d="M205.5 416.5c-12.333 12.333 -18.5 27.5 -18.5 45.5s6.16699 33.167 18.5 45.5s27.5 18.5 45.5 18.5c17.333 0 32.166 -6.16699 44.499 -18.5s18.5 -27.5 18.5 -45.5s-6.16699 -33.167 -18.5 -45.5s-27.166 -18.5 -44.499 -18.5c-18 0 -33.167 6.16699 -45.5 18.5z
M143.5 -207.5c-31 16.333 -55.001 38.833 -72.001 67.5s-25.5 60.667 -25.5 96c0 25.333 5.33301 48.833 16 70.5s22.167 39.334 34.5 53.001s28.166 29.5 47.499 47.5c22 20 38.167 39 48.5 57s15.5 39 15.5 63v57h86v-63c0 -33.333 -6.16699 -61.166 -18.5 -83.499
s-35.166 -48.5 -68.499 -78.5c-26 -24.667 -44.833 -45.334 -56.5 -62.001s-17.5 -37 -17.5 -61c0 -32 10.333 -57.833 31 -77.5s49.334 -29.5 86.001 -29.5c33.333 0 59.833 9.5 79.5 28.5s34.167 42.5 43.5 70.5l79 -33c-13.333 -38.667 -37 -72.834 -71 -102.501
s-77.667 -44.5 -131 -44.5c-40 0 -75.5 8.16699 -106.5 24.5z" />
    <glyph glyph-name="Agrave" unicode="&#xc0;" horiz-adv-x="669" 
d="M286 716h96l272 -716h-93l-72 197h-309l-72 -197h-93zM460 277l-95 258l-29 77h-4l-28 -77l-95 -258h251zM227 900h93l52 -127h-75z" />
    <glyph glyph-name="Aacute" unicode="&#xc1;" horiz-adv-x="669" 
d="M286 716h96l272 -716h-93l-72 197h-309l-72 -197h-93zM460 277l-95 258l-29 77h-4l-28 -77l-95 -258h251zM349 900h93l-71 -127h-74z" />
    <glyph glyph-name="Acircumflex" unicode="&#xc2;" horiz-adv-x="669" 
d="M286 716h96l272 -716h-93l-72 197h-309l-72 -197h-93zM460 277l-95 258l-29 77h-4l-28 -77l-95 -258h251zM195 784l102 116h75l102 -116v-5h-82l-54 63h-8l-53 -63h-82v5z" />
    <glyph glyph-name="Atilde" unicode="&#xc3;" horiz-adv-x="669" 
d="M286 716h96l272 -716h-93l-72 197h-309l-72 -197h-93zM460 277l-95 258l-29 77h-4l-28 -77l-95 -258h251zM356.5 787.5c-11.667 5 -25.8379 12.168 -42.5049 21.501c-19.333 12 -32.666 18 -39.999 18c-22 0 -34 -12.333 -36 -37h-70c0 25.333 5.33301 46.5 16 63.5
s24.334 29.667 41.001 38s33.334 12.5 50.001 12.5c20.667 0 47.334 -10 80.001 -30c20 -11.333 33 -17 39 -17c22 0 34 12.333 36 37h70c0 -36.667 -11.167 -64.834 -33.5 -84.501s-47.166 -29.5 -74.499 -29.5c-12 0 -23.833 2.5 -35.5 7.5z" />
    <glyph glyph-name="Adieresis" unicode="&#xc4;" horiz-adv-x="669" 
d="M286 716h96l272 -716h-93l-72 197h-309l-72 -197h-93zM460 277l-95 258l-29 77h-4l-28 -77l-95 -258h251zM214 805.5c-10.667 11 -16 23.501 -16 37.501c0 15.333 5.33301 28.166 16 38.499s23.334 15.5 38.001 15.5c15.333 0 28 -5.16699 38 -15.5
s15 -23.166 15 -38.499c0 -14.667 -5 -27.334 -15 -38.001s-22.667 -16 -38 -16c-14.667 0 -27.334 5.5 -38.001 16.5zM378.5 805.501c-11 11 -16.501 23.501 -16.501 37.501c0 15.333 5.33301 28.166 16 38.499s23.334 15.5 38.001 15.5
c15.333 0 28.166 -5.16699 38.499 -15.5s15.5 -23.166 15.5 -38.499c0 -14.667 -5.16699 -27.334 -15.5 -38.001s-23.166 -16 -38.499 -16c-14 0 -26.5 5.5 -37.5 16.5z" />
    <glyph glyph-name="Aring" unicode="&#xc5;" horiz-adv-x="669" 
d="M654 0h-93l-72 197h-309l-72 -197h-93l256 674c-12 10 -21.667 22.167 -29 36.5s-11 29.5 -11 45.5c0 28.667 10 53 30 73s44.333 30 73 30s53.167 -10 73.5 -30s30.5 -44.333 30.5 -73c0 -16 -3.5 -31 -10.5 -45s-16.833 -26 -29.5 -36zM304 787
c-8.66699 -8.66699 -13 -19 -13 -31s4.33301 -22.333 13 -31s18.667 -13 30 -13c12 0 22.333 4.33301 31 13s13 19 13 31s-4.33301 22.333 -13 31s-19 13 -31 13c-11.333 0 -21.333 -4.33301 -30 -13zM460 277l-95 258l-29 77h-4l-28 -77l-95 -258h251z" />
    <glyph glyph-name="AE" unicode="&#xc6;" horiz-adv-x="960" 
d="M439 716h464v-81h-329v-237h297v-80h-297v-237h329v-81h-414v197h-264l-118 -197h-100zM489 277v358h-4l-29 -50l-184 -308h217z" />
    <glyph glyph-name="Ccedilla" unicode="&#xc7;" horiz-adv-x="741" 
d="M579 19.5c-47.333 -23 -99.334 -34.8359 -156.001 -35.5029l-15 -33c12 2 19.667 3 23 3c25.333 0 46.833 -9 64.5 -27s26.5 -40.667 26.5 -68c0 -26.667 -9.66699 -49.334 -29 -68.001s-43.333 -28 -72 -28c-21.333 0 -40.5 6.33301 -57.5 19s-29.167 28.667 -36.5 48
l50 22c3.33301 -10 8.83301 -18.5 16.5 -25.5s16.834 -10.5 27.501 -10.5c13.333 0 24 4.16699 32 12.5s12 18.5 12 30.5c0 12.667 -4 23.334 -12 32.001s-18.667 13 -32 13c-14 0 -25.667 -5.66699 -35 -17l-44 20l30 79c-62.667 6.66699 -118.834 27.167 -168.501 61.5
s-88.5 78.5 -116.5 132.5s-42 113.333 -42 178c0 70 16.167 133.5 48.5 190.5s76.833 101.833 133.5 134.5s119.667 49 189 49c53.333 0 102.166 -10.167 146.499 -30.5s82.833 -49.166 115.5 -86.499l-61 -59c-27.333 32.667 -57.166 56.667 -89.499 72s-69.5 23 -111.5 23
c-52 0 -99.667 -12.167 -143 -36.5s-77.833 -58.666 -103.5 -102.999s-38.5 -95.5 -38.5 -153.5s12.833 -109.167 38.5 -153.5s60.167 -78.666 103.5 -102.999s91 -36.5 143 -36.5c86.667 0 160.334 35.667 221.001 107l62 -60c-32.667 -38.667 -72.667 -69.5 -120 -92.5z
" />
    <glyph glyph-name="Egrave" unicode="&#xc8;" horiz-adv-x="551" 
d="M80 716h414v-81h-330v-237h298v-80h-298v-237h330v-81h-414v716zM180 900h93l52 -127h-75z" />
    <glyph glyph-name="Eacute" unicode="&#xc9;" horiz-adv-x="551" 
d="M80 716h414v-81h-330v-237h298v-80h-298v-237h330v-81h-414v716zM302 900h93l-71 -127h-74z" />
    <glyph glyph-name="Ecircumflex" unicode="&#xca;" horiz-adv-x="551" 
d="M80 716h414v-81h-330v-237h298v-80h-298v-237h330v-81h-414v716zM148 784l102 116h75l102 -116v-5h-82l-54 63h-8l-53 -63h-82v5z" />
    <glyph glyph-name="Edieresis" unicode="&#xcb;" horiz-adv-x="551" 
d="M80 716h414v-81h-330v-237h298v-80h-298v-237h330v-81h-414v716zM167 805.5c-10.667 11 -16 23.501 -16 37.501c0 15.333 5.33301 28.166 16 38.499s23.334 15.5 38.001 15.5c15.333 0 28 -5.16699 38 -15.5s15 -23.166 15 -38.499c0 -14.667 -5 -27.334 -15 -38.001
s-22.667 -16 -38 -16c-14.667 0 -27.334 5.5 -38.001 16.5zM331.5 805.501c-11 11 -16.501 23.501 -16.501 37.501c0 15.333 5.33301 28.166 16 38.499s23.334 15.5 38.001 15.5c15.333 0 28.166 -5.16699 38.499 -15.5s15.5 -23.166 15.5 -38.499
c0 -14.667 -5.16699 -27.334 -15.5 -38.001s-23.166 -16 -38.499 -16c-14 0 -26.5 5.5 -37.5 16.5z" />
    <glyph glyph-name="Igrave" unicode="&#xcc;" horiz-adv-x="244" 
d="M80 716h84v-716h-84v716zM15 900h93l52 -127h-75z" />
    <glyph glyph-name="Iacute" unicode="&#xcd;" horiz-adv-x="244" 
d="M80 716h84v-716h-84v716zM137 900h93l-71 -127h-74z" />
    <glyph glyph-name="Icircumflex" unicode="&#xce;" horiz-adv-x="244" 
d="M80 716h84v-716h-84v716zM-17 784l102 116h75l102 -116v-5h-82l-54 63h-8l-53 -63h-82v5z" />
    <glyph glyph-name="Idieresis" unicode="&#xcf;" horiz-adv-x="244" 
d="M18 806c-10.667 10.667 -16 23.334 -16 38.001c0 15.333 5.33301 28.166 16 38.499s23.334 15.5 38.001 15.5c15.333 0 28 -5.16699 38 -15.5s15 -23.166 15 -38.499c0 -14.667 -5 -27.334 -15 -38.001s-22.667 -16 -38 -16c-14.667 0 -27.334 5.33301 -38.001 16z
M151 806c-10.667 10.667 -16 23.334 -16 38.001c0 15.333 5.33301 28.166 16 38.499s23.334 15.5 38.001 15.5c15.333 0 28 -5.16699 38 -15.5s15 -23.166 15 -38.499c0 -14.667 -5 -27.334 -15 -38.001s-22.667 -16 -38 -16c-14.667 0 -27.334 5.33301 -38.001 16zM80 716
h84v-716h-84v716z" />
    <glyph glyph-name="Eth" unicode="&#xd0;" horiz-adv-x="758" 
d="M135 322h-76v70h76v324h216c73.333 0 137.333 -15.167 192 -45.5s96.667 -72.5 126 -126.5s44 -116 44 -186s-14.667 -132 -44 -186s-71.333 -96.167 -126 -126.5s-118.667 -45.5 -192 -45.5h-216v322zM351 81c84.667 0 151.834 24.333 201.501 73s74.5 116.667 74.5 204
s-24.833 155.333 -74.5 204s-116.834 73 -201.501 73h-132v-243h204v-70h-204v-241h132z" />
    <glyph glyph-name="Ntilde" unicode="&#xd1;" horiz-adv-x="708" 
d="M80 716h104l359 -570h4l-4 138v432h85v-716h-88l-376 597h-4l4 -138v-459h-84v716zM386.5 787.5c-11.667 5 -25.8379 12.168 -42.5049 21.501c-19.333 12 -32.666 18 -39.999 18c-22 0 -34 -12.333 -36 -37h-70c0 25.333 5.33301 46.5 16 63.5s24.334 29.667 41.001 38
s33.334 12.5 50.001 12.5c20.667 0 47.334 -10 80.001 -30c20 -11.333 33 -17 39 -17c22 0 34 12.333 36 37h70c0 -36.667 -11.167 -64.834 -33.5 -84.501s-47.166 -29.5 -74.499 -29.5c-12 0 -23.833 2.5 -35.5 7.5z" />
    <glyph glyph-name="Ograve" unicode="&#xd2;" horiz-adv-x="825" 
d="M225 34c-56 33.333 -100 78.5 -132 135.5s-48 119.833 -48 188.5c0 68 16 130.667 48 188s76 102.666 132 135.999s118.333 50 187 50s131 -16.667 187 -50s100.167 -78.666 132.5 -135.999s48.5 -120 48.5 -188c0 -68.667 -16 -131.5 -48 -188.5
s-76.167 -102.167 -132.5 -135.5s-118.833 -50 -187.5 -50s-131 16.667 -187 50zM553.5 102.5c43 25 77 59.667 102 104s37.5 94.833 37.5 151.5s-12.5 107.167 -37.5 151.5s-59 79 -102 104s-90.167 37.5 -141.5 37.5s-98.333 -12.5 -141 -37.5
s-76.667 -59.833 -102 -104.5s-38 -95 -38 -151s12.667 -106.333 38 -151s59.333 -79.5 102 -104.5s89.667 -37.5 141 -37.5s98.5 12.5 141.5 37.5zM305 900h93l52 -127h-75z" />
    <glyph glyph-name="Oacute" unicode="&#xd3;" horiz-adv-x="825" 
d="M225 34c-56 33.333 -100 78.5 -132 135.5s-48 119.833 -48 188.5c0 68 16 130.667 48 188s76 102.666 132 135.999s118.333 50 187 50s131 -16.667 187 -50s100.167 -78.666 132.5 -135.999s48.5 -120 48.5 -188c0 -68.667 -16 -131.5 -48 -188.5
s-76.167 -102.167 -132.5 -135.5s-118.833 -50 -187.5 -50s-131 16.667 -187 50zM553.5 102.5c43 25 77 59.667 102 104s37.5 94.833 37.5 151.5s-12.5 107.167 -37.5 151.5s-59 79 -102 104s-90.167 37.5 -141.5 37.5s-98.333 -12.5 -141 -37.5
s-76.667 -59.833 -102 -104.5s-38 -95 -38 -151s12.667 -106.333 38 -151s59.333 -79.5 102 -104.5s89.667 -37.5 141 -37.5s98.5 12.5 141.5 37.5zM427 900h93l-71 -127h-74z" />
    <glyph glyph-name="Ocircumflex" unicode="&#xd4;" horiz-adv-x="825" 
d="M225 34c-56 33.333 -100 78.5 -132 135.5s-48 119.833 -48 188.5c0 68 16 130.667 48 188s76 102.666 132 135.999s118.333 50 187 50s131 -16.667 187 -50s100.167 -78.666 132.5 -135.999s48.5 -120 48.5 -188c0 -68.667 -16 -131.5 -48 -188.5
s-76.167 -102.167 -132.5 -135.5s-118.833 -50 -187.5 -50s-131 16.667 -187 50zM553.5 102.5c43 25 77 59.667 102 104s37.5 94.833 37.5 151.5s-12.5 107.167 -37.5 151.5s-59 79 -102 104s-90.167 37.5 -141.5 37.5s-98.333 -12.5 -141 -37.5
s-76.667 -59.833 -102 -104.5s-38 -95 -38 -151s12.667 -106.333 38 -151s59.333 -79.5 102 -104.5s89.667 -37.5 141 -37.5s98.5 12.5 141.5 37.5zM273 784l102 116h75l102 -116v-5h-82l-54 63h-8l-53 -63h-82v5z" />
    <glyph glyph-name="Otilde" unicode="&#xd5;" horiz-adv-x="825" 
d="M225 34c-56 33.333 -100 78.5 -132 135.5s-48 119.833 -48 188.5c0 68 16 130.667 48 188s76 102.666 132 135.999s118.333 50 187 50s131 -16.667 187 -50s100.167 -78.666 132.5 -135.999s48.5 -120 48.5 -188c0 -68.667 -16 -131.5 -48 -188.5
s-76.167 -102.167 -132.5 -135.5s-118.833 -50 -187.5 -50s-131 16.667 -187 50zM553.5 102.5c43 25 77 59.667 102 104s37.5 94.833 37.5 151.5s-12.5 107.167 -37.5 151.5s-59 79 -102 104s-90.167 37.5 -141.5 37.5s-98.333 -12.5 -141 -37.5
s-76.667 -59.833 -102 -104.5s-38 -95 -38 -151s12.667 -106.333 38 -151s59.333 -79.5 102 -104.5s89.667 -37.5 141 -37.5s98.5 12.5 141.5 37.5zM434.5 787.5c-11.667 5 -25.8379 12.168 -42.5049 21.501c-19.333 12 -32.666 18 -39.999 18c-22 0 -34 -12.333 -36 -37
h-70c0 25.333 5.33301 46.5 16 63.5s24.334 29.667 41.001 38s33.334 12.5 50.001 12.5c20.667 0 47.334 -10 80.001 -30c20 -11.333 33 -17 39 -17c22 0 34 12.333 36 37h70c0 -36.667 -11.167 -64.834 -33.5 -84.501s-47.166 -29.5 -74.499 -29.5
c-12 0 -23.833 2.5 -35.5 7.5z" />
    <glyph glyph-name="Odieresis" unicode="&#xd6;" horiz-adv-x="825" 
d="M225 34c-56 33.333 -100 78.5 -132 135.5s-48 119.833 -48 188.5c0 68 16 130.667 48 188s76 102.666 132 135.999s118.333 50 187 50s131 -16.667 187 -50s100.167 -78.666 132.5 -135.999s48.5 -120 48.5 -188c0 -68.667 -16 -131.5 -48 -188.5
s-76.167 -102.167 -132.5 -135.5s-118.833 -50 -187.5 -50s-131 16.667 -187 50zM553.5 102.5c43 25 77 59.667 102 104s37.5 94.833 37.5 151.5s-12.5 107.167 -37.5 151.5s-59 79 -102 104s-90.167 37.5 -141.5 37.5s-98.333 -12.5 -141 -37.5
s-76.667 -59.833 -102 -104.5s-38 -95 -38 -151s12.667 -106.333 38 -151s59.333 -79.5 102 -104.5s89.667 -37.5 141 -37.5s98.5 12.5 141.5 37.5zM292 805.5c-10.667 11 -16 23.501 -16 37.501c0 15.333 5.33301 28.166 16 38.499s23.334 15.5 38.001 15.5
c15.333 0 28 -5.16699 38 -15.5s15 -23.166 15 -38.499c0 -14.667 -5 -27.334 -15 -38.001s-22.667 -16 -38 -16c-14.667 0 -27.334 5.5 -38.001 16.5zM456.5 805.501c-11 11 -16.501 23.501 -16.501 37.501c0 15.333 5.33301 28.166 16 38.499s23.334 15.5 38.001 15.5
c15.333 0 28.166 -5.16699 38.499 -15.5s15.5 -23.166 15.5 -38.499c0 -14.667 -5.16699 -27.334 -15.5 -38.001s-23.166 -16 -38.499 -16c-14 0 -26.5 5.5 -37.5 16.5z" />
    <glyph glyph-name="multiply" unicode="&#xd7;" horiz-adv-x="546" 
d="M66 116l159 155l-159 155l47 47l160 -156l160 156l47 -47l-160 -155l160 -155l-47 -47l-160 156l-160 -156z" />
    <glyph glyph-name="Oslash" unicode="&#xd8;" horiz-adv-x="825" 
d="M742.5 525.5c25 -51.667 37.501 -107.498 37.501 -167.498c0 -68.667 -16 -131.5 -48 -188.5s-76.167 -102.167 -132.5 -135.5s-118.833 -50 -187.5 -50c-60.667 0 -116.334 13 -167.001 39l-37 -59l-59 37l37 59c-44 34.667 -78.5 78 -103.5 130s-37.5 108 -37.5 168
c0 68 16 130.667 48 188s76 102.666 132 135.999s118.333 50 187 50c60.667 0 116.667 -13.333 168 -40l38 61l58 -38l-37 -60c44 -34.667 78.5 -77.834 103.5 -129.501zM157.501 229.502c17.667 -39 41.833 -71.833 72.5 -98.5l307 492c-39.333 18.667 -81 28 -125 28
c-51.333 0 -98.333 -12.5 -141 -37.5s-76.667 -59.833 -102 -104.5s-38 -95 -38 -151c0 -46.667 8.83301 -89.5 26.5 -128.5zM553.5 102.502c43 25 77.001 59.665 102.001 103.998s37.5 94.833 37.5 151.5c0 46.667 -8.66699 89.334 -26 128.001s-41.333 71.334 -72 98.001
l-307 -491c39.333 -18.667 80.666 -28 123.999 -28c51.333 0 98.5 12.5 141.5 37.5z" />
    <glyph glyph-name="Ugrave" unicode="&#xd9;" horiz-adv-x="652" 
d="M193 19.5c-40 23.667 -71 56.668 -93 99.001s-33 91.166 -33 146.499v451h85v-455c0 -58 15.333 -105.167 46 -141.5s74.667 -54.5 132 -54.5s101.5 18.167 132.5 54.5s46.5 83.5 46.5 141.5v455h84v-451c0 -55.333 -10.5 -104.333 -31.5 -147s-51.333 -75.667 -91 -99
s-86.5 -35 -140.5 -35c-51.333 0 -97 11.833 -137 35.5zM223 900.001h93l52 -127h-75z" />
    <glyph glyph-name="Uacute" unicode="&#xda;" horiz-adv-x="652" 
d="M193 19.5c-40 23.667 -71 56.668 -93 99.001s-33 91.166 -33 146.499v451h85v-455c0 -58 15.333 -105.167 46 -141.5s74.667 -54.5 132 -54.5s101.5 18.167 132.5 54.5s46.5 83.5 46.5 141.5v455h84v-451c0 -55.333 -10.5 -104.333 -31.5 -147s-51.333 -75.667 -91 -99
s-86.5 -35 -140.5 -35c-51.333 0 -97 11.833 -137 35.5zM345 900.001h93l-71 -127h-74z" />
    <glyph glyph-name="Ucircumflex" unicode="&#xdb;" horiz-adv-x="652" 
d="M193 19.5c-40 23.667 -71 56.668 -93 99.001s-33 91.166 -33 146.499v451h85v-455c0 -58 15.333 -105.167 46 -141.5s74.667 -54.5 132 -54.5s101.5 18.167 132.5 54.5s46.5 83.5 46.5 141.5v455h84v-451c0 -55.333 -10.5 -104.333 -31.5 -147s-51.333 -75.667 -91 -99
s-86.5 -35 -140.5 -35c-51.333 0 -97 11.833 -137 35.5zM191 784.001l102 116h75l102 -116v-5h-82l-54 63h-8l-53 -63h-82v5z" />
    <glyph glyph-name="Udieresis" unicode="&#xdc;" horiz-adv-x="652" 
d="M193 19.5c-40 23.667 -71 56.668 -93 99.001s-33 91.166 -33 146.499v451h85v-455c0 -58 15.333 -105.167 46 -141.5s74.667 -54.5 132 -54.5s101.5 18.167 132.5 54.5s46.5 83.5 46.5 141.5v455h84v-451c0 -55.333 -10.5 -104.333 -31.5 -147s-51.333 -75.667 -91 -99
s-86.5 -35 -140.5 -35c-51.333 0 -97 11.833 -137 35.5zM210 805.501c-10.667 11 -16 23.501 -16 37.501c0 15.333 5.33301 28.166 16 38.499s23.334 15.5 38.001 15.5c15.333 0 28 -5.16699 38 -15.5s15 -23.166 15 -38.499c0 -14.667 -5 -27.334 -15 -38.001
s-22.667 -16 -38 -16c-14.667 0 -27.334 5.5 -38.001 16.5zM374.5 805.502c-11 11 -16.501 23.501 -16.501 37.501c0 15.333 5.33301 28.166 16 38.499s23.334 15.5 38.001 15.5c15.333 0 28.166 -5.16699 38.499 -15.5s15.5 -23.166 15.5 -38.499
c0 -14.667 -5.16699 -27.334 -15.5 -38.001s-23.166 -16 -38.499 -16c-14 0 -26.5 5.5 -37.5 16.5z" />
    <glyph glyph-name="Yacute" unicode="&#xdd;" horiz-adv-x="595" 
d="M257 331l-242 385h99l183 -300h4l180 300h99l-238 -385v-331h-85v331zM312 900h93l-71 -127h-74z" />
    <glyph glyph-name="Thorn" unicode="&#xde;" horiz-adv-x="576" 
d="M80 716h84v-123h157c40 0 77 -9 111 -27s61.167 -43.167 81.5 -75.5s30.5 -68.833 30.5 -109.5s-10.167 -77.167 -30.5 -109.5s-47.5 -57.5 -81.5 -75.5s-71 -27 -111 -27h-157v-169h-84v716zM323 250c26.667 0 50.167 6.33301 70.5 19s36.166 29 47.499 49s17 41 17 63
s-5.66699 43 -17 63s-27.166 36.333 -47.499 49s-43.833 19 -70.5 19h-159v-262h159z" />
    <glyph glyph-name="germandbls" unicode="&#xdf;" horiz-adv-x="571" 
d="M249 -3l-0.00195312 79.9961c18.667 -2.66699 37 -4 55 -4c40 0 73.5 13 100.5 39s40.5 58.333 40.5 97c0 24.667 -6.83301 47.334 -20.5 68.001s-32 37 -55 49s-47.5 18 -73.5 18h-39v78h27c40 0 71.5 10.833 94.5 32.5s34.5 50.167 34.5 85.5
c0 32.667 -11.833 59.334 -35.5 80.001s-52.5 31 -86.5 31c-39.333 0 -70.166 -12.167 -92.499 -36.5s-33.5 -57.166 -33.5 -98.499v-516h-86v516c0 41.333 8.33301 78.333 25 111s41 58.334 73 77.001s70 28 114 28c40 0 75.833 -8.33301 107.5 -25
s56.334 -39.5 74.001 -68.5s26.5 -61.833 26.5 -98.5c0 -70.667 -29.667 -121 -89 -151v-4c35.333 -14 64.333 -36 87 -66s34 -66.667 34 -110c0 -41.333 -9.66699 -78.5 -29 -111.5s-46.333 -58.833 -81 -77.5s-73.667 -28 -117 -28c-20 0 -38.333 1.66699 -55 5z" />
    <glyph glyph-name="agrave" unicode="&#xe0;" horiz-adv-x="531" 
d="M126 6c-29.333 14.667 -52 34.833 -68 60.5s-24 54.834 -24 87.501c0 54 20.333 96.167 61 126.5s92 45.5 154 45.5c30.667 0 59.167 -3.33301 85.5 -10s46.5 -14.334 60.5 -23.001v31c0 38 -13.333 68.5 -40 91.5s-60.334 34.5 -101.001 34.5
c-28.667 0 -55 -6.16699 -79 -18.5s-43 -29.5 -57 -51.5l-64 48c20 30.667 47.5 54.667 82.5 72s73.833 26 116.5 26c69.333 0 123.833 -18.167 163.5 -54.5s59.5 -85.833 59.5 -148.5v-323h-81v73h-4c-14.667 -24.667 -36.667 -45.667 -66 -63s-62.333 -26 -99 -26
c-37.333 0 -70.666 7.33301 -99.999 22zM314 80.999c24.667 14.667 44.333 34.332 59 58.999s22 51.667 22 81c-16 10.667 -35.667 19.334 -59 26.001s-48 10 -74 10c-46.667 0 -81.834 -9.66699 -105.501 -29s-35.5 -44.333 -35.5 -75c0 -28 10.667 -50.667 32 -68
s48.333 -26 81 -26c28.667 0 55.334 7.33301 80.001 22zM151.999 735.997h93l52 -127h-75z" />
    <glyph glyph-name="aacute" unicode="&#xe1;" horiz-adv-x="531" 
d="M126 6c-29.333 14.667 -52 34.833 -68 60.5s-24 54.834 -24 87.501c0 54 20.333 96.167 61 126.5s92 45.5 154 45.5c30.667 0 59.167 -3.33301 85.5 -10s46.5 -14.334 60.5 -23.001v31c0 38 -13.333 68.5 -40 91.5s-60.334 34.5 -101.001 34.5
c-28.667 0 -55 -6.16699 -79 -18.5s-43 -29.5 -57 -51.5l-64 48c20 30.667 47.5 54.667 82.5 72s73.833 26 116.5 26c69.333 0 123.833 -18.167 163.5 -54.5s59.5 -85.833 59.5 -148.5v-323h-81v73h-4c-14.667 -24.667 -36.667 -45.667 -66 -63s-62.333 -26 -99 -26
c-37.333 0 -70.666 7.33301 -99.999 22zM314 80.999c24.667 14.667 44.333 34.332 59 58.999s22 51.667 22 81c-16 10.667 -35.667 19.334 -59 26.001s-48 10 -74 10c-46.667 0 -81.834 -9.66699 -105.501 -29s-35.5 -44.333 -35.5 -75c0 -28 10.667 -50.667 32 -68
s48.333 -26 81 -26c28.667 0 55.334 7.33301 80.001 22zM273.999 735.997h93l-71 -127h-74z" />
    <glyph glyph-name="acircumflex" unicode="&#xe2;" horiz-adv-x="531" 
d="M126 6c-29.333 14.667 -52 34.833 -68 60.5s-24 54.834 -24 87.501c0 54 20.333 96.167 61 126.5s92 45.5 154 45.5c30.667 0 59.167 -3.33301 85.5 -10s46.5 -14.334 60.5 -23.001v31c0 38 -13.333 68.5 -40 91.5s-60.334 34.5 -101.001 34.5
c-28.667 0 -55 -6.16699 -79 -18.5s-43 -29.5 -57 -51.5l-64 48c20 30.667 47.5 54.667 82.5 72s73.833 26 116.5 26c69.333 0 123.833 -18.167 163.5 -54.5s59.5 -85.833 59.5 -148.5v-323h-81v73h-4c-14.667 -24.667 -36.667 -45.667 -66 -63s-62.333 -26 -99 -26
c-37.333 0 -70.666 7.33301 -99.999 22zM314 80.999c24.667 14.667 44.333 34.332 59 58.999s22 51.667 22 81c-16 10.667 -35.667 19.334 -59 26.001s-48 10 -74 10c-46.667 0 -81.834 -9.66699 -105.501 -29s-35.5 -44.333 -35.5 -75c0 -28 10.667 -50.667 32 -68
s48.333 -26 81 -26c28.667 0 55.334 7.33301 80.001 22zM119.999 618.997l102 117h75l102 -117v-5h-82l-54 64h-8l-53 -64h-82v5z" />
    <glyph glyph-name="atilde" unicode="&#xe3;" horiz-adv-x="531" 
d="M126 6c-29.333 14.667 -52 34.833 -68 60.5s-24 54.834 -24 87.501c0 54 20.333 96.167 61 126.5s92 45.5 154 45.5c30.667 0 59.167 -3.33301 85.5 -10s46.5 -14.334 60.5 -23.001v31c0 38 -13.333 68.5 -40 91.5s-60.334 34.5 -101.001 34.5
c-28.667 0 -55 -6.16699 -79 -18.5s-43 -29.5 -57 -51.5l-64 48c20 30.667 47.5 54.667 82.5 72s73.833 26 116.5 26c69.333 0 123.833 -18.167 163.5 -54.5s59.5 -85.833 59.5 -148.5v-323h-81v73h-4c-14.667 -24.667 -36.667 -45.667 -66 -63s-62.333 -26 -99 -26
c-37.333 0 -70.666 7.33301 -99.999 22zM314 80.999c24.667 14.667 44.333 34.332 59 58.999s22 51.667 22 81c-16 10.667 -35.667 19.334 -59 26.001s-48 10 -74 10c-46.667 0 -81.834 -9.66699 -105.501 -29s-35.5 -44.333 -35.5 -75c0 -28 10.667 -50.667 32 -68
s48.333 -26 81 -26c28.667 0 55.334 7.33301 80.001 22zM281.499 623.497c-11.667 5 -25.835 12.167 -42.502 21.5c-19.333 12 -32.666 18 -39.999 18c-22 0 -34 -12.333 -36 -37h-70c0 36.667 11 64.667 33 84s46.667 29 74 29c20.667 0 47.334 -10 80.001 -30
c20 -11.333 33 -17 39 -17c22 0 34 12.333 36 37h70c0 -36.667 -11 -64.667 -33 -84s-47 -29 -75 -29c-12 0 -23.833 2.5 -35.5 7.5z" />
    <glyph glyph-name="adieresis" unicode="&#xe4;" horiz-adv-x="531" 
d="M126 6c-29.333 14.667 -52 34.833 -68 60.5s-24 54.834 -24 87.501c0 54 20.333 96.167 61 126.5s92 45.5 154 45.5c30.667 0 59.167 -3.33301 85.5 -10s46.5 -14.334 60.5 -23.001v31c0 38 -13.333 68.5 -40 91.5s-60.334 34.5 -101.001 34.5
c-28.667 0 -55 -6.16699 -79 -18.5s-43 -29.5 -57 -51.5l-64 48c20 30.667 47.5 54.667 82.5 72s73.833 26 116.5 26c69.333 0 123.833 -18.167 163.5 -54.5s59.5 -85.833 59.5 -148.5v-323h-81v73h-4c-14.667 -24.667 -36.667 -45.667 -66 -63s-62.333 -26 -99 -26
c-37.333 0 -70.666 7.33301 -99.999 22zM314 80.999c24.667 14.667 44.333 34.332 59 58.999s22 51.667 22 81c-16 10.667 -35.667 19.334 -59 26.001s-48 10 -74 10c-46.667 0 -81.834 -9.66699 -105.501 -29s-35.5 -44.333 -35.5 -75c0 -28 10.667 -50.667 32 -68
s48.333 -26 81 -26c28.667 0 55.334 7.33301 80.001 22zM138.999 640.997c-10.667 10.667 -16 23.334 -16 38.001c0 15.333 5.33301 28 16 38s23.334 15 38.001 15c15.333 0 28 -5 38 -15s15 -22.667 15 -38c0 -14.667 -5 -27.334 -15 -38.001s-22.667 -16 -38 -16
c-14.667 0 -27.334 5.33301 -38.001 16zM303.499 640.997c-11 10.667 -16.501 23.334 -16.501 38.001c0 15.333 5.33301 28 16 38s23.334 15 38.001 15c15.333 0 28.166 -5 38.499 -15s15.5 -22.667 15.5 -38c0 -14.667 -5.16699 -27.334 -15.5 -38.001
s-23.166 -16 -38.499 -16c-14 0 -26.5 5.33301 -37.5 16z" />
    <glyph glyph-name="aring" unicode="&#xe5;" horiz-adv-x="531" 
d="M126 6c-29.333 14.667 -52 34.833 -68 60.5s-24 54.834 -24 87.501c0 54 20.333 96.167 61 126.5s92 45.5 154 45.5c30.667 0 59.167 -3.33301 85.5 -10s46.5 -14.334 60.5 -23.001v31c0 38 -13.333 68.5 -40 91.5s-60.334 34.5 -101.001 34.5
c-28.667 0 -55 -6.16699 -79 -18.5s-43 -29.5 -57 -51.5l-64 48c20 30.667 47.5 54.667 82.5 72s73.833 26 116.5 26c69.333 0 123.833 -18.167 163.5 -54.5s59.5 -85.833 59.5 -148.5v-323h-81v73h-4c-14.667 -24.667 -36.667 -45.667 -66 -63s-62.333 -26 -99 -26
c-37.333 0 -70.666 7.33301 -99.999 22zM314 80.999c24.667 14.667 44.333 34.332 59 58.999s22 51.667 22 81c-16 10.667 -35.667 19.334 -59 26.001s-48 10 -74 10c-46.667 0 -81.834 -9.66699 -105.501 -29s-35.5 -44.333 -35.5 -75c0 -28 10.667 -50.667 32 -68
s48.333 -26 81 -26c28.667 0 55.334 7.33301 80.001 22zM185.999 618.497c-20 20.333 -30 44.833 -30 73.5s10 53 30 73s44.333 30 73 30s53.167 -10 73.5 -30s30.5 -44.333 30.5 -73s-10.167 -53.167 -30.5 -73.5s-44.833 -30.5 -73.5 -30.5s-53 10.167 -73 30.5z
M292.499 657.997c9 9.33301 13.5 20.666 13.5 33.999s-4.66699 24.5 -14 33.5s-20.333 13.5 -33 13.5s-23.667 -4.66699 -33 -14s-14 -20.333 -14 -33c0 -13.333 4.66699 -24.666 14 -33.999s20.333 -14 33 -14c13.333 0 24.5 4.66699 33.5 14z" />
    <glyph glyph-name="ae" unicode="&#xe6;" horiz-adv-x="919" 
d="M126 6c-29.333 14.667 -52.002 34.834 -68.002 60.501s-24 54.834 -24 87.501c0 54 20.333 96.167 61 126.5s92 45.5 154 45.5c30.667 0 59.167 -3.33301 85.5 -10s46.5 -14.334 60.5 -23.001v31c0 38 -12.667 68.5 -38 91.5s-58 34.5 -98 34.5
c-27.333 0 -51.333 -6.5 -72 -19.5s-37 -30.833 -49 -53.5l-72 36c15.333 34 40.166 61.333 74.499 82s73.166 31 116.499 31c46 0 85.333 -8.83301 118 -26.5s57.667 -42.5 75 -74.5c20.667 31.333 47.167 55.833 79.5 73.5s68.833 26.5 109.5 26.5
c50 0 93.333 -11 130 -33s64.834 -52.667 84.501 -92s29.5 -84.333 29.5 -135c0 -8 -0.666992 -16.667 -2 -26h-404c2 -38.667 11.333 -71.334 28 -98.001s37.834 -46.667 63.501 -60s52.5 -20 80.5 -20c66.667 0 117 30.667 151 92l72 -35
c-21.333 -40.667 -51 -73.167 -89 -97.5s-83.667 -36.5 -137 -36.5c-48.667 0 -91.667 11.5 -129 34.5s-65.666 54.167 -84.999 93.5c-48 -85.333 -116.667 -128 -206 -128c-37.333 0 -70.666 7.33301 -99.999 22zM792.998 309
c-1.33301 21.333 -7.3291 42.668 -17.9961 64.001s-27.334 39.166 -50.001 53.499s-51.334 21.5 -86.001 21.5c-40.667 0 -74.834 -12.667 -102.501 -38s-45.834 -59 -54.501 -101h311zM314.002 81.002c24.667 14.667 44.335 34.333 59.002 59s22 51.667 22 81
c-14.667 10 -33.834 18.5 -57.501 25.5s-48.834 10.5 -75.501 10.5c-46.667 0 -81.834 -9.66699 -105.501 -29s-35.5 -44.333 -35.5 -75c0 -28 10.667 -50.667 32 -68s48.333 -26 81 -26c28.667 0 55.334 7.33301 80.001 22z" />
    <glyph glyph-name="ccedilla" unicode="&#xe7;" horiz-adv-x="546" 
d="M435 24c-37.333 -26 -83.001 -39.333 -137.001 -40l-15 -33c12 2 19.667 3 23 3c25.333 0 46.833 -9 64.5 -27s26.5 -40.667 26.5 -68c0 -26.667 -9.66699 -49.334 -29 -68.001s-43.333 -28 -72 -28c-21.333 0 -40.5 6.33301 -57.5 19s-29.167 28.667 -36.5 48l50 22
c3.33301 -10 8.83301 -18.5 16.5 -25.5s16.834 -10.5 27.501 -10.5c13.333 0 24 4.16699 32 12.5s12 18.5 12 30.5c0 12.667 -4 23.334 -12 32.001s-18.667 13 -32 13c-14 0 -25.667 -5.66699 -35 -17l-44 20l30 81c-41.333 6.66699 -78 22.334 -110 47.001
s-56.833 56 -74.5 94s-26.5 80 -26.5 126c0 51.333 11 97.666 33 138.999s52.667 73.666 92 96.999s83.666 35 132.999 35c55.333 0 101.833 -12.833 139.5 -38.5s64.5 -59.834 80.5 -102.501l-77 -32c-12.667 31.333 -31.5 55.166 -56.5 71.499s-55.167 24.5 -90.5 24.5
c-30 0 -58 -8.16699 -84 -24.5s-46.833 -39.166 -62.5 -68.499s-23.5 -63 -23.5 -101s7.83301 -71.667 23.5 -101s36.5 -52.166 62.5 -68.499s54 -24.5 84 -24.5c36 0 67 8.33301 93 25s45.333 40.334 58 71.001l76 -32c-17.333 -41.333 -44.666 -75 -81.999 -101z" />
    <glyph glyph-name="egrave" unicode="&#xe8;" horiz-adv-x="563" 
d="M159 19c-38.667 23.333 -68.8311 55.501 -90.498 96.501s-32.5 87.167 -32.5 138.5c0 49.333 10.167 94.666 30.5 135.999s49.166 74.333 86.499 99s80.666 37 129.999 37c50 0 93.333 -11.167 130 -33.5s64.834 -53.166 84.501 -92.499s29.5 -84.333 29.5 -135
c0 -10 -1 -18.667 -3 -26h-403c2 -38.667 11.333 -71.334 28 -98.001s37.834 -46.667 63.501 -60s52.5 -20 80.5 -20c65.333 0 115.666 30.667 150.999 92l72 -35c-22 -41.333 -51.833 -74 -89.5 -98s-83.167 -36 -136.5 -36c-48.667 0 -92.334 11.667 -131.001 35z
M437.003 309.001c-1.33301 21.333 -7.33203 42.667 -17.999 64s-27.5 39.333 -50.5 54s-51.833 22 -86.5 22c-40 0 -73.833 -12.833 -101.5 -38.5s-45.834 -59.5 -54.501 -101.5h311zM177.004 736.002h93l52 -127h-75z" />
    <glyph glyph-name="eacute" unicode="&#xe9;" horiz-adv-x="563" 
d="M159 19c-38.667 23.333 -68.8311 55.501 -90.498 96.501s-32.5 87.167 -32.5 138.5c0 49.333 10.167 94.666 30.5 135.999s49.166 74.333 86.499 99s80.666 37 129.999 37c50 0 93.333 -11.167 130 -33.5s64.834 -53.166 84.501 -92.499s29.5 -84.333 29.5 -135
c0 -10 -1 -18.667 -3 -26h-403c2 -38.667 11.333 -71.334 28 -98.001s37.834 -46.667 63.501 -60s52.5 -20 80.5 -20c65.333 0 115.666 30.667 150.999 92l72 -35c-22 -41.333 -51.833 -74 -89.5 -98s-83.167 -36 -136.5 -36c-48.667 0 -92.334 11.667 -131.001 35z
M437.003 309.001c-1.33301 21.333 -7.33203 42.667 -17.999 64s-27.5 39.333 -50.5 54s-51.833 22 -86.5 22c-40 0 -73.833 -12.833 -101.5 -38.5s-45.834 -59.5 -54.501 -101.5h311zM299.004 736.002h93l-71 -127h-74z" />
    <glyph glyph-name="ecircumflex" unicode="&#xea;" horiz-adv-x="563" 
d="M159 19c-38.667 23.333 -68.8311 55.501 -90.498 96.501s-32.5 87.167 -32.5 138.5c0 49.333 10.167 94.666 30.5 135.999s49.166 74.333 86.499 99s80.666 37 129.999 37c50 0 93.333 -11.167 130 -33.5s64.834 -53.166 84.501 -92.499s29.5 -84.333 29.5 -135
c0 -10 -1 -18.667 -3 -26h-403c2 -38.667 11.333 -71.334 28 -98.001s37.834 -46.667 63.501 -60s52.5 -20 80.5 -20c65.333 0 115.666 30.667 150.999 92l72 -35c-22 -41.333 -51.833 -74 -89.5 -98s-83.167 -36 -136.5 -36c-48.667 0 -92.334 11.667 -131.001 35z
M437.003 309.001c-1.33301 21.333 -7.33203 42.667 -17.999 64s-27.5 39.333 -50.5 54s-51.833 22 -86.5 22c-40 0 -73.833 -12.833 -101.5 -38.5s-45.834 -59.5 -54.501 -101.5h311zM145.004 619.002l102 117h75l102 -117v-5h-82l-54 64h-8l-53 -64h-82v5z" />
    <glyph glyph-name="edieresis" unicode="&#xeb;" horiz-adv-x="563" 
d="M159 19c-38.667 23.333 -68.8311 55.501 -90.498 96.501s-32.5 87.167 -32.5 138.5c0 49.333 10.167 94.666 30.5 135.999s49.166 74.333 86.499 99s80.666 37 129.999 37c50 0 93.333 -11.167 130 -33.5s64.834 -53.166 84.501 -92.499s29.5 -84.333 29.5 -135
c0 -10 -1 -18.667 -3 -26h-403c2 -38.667 11.333 -71.334 28 -98.001s37.834 -46.667 63.501 -60s52.5 -20 80.5 -20c65.333 0 115.666 30.667 150.999 92l72 -35c-22 -41.333 -51.833 -74 -89.5 -98s-83.167 -36 -136.5 -36c-48.667 0 -92.334 11.667 -131.001 35z
M437.003 309.001c-1.33301 21.333 -7.33203 42.667 -17.999 64s-27.5 39.333 -50.5 54s-51.833 22 -86.5 22c-40 0 -73.833 -12.833 -101.5 -38.5s-45.834 -59.5 -54.501 -101.5h311zM164.004 641.002c-10.667 10.667 -16 23.334 -16 38.001c0 15.333 5.33301 28 16 38
s23.334 15 38.001 15c15.333 0 28 -5 38 -15s15 -22.667 15 -38c0 -14.667 -5 -27.334 -15 -38.001s-22.667 -16 -38 -16c-14.667 0 -27.334 5.33301 -38.001 16zM328.504 641.002c-11 10.667 -16.501 23.334 -16.501 38.001c0 15.333 5.33301 28 16 38s23.334 15 38.001 15
c15.333 0 28.166 -5 38.499 -15s15.5 -22.667 15.5 -38c0 -14.667 -5.16699 -27.334 -15.5 -38.001s-23.166 -16 -38.499 -16c-14 0 -26.5 5.33301 -37.5 16z" />
    <glyph glyph-name="igrave" unicode="&#xec;" horiz-adv-x="226" 
d="M71 510h84v-510h-84v510zM6 736h93l52 -127h-75z" />
    <glyph glyph-name="iacute" unicode="&#xed;" horiz-adv-x="226" 
d="M71 510h84v-510h-84v510zM128 736h93l-71 -127h-74z" />
    <glyph glyph-name="icircumflex" unicode="&#xee;" horiz-adv-x="226" 
d="M71 510h84v-510h-84v510zM-26 619l102 117h75l102 -117v-5h-82l-54 64h-8l-53 -64h-82v5z" />
    <glyph glyph-name="idieresis" unicode="&#xef;" horiz-adv-x="226" 
d="M9 641c-10.667 10.667 -16 23.334 -16 38.001c0 15.333 5.33301 28 16 38s23.334 15 38.001 15c15.333 0 28 -5 38 -15s15 -22.667 15 -38c0 -14.667 -5 -27.334 -15 -38.001s-22.667 -16 -38 -16c-14.667 0 -27.334 5.33301 -38.001 16zM142 641
c-10.667 10.667 -16 23.334 -16 38.001c0 15.333 5.33301 28 16 38s23.334 15 38.001 15c15.333 0 28 -5 38 -15s15 -22.667 15 -38c0 -14.667 -5 -27.334 -15 -38.001s-22.667 -16 -38 -16c-14.667 0 -27.334 5.33301 -38.001 16zM71 510h84v-510h-84v510z" />
    <glyph glyph-name="eth" unicode="&#xf0;" horiz-adv-x="588" 
d="M169 19c-38 23.333 -67.999 54.5 -89.999 93.5s-33 81.5 -33 127.5c0 47.333 11.167 90.166 33.5 128.499s51.833 68.333 88.5 90s76 32.5 118 32.5c31.333 0 59 -5.66699 83 -17s42.333 -24.333 55 -39l4 3c-10.667 28 -24 52.333 -40 73s-35.667 40 -59 58l-128 -56
l-26 62l89 39c-38 20.667 -76.667 35.334 -116 44.001l28 72c66.667 -19.333 123.667 -45.666 171 -78.999l101 45l26 -62l-68 -30c45.333 -42.667 79.333 -93.334 102 -152.001s34 -122.667 34 -192c0 -54 -10.5 -101.833 -31.5 -143.5s-50.333 -74.167 -88 -97.5
s-80.834 -35 -129.501 -35c-44.667 0 -86 11.667 -124 35zM375.001 87c24.667 14.667 44.165 35.3359 58.498 62.0029s21.5 56.667 21.5 90s-7.16699 63.166 -21.5 89.499s-33.666 47 -57.999 62s-51.166 22.5 -80.499 22.5c-30 0 -57.5 -7.33301 -82.5 -22
s-44.667 -35.334 -59 -62.001s-21.5 -56.667 -21.5 -90s7.16699 -63.333 21.5 -90s33.833 -47.334 58.5 -62.001s51.667 -22 81 -22c30 0 57.333 7.33301 82 22z" />
    <glyph glyph-name="ntilde" unicode="&#xf1;" horiz-adv-x="561" 
d="M63 510l81 0.000976562v-75h4c14 25.333 36.333 46.833 67 64.5s63.334 26.5 98.001 26.5c61.333 0 108.166 -17.833 140.499 -53.5s48.5 -84.167 48.5 -145.5v-327h-85v314c0 47.333 -11.333 81.666 -34 102.999s-53.667 32 -93 32
c-27.333 0 -51.833 -7.66699 -73.5 -23s-38.5 -35.5 -50.5 -60.5s-18 -51.167 -18 -78.5v-287h-85v510zM315.5 623.501c-11.667 5 -25.835 12.167 -42.502 21.5c-19.333 12 -32.666 18 -39.999 18c-22 0 -34 -12.333 -36 -37h-70c0 36.667 11 64.667 33 84s46.667 29 74 29
c20.667 0 47.334 -10 80.001 -30c20 -11.333 33 -17 39 -17c22 0 34 12.333 36 37h70c0 -36.667 -11 -64.667 -33 -84s-47 -29 -75 -29c-12 0 -23.833 2.5 -35.5 7.5z" />
    <glyph glyph-name="ograve" unicode="&#xf2;" horiz-adv-x="596" 
d="M163 20c-40 24 -71.167 56.667 -93.5 98s-33.5 87 -33.5 137s11.167 95.667 33.5 137s53.5 74 93.5 98s85 36 135 36s95 -12 135 -36s71.167 -56.667 93.5 -98s33.5 -87 33.5 -137s-11.167 -95.667 -33.5 -137s-53.5 -74 -93.5 -98s-85 -36 -135 -36s-95 12 -135 36z
M385.5 84.5c27 15.667 48.667 38.167 65 67.5s24.5 63.666 24.5 102.999s-8.16699 73.666 -24.5 102.999s-38 51.833 -65 67.5s-56.167 23.5 -87.5 23.5s-60.666 -7.83301 -87.999 -23.5s-49.166 -38.167 -65.499 -67.5s-24.5 -63.666 -24.5 -102.999
s8.16699 -73.666 24.5 -102.999s38.166 -51.833 65.499 -67.5s56.666 -23.5 87.999 -23.5s60.5 7.83301 87.5 23.5zM191 736h93l52 -127h-75z" />
    <glyph glyph-name="oacute" unicode="&#xf3;" horiz-adv-x="596" 
d="M163 20c-40 24 -71.167 56.667 -93.5 98s-33.5 87 -33.5 137s11.167 95.667 33.5 137s53.5 74 93.5 98s85 36 135 36s95 -12 135 -36s71.167 -56.667 93.5 -98s33.5 -87 33.5 -137s-11.167 -95.667 -33.5 -137s-53.5 -74 -93.5 -98s-85 -36 -135 -36s-95 12 -135 36z
M385.5 84.5c27 15.667 48.667 38.167 65 67.5s24.5 63.666 24.5 102.999s-8.16699 73.666 -24.5 102.999s-38 51.833 -65 67.5s-56.167 23.5 -87.5 23.5s-60.666 -7.83301 -87.999 -23.5s-49.166 -38.167 -65.499 -67.5s-24.5 -63.666 -24.5 -102.999
s8.16699 -73.666 24.5 -102.999s38.166 -51.833 65.499 -67.5s56.666 -23.5 87.999 -23.5s60.5 7.83301 87.5 23.5zM313 736h93l-71 -127h-74z" />
    <glyph glyph-name="ocircumflex" unicode="&#xf4;" horiz-adv-x="596" 
d="M163 20c-40 24 -71.167 56.667 -93.5 98s-33.5 87 -33.5 137s11.167 95.667 33.5 137s53.5 74 93.5 98s85 36 135 36s95 -12 135 -36s71.167 -56.667 93.5 -98s33.5 -87 33.5 -137s-11.167 -95.667 -33.5 -137s-53.5 -74 -93.5 -98s-85 -36 -135 -36s-95 12 -135 36z
M385.5 84.5c27 15.667 48.667 38.167 65 67.5s24.5 63.666 24.5 102.999s-8.16699 73.666 -24.5 102.999s-38 51.833 -65 67.5s-56.167 23.5 -87.5 23.5s-60.666 -7.83301 -87.999 -23.5s-49.166 -38.167 -65.499 -67.5s-24.5 -63.666 -24.5 -102.999
s8.16699 -73.666 24.5 -102.999s38.166 -51.833 65.499 -67.5s56.666 -23.5 87.999 -23.5s60.5 7.83301 87.5 23.5zM159 619l102 117h75l102 -117v-5h-82l-54 64h-8l-53 -64h-82v5z" />
    <glyph glyph-name="otilde" unicode="&#xf5;" horiz-adv-x="596" 
d="M163 20c-40 24 -71.167 56.667 -93.5 98s-33.5 87 -33.5 137s11.167 95.667 33.5 137s53.5 74 93.5 98s85 36 135 36s95 -12 135 -36s71.167 -56.667 93.5 -98s33.5 -87 33.5 -137s-11.167 -95.667 -33.5 -137s-53.5 -74 -93.5 -98s-85 -36 -135 -36s-95 12 -135 36z
M385.5 84.5c27 15.667 48.667 38.167 65 67.5s24.5 63.666 24.5 102.999s-8.16699 73.666 -24.5 102.999s-38 51.833 -65 67.5s-56.167 23.5 -87.5 23.5s-60.666 -7.83301 -87.999 -23.5s-49.166 -38.167 -65.499 -67.5s-24.5 -63.666 -24.5 -102.999
s8.16699 -73.666 24.5 -102.999s38.166 -51.833 65.499 -67.5s56.666 -23.5 87.999 -23.5s60.5 7.83301 87.5 23.5zM320.5 623.5c-11.667 5 -25.835 12.167 -42.502 21.5c-19.333 12 -32.666 18 -39.999 18c-22 0 -34 -12.333 -36 -37h-70c0 36.667 11 64.667 33 84
s46.667 29 74 29c20.667 0 47.334 -10 80.001 -30c20 -11.333 33 -17 39 -17c22 0 34 12.333 36 37h70c0 -36.667 -11 -64.667 -33 -84s-47 -29 -75 -29c-12 0 -23.833 2.5 -35.5 7.5z" />
    <glyph glyph-name="odieresis" unicode="&#xf6;" horiz-adv-x="596" 
d="M163 20c-40 24 -71.167 56.667 -93.5 98s-33.5 87 -33.5 137s11.167 95.667 33.5 137s53.5 74 93.5 98s85 36 135 36s95 -12 135 -36s71.167 -56.667 93.5 -98s33.5 -87 33.5 -137s-11.167 -95.667 -33.5 -137s-53.5 -74 -93.5 -98s-85 -36 -135 -36s-95 12 -135 36z
M385.5 84.5c27 15.667 48.667 38.167 65 67.5s24.5 63.666 24.5 102.999s-8.16699 73.666 -24.5 102.999s-38 51.833 -65 67.5s-56.167 23.5 -87.5 23.5s-60.666 -7.83301 -87.999 -23.5s-49.166 -38.167 -65.499 -67.5s-24.5 -63.666 -24.5 -102.999
s8.16699 -73.666 24.5 -102.999s38.166 -51.833 65.499 -67.5s56.666 -23.5 87.999 -23.5s60.5 7.83301 87.5 23.5zM178 641c-10.667 10.667 -16 23.334 -16 38.001c0 15.333 5.33301 28 16 38s23.334 15 38.001 15c15.333 0 28 -5 38 -15s15 -22.667 15 -38
c0 -14.667 -5 -27.334 -15 -38.001s-22.667 -16 -38 -16c-14.667 0 -27.334 5.33301 -38.001 16zM342.5 641c-11 10.667 -16.501 23.334 -16.501 38.001c0 15.333 5.33301 28 16 38s23.334 15 38.001 15c15.333 0 28.166 -5 38.499 -15s15.5 -22.667 15.5 -38
c0 -14.667 -5.16699 -27.334 -15.5 -38.001s-23.166 -16 -38.499 -16c-14 0 -26.5 5.33301 -37.5 16z" />
    <glyph glyph-name="divide" unicode="&#xf7;" horiz-adv-x="544" 
d="M226.5 413.5c-12.333 12.333 -18.5 27.166 -18.5 44.499c0 18 6.16699 33.167 18.5 45.5s27.5 18.5 45.5 18.5s33.167 -6.16699 45.5 -18.5s18.5 -27.5 18.5 -45.5c0 -17.333 -6.16699 -32.166 -18.5 -44.499s-27.5 -18.5 -45.5 -18.5s-33.167 6.16699 -45.5 18.5z
M55 306h434v-70h-434v70zM226.5 38.5c-12.333 12.333 -18.5 27.5 -18.5 45.5c0 17.333 6.16699 32.166 18.5 44.499s27.5 18.5 45.5 18.5s33.167 -6.16699 45.5 -18.5s18.5 -27.166 18.5 -44.499c0 -18 -6.16699 -33.167 -18.5 -45.5s-27.5 -18.5 -45.5 -18.5
s-33.167 6.16699 -45.5 18.5z" />
    <glyph glyph-name="oslash" unicode="&#xf8;" horiz-adv-x="596" 
d="M535.5 373c16.333 -36.667 24.499 -75.998 24.499 -117.998c0 -50 -11.167 -95.667 -33.5 -137s-53.5 -74 -93.5 -98s-85 -36 -135 -36c-41.333 0 -79.666 8.33301 -114.999 25l-26 -41l-55 31l28 44c-30 25.333 -53.167 56.166 -69.5 92.499s-24.5 76.166 -24.5 119.499
c0 50 11.167 95.667 33.5 137s53.5 74 93.5 98s85 36 135 36c42.667 0 81.334 -8.66699 116.001 -26l27 43l54 -32l-28 -45c29.333 -25.333 52.166 -56.333 68.499 -93zM133.999 175.002c9.33301 -24 22.3311 -44.668 38.998 -62.001l199 319c-24 11.333 -48.667 17 -74 17
c-31.333 0 -60.666 -7.83301 -87.999 -23.5s-49.166 -38.167 -65.499 -67.5s-24.5 -63.666 -24.5 -102.999c0 -29.333 4.66699 -56 14 -80zM385.497 84.501c27 15.667 48.667 38.168 65 67.501s24.5 63.666 24.5 102.999c0 57.333 -17.333 104.333 -52 141l-198 -319
c22 -10.667 46.333 -16 73 -16c31.333 0 60.5 7.83301 87.5 23.5z" />
    <glyph glyph-name="ugrave" unicode="&#xf9;" horiz-adv-x="561" 
d="M107.5 38c-32.333 36 -48.499 86.333 -48.499 151v321h85v-308c0 -48.667 11 -84.334 33 -107.001s51.667 -34 89 -34c28.667 0 54.167 7.66699 76.5 23s39.666 35.333 51.999 60s18.5 50.667 18.5 78v288h85v-510h-81v74h-4c-14 -25.333 -36.333 -46.666 -67 -63.999
s-63.334 -26 -98.001 -26c-61.333 0 -108.166 18 -140.499 54zM171.001 736h93l52 -127h-75z" />
    <glyph glyph-name="uacute" unicode="&#xfa;" horiz-adv-x="561" 
d="M107.5 38c-32.333 36 -48.499 86.333 -48.499 151v321h85v-308c0 -48.667 11 -84.334 33 -107.001s51.667 -34 89 -34c28.667 0 54.167 7.66699 76.5 23s39.666 35.333 51.999 60s18.5 50.667 18.5 78v288h85v-510h-81v74h-4c-14 -25.333 -36.333 -46.666 -67 -63.999
s-63.334 -26 -98.001 -26c-61.333 0 -108.166 18 -140.499 54zM293.001 736h93l-71 -127h-74z" />
    <glyph glyph-name="ucircumflex" unicode="&#xfb;" horiz-adv-x="561" 
d="M107.5 38c-32.333 36 -48.499 86.333 -48.499 151v321h85v-308c0 -48.667 11 -84.334 33 -107.001s51.667 -34 89 -34c28.667 0 54.167 7.66699 76.5 23s39.666 35.333 51.999 60s18.5 50.667 18.5 78v288h85v-510h-81v74h-4c-14 -25.333 -36.333 -46.666 -67 -63.999
s-63.334 -26 -98.001 -26c-61.333 0 -108.166 18 -140.499 54zM139.001 619l102 117h75l102 -117v-5h-82l-54 64h-8l-53 -64h-82v5z" />
    <glyph glyph-name="udieresis" unicode="&#xfc;" horiz-adv-x="561" 
d="M107.5 38c-32.333 36 -48.499 86.333 -48.499 151v321h85v-308c0 -48.667 11 -84.334 33 -107.001s51.667 -34 89 -34c28.667 0 54.167 7.66699 76.5 23s39.666 35.333 51.999 60s18.5 50.667 18.5 78v288h85v-510h-81v74h-4c-14 -25.333 -36.333 -46.666 -67 -63.999
s-63.334 -26 -98.001 -26c-61.333 0 -108.166 18 -140.499 54zM158.001 641c-10.667 10.667 -16 23.334 -16 38.001c0 15.333 5.33301 28 16 38s23.334 15 38.001 15c15.333 0 28 -5 38 -15s15 -22.667 15 -38c0 -14.667 -5 -27.334 -15 -38.001s-22.667 -16 -38 -16
c-14.667 0 -27.334 5.33301 -38.001 16zM322.501 641c-11 10.667 -16.501 23.334 -16.501 38.001c0 15.333 5.33301 28 16 38s23.334 15 38.001 15c15.333 0 28.166 -5 38.499 -15s15.5 -22.667 15.5 -38c0 -14.667 -5.16699 -27.334 -15.5 -38.001s-23.166 -16 -38.499 -16
c-14 0 -26.5 5.33301 -37.5 16z" />
    <glyph glyph-name="yacute" unicode="&#xfd;" horiz-adv-x="516" 
d="M219 32l-211 478h92l160 -379h2l154 379h92l-315 -726h-88zM273 736h93l-71 -127h-74z" />
    <glyph glyph-name="thorn" unicode="&#xfe;" horiz-adv-x="599" 
d="M60 716l85 -0.00195312v-214l-4 -68h4c16 26 39.333 47.833 70 65.5s65.334 26.5 104.001 26.5c46 0 87.5 -11.667 124.5 -35s66.167 -55.666 87.5 -96.999s32 -87.666 32 -138.999c0 -52 -10.667 -98.5 -32 -139.5s-50.5 -73.167 -87.5 -96.5s-78.5 -35 -124.5 -35
c-38.667 0 -73.334 8.83301 -104.001 26.5s-54 39.167 -70 64.5h-4l4 -68v-223h-85v932zM393 84.998c26 16 46.833 38.833 62.5 68.5s23.5 63.5 23.5 101.5s-7.83301 71.833 -23.5 101.5s-36.5 52.5 -62.5 68.5s-53.667 24 -83 24c-30 0 -57.833 -8 -83.5 -24
s-46.334 -38.667 -62.001 -68s-23.5 -63.333 -23.5 -102s7.83301 -72.667 23.5 -102s36.334 -52 62.001 -68s53.5 -24 83.5 -24c29.333 0 57 8 83 24z" />
    <glyph glyph-name="ydieresis" unicode="&#xff;" horiz-adv-x="516" 
d="M219 32l-211 478h92l160 -379h2l154 379h92l-315 -726h-88zM138 641c-10.667 10.667 -16 23.334 -16 38.001c0 15.333 5.33301 28 16 38s23.334 15 38.001 15c15.333 0 28 -5 38 -15s15 -22.667 15 -38c0 -14.667 -5 -27.334 -15 -38.001s-22.667 -16 -38 -16
c-14.667 0 -27.334 5.33301 -38.001 16zM302.5 641c-11 10.667 -16.501 23.334 -16.501 38.001c0 15.333 5.33301 28 16 38s23.334 15 38.001 15c15.333 0 28.166 -5 38.499 -15s15.5 -22.667 15.5 -38c0 -14.667 -5.16699 -27.334 -15.5 -38.001s-23.166 -16 -38.499 -16
c-14 0 -26.5 5.33301 -37.5 16z" />
    <glyph glyph-name="Amacron" unicode="&#x100;" horiz-adv-x="669" 
d="M286 716h96l272 -716h-93l-72 197h-309l-72 -197h-93zM460 277l-95 258l-29 77h-4l-28 -77l-95 -258h251zM196 876h277v-66h-277v66z" />
    <glyph glyph-name="amacron" unicode="&#x101;" horiz-adv-x="531" 
d="M126 6c-29.333 14.667 -52 34.833 -68 60.5s-24 54.834 -24 87.501c0 54 20.333 96.167 61 126.5s92 45.5 154 45.5c30.667 0 59.167 -3.33301 85.5 -10s46.5 -14.334 60.5 -23.001v31c0 38 -13.333 68.5 -40 91.5s-60.334 34.5 -101.001 34.5
c-28.667 0 -55 -6.16699 -79 -18.5s-43 -29.5 -57 -51.5l-64 48c20 30.667 47.5 54.667 82.5 72s73.833 26 116.5 26c69.333 0 123.833 -18.167 163.5 -54.5s59.5 -85.833 59.5 -148.5v-323h-81v73h-4c-14.667 -24.667 -36.667 -45.667 -66 -63s-62.333 -26 -99 -26
c-37.333 0 -70.666 7.33301 -99.999 22zM314 80.999c24.667 14.667 44.333 34.332 59 58.999s22 51.667 22 81c-16 10.667 -35.667 19.334 -59 26.001s-48 10 -74 10c-46.667 0 -81.834 -9.66699 -105.501 -29s-35.5 -44.333 -35.5 -75c0 -28 10.667 -50.667 32 -68
s48.333 -26 81 -26c28.667 0 55.334 7.33301 80.001 22zM120.999 711.997h277v-67h-277v67z" />
    <glyph glyph-name="Abreve" unicode="&#x102;" horiz-adv-x="669" 
d="M286 716h96l272 -716h-93l-72 197h-309l-72 -197h-93zM460 277l-95 258l-29 77h-4l-28 -77l-95 -258h251zM272.5 788.5c-19.667 11 -35.502 26 -47.502 45s-18 39.833 -18 62.5h69c0 -16.667 5.33301 -30.834 16 -42.501s25 -17.5 43 -17.5
c16.667 0 30.334 5.83301 41.001 17.5s16 25.834 16 42.501h68c0 -22.667 -5.83301 -43.5 -17.5 -62.5s-27.167 -34 -46.5 -45s-39.666 -16.5 -60.999 -16.5c-22 0 -42.833 5.5 -62.5 16.5z" />
    <glyph glyph-name="abreve" unicode="&#x103;" horiz-adv-x="531" 
d="M126 6c-29.333 14.667 -52 34.833 -68 60.5s-24 54.834 -24 87.501c0 54 20.333 96.167 61 126.5s92 45.5 154 45.5c30.667 0 59.167 -3.33301 85.5 -10s46.5 -14.334 60.5 -23.001v31c0 38 -13.333 68.5 -40 91.5s-60.334 34.5 -101.001 34.5
c-28.667 0 -55 -6.16699 -79 -18.5s-43 -29.5 -57 -51.5l-64 48c20 30.667 47.5 54.667 82.5 72s73.833 26 116.5 26c69.333 0 123.833 -18.167 163.5 -54.5s59.5 -85.833 59.5 -148.5v-323h-81v73h-4c-14.667 -24.667 -36.667 -45.667 -66 -63s-62.333 -26 -99 -26
c-37.333 0 -70.666 7.33301 -99.999 22zM314 80.999c24.667 14.667 44.333 34.332 59 58.999s22 51.667 22 81c-16 10.667 -35.667 19.334 -59 26.001s-48 10 -74 10c-46.667 0 -81.834 -9.66699 -105.501 -29s-35.5 -44.333 -35.5 -75c0 -28 10.667 -50.667 32 -68
s48.333 -26 81 -26c28.667 0 55.334 7.33301 80.001 22zM197.499 623.497c-19.667 11 -35.502 26 -47.502 45s-18 40.167 -18 63.5h69c0 -16.667 5.33301 -31 16 -43s25 -18 43 -18c16.667 0 30.334 6 41.001 18s16 26.333 16 43h68c0 -23.333 -5.83301 -44.5 -17.5 -63.5
s-27.167 -34 -46.5 -45s-39.666 -16.5 -60.999 -16.5c-22 0 -42.833 5.5 -62.5 16.5z" />
    <glyph glyph-name="Aogonek" unicode="&#x104;" horiz-adv-x="669" 
d="M538.5 -190.5c-21.667 22.333 -32.5 49.834 -32.5 82.501c0 40 18.333 76 55 108l-72 197h-309l-72 -197h-93l271 716h96l272 -716c-24 -18.667 -42 -35.334 -54 -50.001s-18 -31.334 -18 -50.001c0 -15.333 4.5 -28.166 13.5 -38.499s21.167 -15.5 36.5 -15.5
c14 0 27.333 3.33301 40 10v-72c-12 -5.33301 -27.667 -8 -47 -8c-36 0 -64.833 11.167 -86.5 33.5zM460 277.001l-95 258l-29 77h-4l-28 -77l-95 -258h251z" />
    <glyph glyph-name="aogonek" unicode="&#x105;" horiz-adv-x="531" 
d="M359.5 -191.5c-21.667 21.667 -32.4971 48.167 -32.4971 79.5c0 25.333 6.66699 47.333 20 66s29.333 34 48 46v73h-4c-14.667 -24.667 -36.667 -45.667 -66 -63s-62.333 -26 -99 -26c-37.333 0 -70.666 7.33301 -99.999 22s-52 34.834 -68 60.501s-24 54.834 -24 87.501
c0 54 20.333 96.167 61 126.5s92 45.5 154 45.5c30.667 0 59.167 -3.33301 85.5 -10s46.5 -14.334 60.5 -23.001v31c0 38 -13.333 68.5 -40 91.5s-60.334 34.5 -101.001 34.5c-28.667 0 -55 -6.16699 -79 -18.5s-43 -29.5 -57 -51.5l-64 48c20 30.667 47.5 54.667 82.5 72
s73.833 26 116.5 26c69.333 0 123.833 -18.167 163.5 -54.5s59.5 -85.833 59.5 -148.5v-323c-24 -18.667 -42.167 -35.334 -54.5 -50.001s-18.5 -31.334 -18.5 -50.001c0 -15.333 4.66699 -28.166 14 -38.499s21.666 -15.5 36.999 -15.5c13.333 0 26.666 3.33301 39.999 10
v-72c-12 -5.33301 -27.667 -8 -47 -8c-36.667 0 -65.834 10.833 -87.501 32.5zM314.003 81c24.667 14.667 44.333 34.332 59 58.999s22 51.667 22 81c-16 10.667 -35.667 19.334 -59 26.001s-48 10 -74 10c-46.667 0 -81.834 -9.66699 -105.501 -29s-35.5 -44.333 -35.5 -75
c0 -28 10.667 -50.667 32 -68s48.333 -26 81 -26c28.667 0 55.334 7.33301 80.001 22z" />
    <glyph glyph-name="Cacute" unicode="&#x106;" horiz-adv-x="741" 
d="M227 33c-56.667 32.667 -101.168 77.4971 -133.501 134.497s-48.5 120.5 -48.5 190.5s16.167 133.5 48.5 190.5s76.833 101.833 133.5 134.5s119.667 49 189 49c53.333 0 102.166 -10.167 146.499 -30.5s82.833 -49.166 115.5 -86.499l-61 -59
c-27.333 32.667 -57.166 56.667 -89.499 72s-69.5 23 -111.5 23c-52 0 -99.667 -12.167 -143 -36.5s-77.833 -58.666 -103.5 -102.999s-38.5 -95.5 -38.5 -153.5s12.833 -109.167 38.5 -153.5s60.167 -78.666 103.5 -102.999s91 -36.5 143 -36.5
c86.667 0 160.334 35.667 221.001 107l62 -60c-33.333 -39.333 -74.333 -70.5 -123 -93.5s-102 -34.5 -160 -34.5c-69.333 0 -132.333 16.333 -189 49zM422.999 899.997h93l-71 -127h-74z" />
    <glyph glyph-name="cacute" unicode="&#x107;" horiz-adv-x="546" 
d="M161 19.5c-39.333 23.667 -70.001 56.001 -92.001 97.001s-33 87.167 -33 138.5s11 97.666 33 138.999s52.667 73.666 92 96.999s83.666 35 132.999 35c55.333 0 101.833 -12.833 139.5 -38.5s64.5 -59.834 80.5 -102.501l-77 -32
c-12.667 31.333 -31.5 55.166 -56.5 71.499s-55.167 24.5 -90.5 24.5c-30 0 -58 -8.16699 -84 -24.5s-46.833 -39.166 -62.5 -68.499s-23.5 -63 -23.5 -101s7.83301 -71.667 23.5 -101s36.5 -52.166 62.5 -68.499s54 -24.5 84 -24.5c36 0 67 8.33301 93 25
s45.333 40.334 58 71.001l76 -32c-17.333 -42 -45.166 -76 -83.499 -102s-84.833 -39 -139.5 -39c-49.333 0 -93.666 11.833 -132.999 35.5zM306.999 736.001h93l-71 -127h-74z" />
    <glyph glyph-name="Ccircumflex" unicode="&#x108;" horiz-adv-x="741" 
d="M227 33c-56.667 32.667 -101.168 77.4971 -133.501 134.497s-48.5 120.5 -48.5 190.5s16.167 133.5 48.5 190.5s76.833 101.833 133.5 134.5s119.667 49 189 49c53.333 0 102.166 -10.167 146.499 -30.5s82.833 -49.166 115.5 -86.499l-61 -59
c-27.333 32.667 -57.166 56.667 -89.499 72s-69.5 23 -111.5 23c-52 0 -99.667 -12.167 -143 -36.5s-77.833 -58.666 -103.5 -102.999s-38.5 -95.5 -38.5 -153.5s12.833 -109.167 38.5 -153.5s60.167 -78.666 103.5 -102.999s91 -36.5 143 -36.5
c86.667 0 160.334 35.667 221.001 107l62 -60c-33.333 -39.333 -74.333 -70.5 -123 -93.5s-102 -34.5 -160 -34.5c-69.333 0 -132.333 16.333 -189 49zM268.999 783.997l102 116h75l102 -116v-5h-82l-54 63h-8l-53 -63h-82v5z" />
    <glyph glyph-name="ccircumflex" unicode="&#x109;" horiz-adv-x="546" 
d="M161 19.5c-39.333 23.667 -70.001 56.001 -92.001 97.001s-33 87.167 -33 138.5s11 97.666 33 138.999s52.667 73.666 92 96.999s83.666 35 132.999 35c55.333 0 101.833 -12.833 139.5 -38.5s64.5 -59.834 80.5 -102.501l-77 -32
c-12.667 31.333 -31.5 55.166 -56.5 71.499s-55.167 24.5 -90.5 24.5c-30 0 -58 -8.16699 -84 -24.5s-46.833 -39.166 -62.5 -68.499s-23.5 -63 -23.5 -101s7.83301 -71.667 23.5 -101s36.5 -52.166 62.5 -68.499s54 -24.5 84 -24.5c36 0 67 8.33301 93 25
s45.333 40.334 58 71.001l76 -32c-17.333 -42 -45.166 -76 -83.499 -102s-84.833 -39 -139.5 -39c-49.333 0 -93.666 11.833 -132.999 35.5zM152.999 619.001l102 117h75l102 -117v-5h-82l-54 64h-8l-53 -64h-82v5z" />
    <glyph glyph-name="Cdotaccent" unicode="&#x10a;" horiz-adv-x="741" 
d="M227 33c-56.667 32.667 -101.168 77.4971 -133.501 134.497s-48.5 120.5 -48.5 190.5s16.167 133.5 48.5 190.5s76.833 101.833 133.5 134.5s119.667 49 189 49c53.333 0 102.166 -10.167 146.499 -30.5s82.833 -49.166 115.5 -86.499l-61 -59
c-27.333 32.667 -57.166 56.667 -89.499 72s-69.5 23 -111.5 23c-52 0 -99.667 -12.167 -143 -36.5s-77.833 -58.666 -103.5 -102.999s-38.5 -95.5 -38.5 -153.5s12.833 -109.167 38.5 -153.5s60.167 -78.666 103.5 -102.999s91 -36.5 143 -36.5
c86.667 0 160.334 35.667 221.001 107l62 -60c-33.333 -39.333 -74.333 -70.5 -123 -93.5s-102 -34.5 -160 -34.5c-69.333 0 -132.333 16.333 -189 49zM373.999 821.997c-10 10 -15 21.333 -15 34c0 13.333 5 24.833 15 34.5s21.333 14.5 34 14.5
c14.667 0 26.667 -4.66699 36 -14s14 -21 14 -35c0 -13.333 -4.83301 -24.833 -14.5 -34.5s-21.5 -14.5 -35.5 -14.5c-12.667 0 -24 5 -34 15z" />
    <glyph glyph-name="cdotaccent" unicode="&#x10b;" horiz-adv-x="546" 
d="M161 19.5c-39.333 23.667 -70.001 56.001 -92.001 97.001s-33 87.167 -33 138.5s11 97.666 33 138.999s52.667 73.666 92 96.999s83.666 35 132.999 35c55.333 0 101.833 -12.833 139.5 -38.5s64.5 -59.834 80.5 -102.501l-77 -32
c-12.667 31.333 -31.5 55.166 -56.5 71.499s-55.167 24.5 -90.5 24.5c-30 0 -58 -8.16699 -84 -24.5s-46.833 -39.166 -62.5 -68.499s-23.5 -63 -23.5 -101s7.83301 -71.667 23.5 -101s36.5 -52.166 62.5 -68.499s54 -24.5 84 -24.5c36 0 67 8.33301 93 25
s45.333 40.334 58 71.001l76 -32c-17.333 -42 -45.166 -76 -83.499 -102s-84.833 -39 -139.5 -39c-49.333 0 -93.666 11.833 -132.999 35.5zM253.999 641.001c-10.667 10.667 -16 23.334 -16 38.001c0 15.333 5.33301 28 16 38s23.334 15 38.001 15c15.333 0 28 -5 38 -15
s15 -22.667 15 -38c0 -14.667 -5 -27.334 -15 -38.001s-22.667 -16 -38 -16c-14.667 0 -27.334 5.33301 -38.001 16z" />
    <glyph glyph-name="Ccaron" unicode="&#x10c;" horiz-adv-x="741" 
d="M227 33c-56.667 32.667 -101.168 77.4971 -133.501 134.497s-48.5 120.5 -48.5 190.5s16.167 133.5 48.5 190.5s76.833 101.833 133.5 134.5s119.667 49 189 49c53.333 0 102.166 -10.167 146.499 -30.5s82.833 -49.166 115.5 -86.499l-61 -59
c-27.333 32.667 -57.166 56.667 -89.499 72s-69.5 23 -111.5 23c-52 0 -99.667 -12.167 -143 -36.5s-77.833 -58.666 -103.5 -102.999s-38.5 -95.5 -38.5 -153.5s12.833 -109.167 38.5 -153.5s60.167 -78.666 103.5 -102.999s91 -36.5 143 -36.5
c86.667 0 160.334 35.667 221.001 107l62 -60c-33.333 -39.333 -74.333 -70.5 -123 -93.5s-102 -34.5 -160 -34.5c-69.333 0 -132.333 16.333 -189 49zM268.999 894.997v5h82l53 -63h8l54 63h82v-5l-102 -116h-75z" />
    <glyph glyph-name="ccaron" unicode="&#x10d;" horiz-adv-x="546" 
d="M161 19.5c-39.333 23.667 -70.001 56.001 -92.001 97.001s-33 87.167 -33 138.5s11 97.666 33 138.999s52.667 73.666 92 96.999s83.666 35 132.999 35c55.333 0 101.833 -12.833 139.5 -38.5s64.5 -59.834 80.5 -102.501l-77 -32
c-12.667 31.333 -31.5 55.166 -56.5 71.499s-55.167 24.5 -90.5 24.5c-30 0 -58 -8.16699 -84 -24.5s-46.833 -39.166 -62.5 -68.499s-23.5 -63 -23.5 -101s7.83301 -71.667 23.5 -101s36.5 -52.166 62.5 -68.499s54 -24.5 84 -24.5c36 0 67 8.33301 93 25
s45.333 40.334 58 71.001l76 -32c-17.333 -42 -45.166 -76 -83.499 -102s-84.833 -39 -139.5 -39c-49.333 0 -93.666 11.833 -132.999 35.5zM152.999 731.001v5h82l53 -64h8l54 64h82v-5l-102 -117h-75z" />
    <glyph glyph-name="Dcaron" unicode="&#x10e;" horiz-adv-x="703" 
d="M80 716h216c73.333 0 137.333 -15.167 192 -45.5s96.667 -72.5 126 -126.5s44 -116 44 -186s-14.667 -132 -44 -186s-71.333 -96.167 -126 -126.5s-118.667 -45.5 -192 -45.5h-216v716zM296 81c84.667 0 151.834 24.333 201.501 73s74.5 116.667 74.5 204
s-24.833 155.333 -74.5 204s-116.834 73 -201.501 73h-132v-554h132zM179 895v5h82l53 -63h8l54 63h82v-5l-102 -116h-75z" />
    <glyph glyph-name="dcaron" unicode="&#x10f;" horiz-adv-x="681" 
d="M155.5 19c-37 23.333 -66.167 55.502 -87.5 96.502s-32 87.5 -32 139.5c0 51.333 10.667 97.666 32 138.999s50.5 73.666 87.5 96.999s78.167 35 123.5 35c39.333 0 74.333 -8.83301 105 -26.5s54 -39.5 70 -65.5h4l-4 71v211h85v-716h-81v75h-4
c-16 -25.333 -39.333 -46.833 -70 -64.5s-65.667 -26.5 -105 -26.5c-45.333 0 -86.5 11.667 -123.5 35zM372.5 85.002c25.667 16 46.334 38.667 62.001 68s23.5 63.333 23.5 102s-7.83301 72.667 -23.5 102s-36.334 52 -62.001 68s-53.5 24 -83.5 24
c-29.333 0 -57 -8 -83 -24s-46.833 -38.833 -62.5 -68.5s-23.5 -63.5 -23.5 -101.5s7.83301 -71.833 23.5 -101.5s36.5 -52.5 62.5 -68.5s53.667 -24 83 -24c30 0 57.833 8 83.5 24zM606 716.002h91l-29 -189h-62v189z" />
    <glyph glyph-name="Dcroat" unicode="&#x110;" horiz-adv-x="705" 
d="M82 339h-81v66h81v311h216c73.333 0 137.333 -15.167 192 -45.5s96.667 -72.5 126 -126.5s44 -116 44 -186s-14.667 -132 -44 -186s-71.333 -96.167 -126 -126.5s-118.667 -45.5 -192 -45.5h-216v339zM298 81c84.667 0 151.834 24.333 201.501 73s74.5 116.667 74.5 204
s-24.833 155.333 -74.5 204s-116.834 73 -201.501 73h-131v-230h184v-66h-184v-258h131z" />
    <glyph glyph-name="dcroat" unicode="&#x111;" horiz-adv-x="602" 
d="M602 583l-63 0.00195312v-583h-81v75h-4c-16 -25.333 -39.333 -46.833 -70 -64.5s-65.667 -26.5 -105 -26.5c-45.333 0 -86.5 11.667 -123.5 35s-66.167 55.5 -87.5 96.5s-32 87.5 -32 139.5c0 51.333 10.667 97.666 32 138.999s50.5 73.666 87.5 96.999
s78.167 35 123.5 35c39.333 0 74.333 -8.83301 105 -26.5s54 -39.5 70 -65.5h4l-4 68v81h-154v67h154v66h85v-66h63v-67zM372.5 85.002c25.667 16 46.334 38.667 62.001 68s23.5 63.333 23.5 102s-7.83301 72.667 -23.5 102s-36.334 52 -62.001 68s-53.5 24 -83.5 24
c-29.333 0 -57 -8 -83 -24s-46.833 -38.833 -62.5 -68.5s-23.5 -63.5 -23.5 -101.5s7.83301 -71.833 23.5 -101.5s36.5 -52.5 62.5 -68.5s53.667 -24 83 -24c30 0 57.833 8 83.5 24z" />
    <glyph glyph-name="Emacron" unicode="&#x112;" horiz-adv-x="551" 
d="M80 716h414v-81h-330v-237h298v-80h-298v-237h330v-81h-414v716zM149 876h277v-66h-277v66z" />
    <glyph glyph-name="emacron" unicode="&#x113;" horiz-adv-x="563" 
d="M159 19c-38.667 23.333 -68.8311 55.501 -90.498 96.501s-32.5 87.167 -32.5 138.5c0 49.333 10.167 94.666 30.5 135.999s49.166 74.333 86.499 99s80.666 37 129.999 37c50 0 93.333 -11.167 130 -33.5s64.834 -53.166 84.501 -92.499s29.5 -84.333 29.5 -135
c0 -10 -1 -18.667 -3 -26h-403c2 -38.667 11.333 -71.334 28 -98.001s37.834 -46.667 63.501 -60s52.5 -20 80.5 -20c65.333 0 115.666 30.667 150.999 92l72 -35c-22 -41.333 -51.833 -74 -89.5 -98s-83.167 -36 -136.5 -36c-48.667 0 -92.334 11.667 -131.001 35z
M437.003 309.001c-1.33301 21.333 -7.33203 42.667 -17.999 64s-27.5 39.333 -50.5 54s-51.833 22 -86.5 22c-40 0 -73.833 -12.833 -101.5 -38.5s-45.834 -59.5 -54.501 -101.5h311zM146.004 712.002h277v-67h-277v67z" />
    <glyph glyph-name="Ebreve" unicode="&#x114;" horiz-adv-x="551" 
d="M80 716h414v-81h-330v-237h298v-80h-298v-237h330v-81h-414v716zM225.5 788.5c-19.667 11 -35.502 26 -47.502 45s-18 39.833 -18 62.5h69c0 -16.667 5.33301 -30.834 16 -42.501s25 -17.5 43 -17.5c16.667 0 30.334 5.83301 41.001 17.5s16 25.834 16 42.501h68
c0 -22.667 -5.83301 -43.5 -17.5 -62.5s-27.167 -34 -46.5 -45s-39.666 -16.5 -60.999 -16.5c-22 0 -42.833 5.5 -62.5 16.5z" />
    <glyph glyph-name="ebreve" unicode="&#x115;" horiz-adv-x="563" 
d="M159 19c-38.667 23.333 -68.8311 55.501 -90.498 96.501s-32.5 87.167 -32.5 138.5c0 49.333 10.167 94.666 30.5 135.999s49.166 74.333 86.499 99s80.666 37 129.999 37c50 0 93.333 -11.167 130 -33.5s64.834 -53.166 84.501 -92.499s29.5 -84.333 29.5 -135
c0 -10 -1 -18.667 -3 -26h-403c2 -38.667 11.333 -71.334 28 -98.001s37.834 -46.667 63.501 -60s52.5 -20 80.5 -20c65.333 0 115.666 30.667 150.999 92l72 -35c-22 -41.333 -51.833 -74 -89.5 -98s-83.167 -36 -136.5 -36c-48.667 0 -92.334 11.667 -131.001 35z
M437.003 309.001c-1.33301 21.333 -7.33203 42.667 -17.999 64s-27.5 39.333 -50.5 54s-51.833 22 -86.5 22c-40 0 -73.833 -12.833 -101.5 -38.5s-45.834 -59.5 -54.501 -101.5h311zM222.504 623.502c-19.667 11 -35.502 26 -47.502 45s-18 40.167 -18 63.5h69
c0 -16.667 5.33301 -31 16 -43s25 -18 43 -18c16.667 0 30.334 6 41.001 18s16 26.333 16 43h68c0 -23.333 -5.83301 -44.5 -17.5 -63.5s-27.167 -34 -46.5 -45s-39.666 -16.5 -60.999 -16.5c-22 0 -42.833 5.5 -62.5 16.5z" />
    <glyph glyph-name="Edotaccent" unicode="&#x116;" horiz-adv-x="551" 
d="M80 716h414v-81h-330v-237h298v-80h-298v-237h330v-81h-414v716zM253 822c-10 10 -15 21.333 -15 34c0 13.333 5 24.833 15 34.5s21.333 14.5 34 14.5c14.667 0 26.667 -4.66699 36 -14s14 -21 14 -35c0 -13.333 -4.83301 -24.833 -14.5 -34.5s-21.5 -14.5 -35.5 -14.5
c-12.667 0 -24 5 -34 15z" />
    <glyph glyph-name="edotaccent" unicode="&#x117;" horiz-adv-x="563" 
d="M159 19c-38.667 23.333 -68.8311 55.501 -90.498 96.501s-32.5 87.167 -32.5 138.5c0 49.333 10.167 94.666 30.5 135.999s49.166 74.333 86.499 99s80.666 37 129.999 37c50 0 93.333 -11.167 130 -33.5s64.834 -53.166 84.501 -92.499s29.5 -84.333 29.5 -135
c0 -10 -1 -18.667 -3 -26h-403c2 -38.667 11.333 -71.334 28 -98.001s37.834 -46.667 63.501 -60s52.5 -20 80.5 -20c65.333 0 115.666 30.667 150.999 92l72 -35c-22 -41.333 -51.833 -74 -89.5 -98s-83.167 -36 -136.5 -36c-48.667 0 -92.334 11.667 -131.001 35z
M437.003 309.001c-1.33301 21.333 -7.33203 42.667 -17.999 64s-27.5 39.333 -50.5 54s-51.833 22 -86.5 22c-40 0 -73.833 -12.833 -101.5 -38.5s-45.834 -59.5 -54.501 -101.5h311zM246.004 641.002c-10.667 10.667 -16 23.334 -16 38.001c0 15.333 5.33301 28 16 38
s23.334 15 38.001 15c15.333 0 28 -5 38 -15s15 -22.667 15 -38c0 -14.667 -5 -27.334 -15 -38.001s-22.667 -16 -38 -16c-14.667 0 -27.334 5.33301 -38.001 16z" />
    <glyph glyph-name="Eogonek" unicode="&#x118;" horiz-adv-x="551" 
d="M378.5 -192c-21.667 21.333 -32.5 47.9971 -32.5 79.9971c0 24.667 6.33301 46.334 19 65.001s27.667 34.334 45 47.001h-330v716h414v-81h-330v-237h298v-80h-298v-237h330v-81c-24 -18 -42 -34.5 -54 -49.5s-18 -31.833 -18 -50.5c0 -15.333 4.5 -28.166 13.5 -38.499
s21.167 -15.5 36.5 -15.5c14 0 27.333 3.33301 40 10v-72c-12 -5.33301 -27.667 -8 -47 -8c-36 0 -64.833 10.667 -86.5 32z" />
    <glyph glyph-name="eogonek" unicode="&#x119;" horiz-adv-x="563" 
d="M282.5 -191.5c-21.667 21.667 -32.4941 48.167 -32.4941 79.5c0 34 15.667 66 47 96h-7c-48.667 0 -92.334 11.667 -131.001 35s-68.834 55.5 -90.501 96.5s-32.5 87.167 -32.5 138.5c0 49.333 10.167 94.666 30.5 135.999s49.166 74.333 86.499 99s80.666 37 129.999 37
c50 0 93.333 -11.167 130 -33.5s64.834 -53.166 84.501 -92.499s29.5 -84.333 29.5 -135c0 -10 -1 -18.667 -3 -26h-403c2 -38.667 11.333 -71.334 28 -98.001s37.834 -46.667 63.501 -60s52.5 -20 80.5 -20c65.333 0 115.666 30.667 150.999 92l72 -35
c-19.333 -36.667 -51.666 -70.667 -96.999 -102c-34.667 -24 -58.834 -44.333 -72.501 -61s-20.5 -35 -20.5 -55c0 -15.333 4.66699 -28.166 14 -38.499s21.666 -15.5 36.999 -15.5c13.333 0 26.666 3.33301 39.999 10v-72c-12 -5.33301 -27.667 -8 -47 -8
c-36.667 0 -65.834 10.833 -87.501 32.5zM437.006 309c-1.33301 21.333 -7.33203 42.667 -17.999 64s-27.5 39.333 -50.5 54s-51.833 22 -86.5 22c-40 0 -73.833 -12.833 -101.5 -38.5s-45.834 -59.5 -54.501 -101.5h311z" />
    <glyph glyph-name="Ecaron" unicode="&#x11a;" horiz-adv-x="551" 
d="M80 716h414v-81h-330v-237h298v-80h-298v-237h330v-81h-414v716zM148 895v5h82l53 -63h8l54 63h82v-5l-102 -116h-75z" />
    <glyph glyph-name="ecaron" unicode="&#x11b;" horiz-adv-x="563" 
d="M159 19c-38.667 23.333 -68.8311 55.501 -90.498 96.501s-32.5 87.167 -32.5 138.5c0 49.333 10.167 94.666 30.5 135.999s49.166 74.333 86.499 99s80.666 37 129.999 37c50 0 93.333 -11.167 130 -33.5s64.834 -53.166 84.501 -92.499s29.5 -84.333 29.5 -135
c0 -10 -1 -18.667 -3 -26h-403c2 -38.667 11.333 -71.334 28 -98.001s37.834 -46.667 63.501 -60s52.5 -20 80.5 -20c65.333 0 115.666 30.667 150.999 92l72 -35c-22 -41.333 -51.833 -74 -89.5 -98s-83.167 -36 -136.5 -36c-48.667 0 -92.334 11.667 -131.001 35z
M437.003 309.001c-1.33301 21.333 -7.33203 42.667 -17.999 64s-27.5 39.333 -50.5 54s-51.833 22 -86.5 22c-40 0 -73.833 -12.833 -101.5 -38.5s-45.834 -59.5 -54.501 -101.5h311zM145.004 731.002v5h82l53 -64h8l54 64h82v-5l-102 -117h-75z" />
    <glyph glyph-name="Gcircumflex" unicode="&#x11c;" horiz-adv-x="813" 
d="M230 33c-56.667 32.667 -101.666 77.667 -134.999 135s-50 120.666 -50 189.999s16.667 132.666 50 189.999s78.333 102.333 135 135s118.667 49 186 49c52.667 0 102.167 -9.33301 148.5 -28s84.5 -45 114.5 -79l-61 -61c-22.667 28 -51.667 49.5 -87 64.5
s-73.333 22.5 -114 22.5c-50.667 0 -97.834 -12.167 -141.501 -36.5s-78.667 -58.666 -105 -102.999s-39.5 -95.5 -39.5 -153.5s13.167 -109.167 39.5 -153.5s61.5 -78.666 105.5 -102.999s91 -36.5 141 -36.5c48 0 88.167 7.5 120.5 22.5s60.166 34.833 83.499 59.5
c17.333 18.667 31.333 41.167 42 67.5s17.334 55.5 20.001 87.5h-265v79h344c3.33301 -18.667 5 -36 5 -52c0 -44 -7 -86.833 -21 -128.5s-36.333 -78.167 -67 -109.5c-66 -71.333 -153.667 -107 -263 -107c-67.333 0 -129.333 16.333 -186 49zM277.001 784l102 116h75
l102 -116v-5h-82l-54 63h-8l-53 -63h-82v5z" />
    <glyph glyph-name="gcircumflex" unicode="&#x11d;" horiz-adv-x="597" 
d="M138.5 -190c-39 28 -65.166 61.665 -78.499 100.998l77 33c11.333 -29.333 30.166 -53.166 56.499 -71.499s57.5 -27.5 93.5 -27.5c52.667 0 93.5 15.333 122.5 46s43.5 74 43.5 130v57h-4c-16.667 -26 -40.167 -47.167 -70.5 -63.5s-64.833 -24.5 -103.5 -24.5
c-44 0 -84.167 11.333 -120.5 34s-65.166 54.334 -86.499 95.001s-32 87 -32 139c0 51.333 10.667 97.5 32 138.5s50.166 72.833 86.499 95.5s76.5 34 120.5 34c38.667 0 73.167 -8.16699 103.5 -24.5s53.833 -37.833 70.5 -64.5h4v73h81v-490
c0 -82 -22.667 -144.5 -68 -187.5s-105 -64.5 -179 -64.5c-60 0 -109.5 14 -148.5 42zM370.501 89.998c25 15.333 45 37.333 60 66s22.5 62.667 22.5 102c0 40 -7.5 74.333 -22.5 103s-35 50.5 -60 65.5s-52.833 22.5 -83.5 22.5s-58.667 -7.66699 -84 -23
s-45.5 -37.333 -60.5 -66s-22.5 -62.667 -22.5 -102s7.5 -73.5 22.5 -102.5s35.167 -51 60.5 -66s53.333 -22.5 84 -22.5s58.5 7.66699 83.5 23zM158.001 618.998l102 117h75l102 -117v-5h-82l-54 64h-8l-53 -64h-82v5z" />
    <glyph glyph-name="Gbreve" unicode="&#x11e;" horiz-adv-x="813" 
d="M230 33c-56.667 32.667 -101.666 77.667 -134.999 135s-50 120.666 -50 189.999s16.667 132.666 50 189.999s78.333 102.333 135 135s118.667 49 186 49c52.667 0 102.167 -9.33301 148.5 -28s84.5 -45 114.5 -79l-61 -61c-22.667 28 -51.667 49.5 -87 64.5
s-73.333 22.5 -114 22.5c-50.667 0 -97.834 -12.167 -141.501 -36.5s-78.667 -58.666 -105 -102.999s-39.5 -95.5 -39.5 -153.5s13.167 -109.167 39.5 -153.5s61.5 -78.666 105.5 -102.999s91 -36.5 141 -36.5c48 0 88.167 7.5 120.5 22.5s60.166 34.833 83.499 59.5
c17.333 18.667 31.333 41.167 42 67.5s17.334 55.5 20.001 87.5h-265v79h344c3.33301 -18.667 5 -36 5 -52c0 -44 -7 -86.833 -21 -128.5s-36.333 -78.167 -67 -109.5c-66 -71.333 -153.667 -107 -263 -107c-67.333 0 -129.333 16.333 -186 49zM354.501 788.5
c-19.667 11 -35.502 26 -47.502 45s-18 39.833 -18 62.5h69c0 -16.667 5.33301 -30.834 16 -42.501s25 -17.5 43 -17.5c16.667 0 30.334 5.83301 41.001 17.5s16 25.834 16 42.501h68c0 -22.667 -5.83301 -43.5 -17.5 -62.5s-27.167 -34 -46.5 -45
s-39.666 -16.5 -60.999 -16.5c-22 0 -42.833 5.5 -62.5 16.5z" />
    <glyph glyph-name="gbreve" unicode="&#x11f;" horiz-adv-x="597" 
d="M138.5 -190c-39 28 -65.166 61.665 -78.499 100.998l77 33c11.333 -29.333 30.166 -53.166 56.499 -71.499s57.5 -27.5 93.5 -27.5c52.667 0 93.5 15.333 122.5 46s43.5 74 43.5 130v57h-4c-16.667 -26 -40.167 -47.167 -70.5 -63.5s-64.833 -24.5 -103.5 -24.5
c-44 0 -84.167 11.333 -120.5 34s-65.166 54.334 -86.499 95.001s-32 87 -32 139c0 51.333 10.667 97.5 32 138.5s50.166 72.833 86.499 95.5s76.5 34 120.5 34c38.667 0 73.167 -8.16699 103.5 -24.5s53.833 -37.833 70.5 -64.5h4v73h81v-490
c0 -82 -22.667 -144.5 -68 -187.5s-105 -64.5 -179 -64.5c-60 0 -109.5 14 -148.5 42zM370.501 89.998c25 15.333 45 37.333 60 66s22.5 62.667 22.5 102c0 40 -7.5 74.333 -22.5 103s-35 50.5 -60 65.5s-52.833 22.5 -83.5 22.5s-58.667 -7.66699 -84 -23
s-45.5 -37.333 -60.5 -66s-22.5 -62.667 -22.5 -102s7.5 -73.5 22.5 -102.5s35.167 -51 60.5 -66s53.333 -22.5 84 -22.5s58.5 7.66699 83.5 23zM235.501 623.498c-19.667 11 -35.502 26 -47.502 45s-18 40.167 -18 63.5h69c0 -16.667 5.33301 -31 16 -43s25 -18 43 -18
c16.667 0 30.334 6 41.001 18s16 26.333 16 43h68c0 -23.333 -5.83301 -44.5 -17.5 -63.5s-27.167 -34 -46.5 -45s-39.666 -16.5 -60.999 -16.5c-22 0 -42.833 5.5 -62.5 16.5z" />
    <glyph glyph-name="Gdotaccent" unicode="&#x120;" horiz-adv-x="813" 
d="M230 33c-56.667 32.667 -101.666 77.667 -134.999 135s-50 120.666 -50 189.999s16.667 132.666 50 189.999s78.333 102.333 135 135s118.667 49 186 49c52.667 0 102.167 -9.33301 148.5 -28s84.5 -45 114.5 -79l-61 -61c-22.667 28 -51.667 49.5 -87 64.5
s-73.333 22.5 -114 22.5c-50.667 0 -97.834 -12.167 -141.501 -36.5s-78.667 -58.666 -105 -102.999s-39.5 -95.5 -39.5 -153.5s13.167 -109.167 39.5 -153.5s61.5 -78.666 105.5 -102.999s91 -36.5 141 -36.5c48 0 88.167 7.5 120.5 22.5s60.166 34.833 83.499 59.5
c17.333 18.667 31.333 41.167 42 67.5s17.334 55.5 20.001 87.5h-265v79h344c3.33301 -18.667 5 -36 5 -52c0 -44 -7 -86.833 -21 -128.5s-36.333 -78.167 -67 -109.5c-66 -71.333 -153.667 -107 -263 -107c-67.333 0 -129.333 16.333 -186 49zM382.001 822
c-10 10 -15 21.333 -15 34c0 13.333 5 24.833 15 34.5s21.333 14.5 34 14.5c14.667 0 26.667 -4.66699 36 -14s14 -21 14 -35c0 -13.333 -4.83301 -24.833 -14.5 -34.5s-21.5 -14.5 -35.5 -14.5c-12.667 0 -24 5 -34 15z" />
    <glyph glyph-name="gdotaccent" unicode="&#x121;" horiz-adv-x="597" 
d="M138.5 -190c-39 28 -65.166 61.665 -78.499 100.998l77 33c11.333 -29.333 30.166 -53.166 56.499 -71.499s57.5 -27.5 93.5 -27.5c52.667 0 93.5 15.333 122.5 46s43.5 74 43.5 130v57h-4c-16.667 -26 -40.167 -47.167 -70.5 -63.5s-64.833 -24.5 -103.5 -24.5
c-44 0 -84.167 11.333 -120.5 34s-65.166 54.334 -86.499 95.001s-32 87 -32 139c0 51.333 10.667 97.5 32 138.5s50.166 72.833 86.499 95.5s76.5 34 120.5 34c38.667 0 73.167 -8.16699 103.5 -24.5s53.833 -37.833 70.5 -64.5h4v73h81v-490
c0 -82 -22.667 -144.5 -68 -187.5s-105 -64.5 -179 -64.5c-60 0 -109.5 14 -148.5 42zM370.501 89.998c25 15.333 45 37.333 60 66s22.5 62.667 22.5 102c0 40 -7.5 74.333 -22.5 103s-35 50.5 -60 65.5s-52.833 22.5 -83.5 22.5s-58.667 -7.66699 -84 -23
s-45.5 -37.333 -60.5 -66s-22.5 -62.667 -22.5 -102s7.5 -73.5 22.5 -102.5s35.167 -51 60.5 -66s53.333 -22.5 84 -22.5s58.5 7.66699 83.5 23zM259.001 640.998c-10.667 10.667 -16 23.334 -16 38.001c0 15.333 5.33301 28 16 38s23.334 15 38.001 15
c15.333 0 28 -5 38 -15s15 -22.667 15 -38c0 -14.667 -5 -27.334 -15 -38.001s-22.667 -16 -38 -16c-14.667 0 -27.334 5.33301 -38.001 16z" />
    <glyph glyph-name="Gcommaaccent" unicode="&#x122;" horiz-adv-x="813" 
d="M230 33c-56.667 32.667 -101.666 77.667 -134.999 135s-50 120.666 -50 189.999s16.667 132.666 50 189.999s78.333 102.333 135 135s118.667 49 186 49c52.667 0 102.167 -9.33301 148.5 -28s84.5 -45 114.5 -79l-61 -61c-22.667 28 -51.667 49.5 -87 64.5
s-73.333 22.5 -114 22.5c-50.667 0 -97.834 -12.167 -141.501 -36.5s-78.667 -58.666 -105 -102.999s-39.5 -95.5 -39.5 -153.5s13.167 -109.167 39.5 -153.5s61.5 -78.666 105.5 -102.999s91 -36.5 141 -36.5c48 0 88.167 7.5 120.5 22.5s60.166 34.833 83.499 59.5
c17.333 18.667 31.333 41.167 42 67.5s17.334 55.5 20.001 87.5h-265v79h344c3.33301 -18.667 5 -36 5 -52c0 -44 -7 -86.833 -21 -128.5s-36.333 -78.167 -67 -109.5c-66 -71.333 -153.667 -107 -263 -107c-67.333 0 -129.333 16.333 -186 49zM352.001 -212l40 56.998
c-12 2.66699 -21.833 8.83398 -29.5 18.501s-11.5 20.834 -11.5 33.501c0 14 5.33301 26.667 16 38s24 17 40 17c16.667 0 30.167 -5.5 40.5 -16.5s15.5 -24.833 15.5 -41.5c0 -12.667 -4 -27 -12 -43l-61 -89z" />
    <glyph glyph-name="gcommaaccent" unicode="&#x123;" horiz-adv-x="597" 
d="M138.5 -190c-39 28 -65.166 61.665 -78.499 100.998l77 33c11.333 -29.333 30.166 -53.166 56.499 -71.499s57.5 -27.5 93.5 -27.5c52.667 0 93.5 15.333 122.5 46s43.5 74 43.5 130v57h-4c-16.667 -26 -40.167 -47.167 -70.5 -63.5s-64.833 -24.5 -103.5 -24.5
c-44 0 -84.167 11.333 -120.5 34s-65.166 54.334 -86.499 95.001s-32 87 -32 139c0 51.333 10.667 97.5 32 138.5s50.166 72.833 86.499 95.5s76.5 34 120.5 34c38.667 0 73.167 -8.16699 103.5 -24.5s53.833 -37.833 70.5 -64.5h4v73h81v-490
c0 -82 -22.667 -144.5 -68 -187.5s-105 -64.5 -179 -64.5c-60 0 -109.5 14 -148.5 42zM370.501 89.998c25 15.333 45 37.333 60 66s22.5 62.667 22.5 102c0 40 -7.5 74.333 -22.5 103s-35 50.5 -60 65.5s-52.833 22.5 -83.5 22.5s-58.667 -7.66699 -84 -23
s-45.5 -37.333 -60.5 -66s-22.5 -62.667 -22.5 -102s7.5 -73.5 22.5 -102.5s35.167 -51 60.5 -66s53.333 -22.5 84 -22.5s58.5 7.66699 83.5 23zM350.001 755.998l-40 -56.998c12 -2.66699 21.833 -8.83398 29.5 -18.501s11.5 -20.834 11.5 -33.501
c0 -14 -5.33301 -26.667 -16 -38s-24 -17 -40 -17c-16.667 0 -30.167 5.5 -40.5 16.5s-15.5 24.833 -15.5 41.5c0 12.667 4 27 12 43l61 89z" />
    <glyph glyph-name="Hcircumflex" unicode="&#x124;" horiz-adv-x="698" 
d="M80 716h84v-310h370v310h84v-716h-84v326h-370v-326h-84v716zM210 784l102 116h75l102 -116v-5h-82l-54 63h-8l-53 -63h-82v5z" />
    <glyph glyph-name="hcircumflex" unicode="&#x125;" horiz-adv-x="564" 
d="M63 716l84.999 -0.000976562v-211l-4 -70h4c14 26 36.167 47.667 66.5 65s63.5 26 99.5 26c62 0 109.333 -18.167 142 -54.5s49 -84.5 49 -144.5v-327h-85v314c0 46 -11.667 80 -35 102s-53.666 33 -90.999 33c-26.667 0 -51.167 -8 -73.5 -24s-40 -36.667 -53 -62
s-19.5 -51.666 -19.5 -78.999v-284h-85v716zM147.999 782.999l102 117h75l102 -117v-5h-82l-54 64h-8l-53 -64h-82v5z" />
    <glyph glyph-name="Hbar" unicode="&#x126;" horiz-adv-x="698" 
d="M682 509h-64v-509h-84v326h-370v-326h-84v509h-64v66h64v141h84v-141h370v141h84v-141h64v-66zM534 509h-370v-103h370v103z" />
    <glyph glyph-name="hbar" unicode="&#x127;" horiz-adv-x="564" 
d="M456 471.5c32.667 -36.333 48.999 -84.501 48.999 -144.501v-327h-85v314c0 46 -11.667 80 -35 102s-53.666 33 -90.999 33c-26.667 0 -51.167 -8 -73.5 -24s-40 -36.667 -53 -62s-19.5 -51.666 -19.5 -78.999v-284h-85v583h-64v67h64v66h85v-66h153v-67h-153v-78l-4 -70
h4c14 26 36.167 47.667 66.5 65s63.5 26 99.5 26c62 0 109.333 -18.167 142 -54.5z" />
    <glyph glyph-name="Itilde" unicode="&#x128;" horiz-adv-x="244" 
d="M80 716h84v-716h-84v716zM144.5 787.5c-11.667 5 -25.8379 12.168 -42.5049 21.501c-19.333 12 -32.666 18 -39.999 18c-22 0 -34 -12.333 -36 -37h-70c0 25.333 5.33301 46.5 16 63.5s24.334 29.667 41.001 38s33.334 12.5 50.001 12.5c20.667 0 47.334 -10 80.001 -30
c20 -11.333 33 -17 39 -17c22 0 34 12.333 36 37h70c0 -36.667 -11.167 -64.834 -33.5 -84.501s-47.166 -29.5 -74.499 -29.5c-12 0 -23.833 2.5 -35.5 7.5z" />
    <glyph glyph-name="itilde" unicode="&#x129;" horiz-adv-x="226" 
d="M71 510h84v-510h-84v510zM135.5 623.5c-11.667 5 -25.835 12.167 -42.502 21.5c-19.333 12 -32.666 18 -39.999 18c-22 0 -34 -12.333 -36 -37h-70c0 36.667 11 64.667 33 84s46.667 29 74 29c20.667 0 47.334 -10 80.001 -30c20 -11.333 33 -17 39 -17
c22 0 34 12.333 36 37h70c0 -36.667 -11 -64.667 -33 -84s-47 -29 -75 -29c-12 0 -23.833 2.5 -35.5 7.5z" />
    <glyph glyph-name="Imacron" unicode="&#x12a;" horiz-adv-x="244" 
d="M-1 876h246v-66h-246v66zM81 716h84v-716h-84v716z" />
    <glyph glyph-name="imacron" unicode="&#x12b;" horiz-adv-x="226" 
d="M71 510h84v-510h-84v510zM-25 712h277v-67h-277v67z" />
    <glyph glyph-name="Ibreve" unicode="&#x12c;" horiz-adv-x="244" 
d="M80 716h84v-716h-84v716zM60.5 788.5c-19.667 11 -35.502 26 -47.502 45s-18 39.833 -18 62.5h69c0 -16.667 5.33301 -30.834 16 -42.501s25 -17.5 43 -17.5c16.667 0 30.334 5.83301 41.001 17.5s16 25.834 16 42.501h68c0 -22.667 -5.83301 -43.5 -17.5 -62.5
s-27.167 -34 -46.5 -45s-39.666 -16.5 -60.999 -16.5c-22 0 -42.833 5.5 -62.5 16.5z" />
    <glyph glyph-name="ibreve" unicode="&#x12d;" horiz-adv-x="226" 
d="M71 510h84v-510h-84v510zM51.5 623.5c-19.667 11 -35.502 26 -47.502 45s-18 40.167 -18 63.5h69c0 -16.667 5.33301 -31 16 -43s25 -18 43 -18c16.667 0 30.334 6 41.001 18s16 26.333 16 43h68c0 -23.333 -5.83301 -44.5 -17.5 -63.5s-27.167 -34 -46.5 -45
s-39.666 -16.5 -60.999 -16.5c-22 0 -42.833 5.5 -62.5 16.5z" />
    <glyph glyph-name="Iogonek" unicode="&#x12e;" horiz-adv-x="242" 
d="M47.5 -192c-21.667 21.333 -32.5 47.999 -32.5 79.999c0 24.667 6.33301 46.334 19 65.001s27.667 34.334 45 47.001v716h84v-716c-24 -18.667 -42 -35.334 -54 -50.001s-18 -31.334 -18 -50.001c0 -15.333 4.5 -28.166 13.5 -38.499s21.167 -15.5 36.5 -15.5
c14 0 27.333 3.33301 40 10v-72c-12 -5.33301 -27.667 -8 -47 -8c-36 0 -64.833 10.667 -86.5 32z" />
    <glyph glyph-name="iogonek" unicode="&#x12f;" horiz-adv-x="226" 
d="M70 622c-12 12 -18 26.333 -18 43s6 30.834 18 42.501s26.333 17.5 43 17.5s31 -5.83301 43 -17.5s18 -25.834 18 -42.501s-5.83301 -31 -17.5 -43s-26.167 -18 -43.5 -18c-16.667 0 -31 6 -43 18zM39.5 -191.5c-21.667 21.667 -32.5 48.168 -32.5 79.501
c0 42 21.333 79.333 64 112v510h84v-510c-24 -18.667 -42 -35.334 -54 -50.001s-18 -31.334 -18 -50.001c0 -15.333 4.5 -28.166 13.5 -38.499s21.167 -15.5 36.5 -15.5c14 0 27.333 3.33301 40 10v-72c-12 -5.33301 -27.667 -8 -47 -8c-36 0 -64.833 10.833 -86.5 32.5z
" />
    <glyph glyph-name="Idotaccent" unicode="&#x130;" horiz-adv-x="244" 
d="M80 716h84v-716h-84v716zM88 822c-10 10 -15 21.333 -15 34c0 13.333 5 24.833 15 34.5s21.333 14.5 34 14.5c14.667 0 26.667 -4.66699 36 -14s14 -21 14 -35c0 -13.333 -4.83301 -24.833 -14.5 -34.5s-21.5 -14.5 -35.5 -14.5c-12.667 0 -24 5 -34 15z" />
    <glyph glyph-name="dotlessi" unicode="&#x131;" horiz-adv-x="226" 
d="M71 510h84v-510h-84v510z" />
    <glyph glyph-name="Jcircumflex" unicode="&#x134;" horiz-adv-x="530" 
d="M109 27.5c-39.333 29 -67.001 69.833 -83.001 122.5l80 33c24 -78.667 71 -118 141 -118c39.333 0 70.833 13.667 94.5 41s35.5 63.333 35.5 108v502h85v-495c0 -50 -9.16699 -92.833 -27.5 -128.5s-43.666 -62.667 -75.999 -81s-69.5 -27.5 -111.5 -27.5
c-52.667 0 -98.667 14.5 -138 43.5zM280.999 784l102 116h75l102 -116v-5h-82l-54 63h-8l-53 -63h-82v5z" />
    <glyph glyph-name="jcircumflex" unicode="&#x135;" horiz-adv-x="226" 
d="M-30 -219v81c5.33301 -3.33301 12 -6 20 -8s15.333 -3 22 -3c20.667 0 35.667 6.5 45 19.5s14 32.167 14 57.5v582h84v-582c0 -51.333 -12.333 -89.833 -37 -115.5s-59 -38.5 -103 -38.5c-16 0 -31 2.33301 -45 7zM-26 619l102 117h75l102 -117v-5h-82l-54 64h-8l-53 -64
h-82v5z" />
    <glyph glyph-name="Kcommaaccent" unicode="&#x136;" horiz-adv-x="625" 
d="M80 716h84v-377h4l323 377h109v-4l-265 -306l284 -402v-4h-103l-238 341l-114 -131v-210h-84v716zM257 -212l40 56.998c-12 2.66699 -21.833 8.83398 -29.5 18.501s-11.5 20.834 -11.5 33.501c0 14 5.33301 26.667 16 38s24 17 40 17c16.667 0 30.167 -5.5 40.5 -16.5
s15.5 -24.833 15.5 -41.5c0 -12.667 -4 -27 -12 -43l-61 -89z" />
    <glyph glyph-name="kcommaaccent" unicode="&#x137;" horiz-adv-x="505" 
d="M63 716h85v-450l240 244h108v-4l-200 -202l205 -300v-4h-101l-164 245l-88 -88v-157h-85v716zM207 -212l40 56.998c-12 2.66699 -21.833 8.83398 -29.5 18.501s-11.5 20.834 -11.5 33.501c0 14 5.33301 26.667 16 38s24 17 40 17c16.667 0 30.167 -5.5 40.5 -16.5
s15.5 -24.833 15.5 -41.5c0 -12.667 -4 -27 -12 -43l-61 -89z" />
    <glyph glyph-name="kgreenlandic" unicode="&#x138;" horiz-adv-x="488" 
d="M63 510h85v-231h4l215 231h107v-4l-230 -238l240 -264v-4h-104l-228 257h-4v-257h-85v510z" />
    <glyph glyph-name="Lacute" unicode="&#x139;" horiz-adv-x="509" 
d="M80 716h84v-635h314v-81h-398v716zM137 900h93l-71 -127h-74z" />
    <glyph glyph-name="lacute" unicode="&#x13a;" horiz-adv-x="211" 
d="M63 716h85v-716h-85v716zM120 900h93l-71 -127h-74z" />
    <glyph glyph-name="Lcommaaccent" unicode="&#x13b;" horiz-adv-x="509" 
d="M80 716h84v-635h314v-81h-398v716zM224 -212l40 56.998c-12 2.66699 -21.833 8.83398 -29.5 18.501s-11.5 20.834 -11.5 33.501c0 14 5.33301 26.667 16 38s24 17 40 17c16.667 0 30.167 -5.5 40.5 -16.5s15.5 -24.833 15.5 -41.5c0 -12.667 -4 -27 -12 -43l-61 -89z" />
    <glyph glyph-name="lcommaaccent" unicode="&#x13c;" horiz-adv-x="211" 
d="M63 716h85v-716h-85v716zM50 -212l40 56.998c-12 2.66699 -21.833 8.83398 -29.5 18.501s-11.5 20.834 -11.5 33.501c0 14 5.33301 26.667 16 38s24 17 40 17c16.667 0 30.167 -5.5 40.5 -16.5s15.5 -24.833 15.5 -41.5c0 -12.667 -4 -27 -12 -43l-61 -89z" />
    <glyph glyph-name="Lcaron" unicode="&#x13d;" horiz-adv-x="509" 
d="M80 716h84v-635h314v-81h-398v716zM317 716h91l-29 -189h-62v189z" />
    <glyph glyph-name="lcaron" unicode="&#x13e;" horiz-adv-x="298" 
d="M63 716h85v-716h-85v716zM232 716h91l-29 -189h-62v189z" />
    <glyph glyph-name="Ldot" unicode="&#x13f;" horiz-adv-x="509" 
d="M80 716h84v-635h314v-81h-398v716zM285.5 298.5c-12.333 12.333 -18.5 27.5 -18.5 45.5s6.16699 33.167 18.5 45.5s27.5 18.5 45.5 18.5c17.333 0 32.166 -6.16699 44.499 -18.5s18.5 -27.5 18.5 -45.5s-6.16699 -33.167 -18.5 -45.5s-27.166 -18.5 -44.499 -18.5
c-18 0 -33.167 6.16699 -45.5 18.5z" />
    <glyph glyph-name="Lslash" unicode="&#x141;" horiz-adv-x="582" 
d="M153 281l-65 -40l-39 62l104 65v348h85v-289l131 81l38 -63l-169 -105v-259h314v-81h-399v281z" />
    <glyph glyph-name="lslash" unicode="&#x142;" horiz-adv-x="369" 
d="M139 315l-59 -43l-44 58l103 76v310h84v-253l74 54l44 -59l-118 -86v-372h-84v315z" />
    <glyph glyph-name="Nacute" unicode="&#x143;" horiz-adv-x="708" 
d="M80 716h104l359 -570h4l-4 138v432h85v-716h-88l-376 597h-4l4 -138v-459h-84v716zM379 900h93l-71 -127h-74z" />
    <glyph glyph-name="nacute" unicode="&#x144;" horiz-adv-x="561" 
d="M63 510l81 0.000976562v-75h4c14 25.333 36.333 46.833 67 64.5s63.334 26.5 98.001 26.5c61.333 0 108.166 -17.833 140.499 -53.5s48.5 -84.167 48.5 -145.5v-327h-85v314c0 47.333 -11.333 81.666 -34 102.999s-53.667 32 -93 32
c-27.333 0 -51.833 -7.66699 -73.5 -23s-38.5 -35.5 -50.5 -60.5s-18 -51.167 -18 -78.5v-287h-85v510zM308 736.001h93l-71 -127h-74z" />
    <glyph glyph-name="Ncommaaccent" unicode="&#x145;" horiz-adv-x="708" 
d="M80 716h104l359 -570h4l-4 138v432h85v-716h-88l-376 597h-4l4 -138v-459h-84v716zM299 -212l40 56.998c-12 2.66699 -21.833 8.83398 -29.5 18.501s-11.5 20.834 -11.5 33.501c0 14 5.33301 26.667 16 38s24 17 40 17c16.667 0 30.167 -5.5 40.5 -16.5
s15.5 -24.833 15.5 -41.5c0 -12.667 -4 -27 -12 -43l-61 -89z" />
    <glyph glyph-name="ncommaaccent" unicode="&#x146;" horiz-adv-x="561" 
d="M63 510l81 0.000976562v-75h4c14 25.333 36.333 46.833 67 64.5s63.334 26.5 98.001 26.5c61.333 0 108.166 -17.833 140.499 -53.5s48.5 -84.167 48.5 -145.5v-327h-85v314c0 47.333 -11.333 81.666 -34 102.999s-53.667 32 -93 32
c-27.333 0 -51.833 -7.66699 -73.5 -23s-38.5 -35.5 -50.5 -60.5s-18 -51.167 -18 -78.5v-287h-85v510zM228 -211.999l40 56.998c-12 2.66699 -21.833 8.83398 -29.5 18.501s-11.5 20.834 -11.5 33.501c0 14 5.33301 26.667 16 38s24 17 40 17
c16.667 0 30.167 -5.5 40.5 -16.5s15.5 -24.833 15.5 -41.5c0 -12.667 -4 -27 -12 -43l-61 -89z" />
    <glyph glyph-name="Ncaron" unicode="&#x147;" horiz-adv-x="708" 
d="M80 716h104l359 -570h4l-4 138v432h85v-716h-88l-376 597h-4l4 -138v-459h-84v716zM225 895v5h82l53 -63h8l54 63h82v-5l-102 -116h-75z" />
    <glyph glyph-name="ncaron" unicode="&#x148;" horiz-adv-x="561" 
d="M63 510l81 0.000976562v-75h4c14 25.333 36.333 46.833 67 64.5s63.334 26.5 98.001 26.5c61.333 0 108.166 -17.833 140.499 -53.5s48.5 -84.167 48.5 -145.5v-327h-85v314c0 47.333 -11.333 81.666 -34 102.999s-53.667 32 -93 32
c-27.333 0 -51.833 -7.66699 -73.5 -23s-38.5 -35.5 -50.5 -60.5s-18 -51.167 -18 -78.5v-287h-85v510zM154 731.001v5h82l53 -64h8l54 64h82v-5l-102 -117h-75z" />
    <glyph glyph-name="Eng" unicode="&#x14a;" horiz-adv-x="708" 
d="M444 -220l0.000976562 81c12 -6.66699 25.333 -10 40 -10c20.667 0 35.667 6.5 45 19.5s14 32.167 14 57.5v75l-379 594h-4l4 -138v-459h-84v716h104l359 -570h4l-4 138v432h85v-788c0 -51.333 -12.333 -89.833 -37 -115.5s-59.334 -38.5 -104.001 -38.5
c-16 0 -30.333 2 -43 6z" />
    <glyph glyph-name="eng" unicode="&#x14b;" horiz-adv-x="561" 
d="M316 -219l0.00195312 81.001c5.33301 -3.33301 12.166 -6 20.499 -8s15.833 -3 22.5 -3c20.667 0 35.5 6.5 44.5 19.5s13.5 32.167 13.5 57.5v386c0 47.333 -11.333 81.666 -34 102.999s-53.667 32 -93 32c-27.333 0 -51.833 -7.66699 -73.5 -23s-38.5 -35.5 -50.5 -60.5
s-18 -51.167 -18 -78.5v-287h-85v510h81v-75h4c14 25.333 36.333 46.833 67 64.5s63.334 26.5 98.001 26.5c61.333 0 108.166 -17.833 140.499 -53.5s48.5 -84.167 48.5 -145.5v-399c0 -51.333 -12.333 -89.833 -37 -115.5s-59.334 -38.5 -104.001 -38.5
c-14.667 0 -29.667 2.33301 -45 7z" />
    <glyph glyph-name="Omacron" unicode="&#x14c;" horiz-adv-x="825" 
d="M225 34c-56 33.333 -100 78.5 -132 135.5s-48 119.833 -48 188.5c0 68 16 130.667 48 188s76 102.666 132 135.999s118.333 50 187 50s131 -16.667 187 -50s100.167 -78.666 132.5 -135.999s48.5 -120 48.5 -188c0 -68.667 -16 -131.5 -48 -188.5
s-76.167 -102.167 -132.5 -135.5s-118.833 -50 -187.5 -50s-131 16.667 -187 50zM553.5 102.5c43 25 77 59.667 102 104s37.5 94.833 37.5 151.5s-12.5 107.167 -37.5 151.5s-59 79 -102 104s-90.167 37.5 -141.5 37.5s-98.333 -12.5 -141 -37.5
s-76.667 -59.833 -102 -104.5s-38 -95 -38 -151s12.667 -106.333 38 -151s59.333 -79.5 102 -104.5s89.667 -37.5 141 -37.5s98.5 12.5 141.5 37.5zM274 876h277v-66h-277v66z" />
    <glyph glyph-name="omacron" unicode="&#x14d;" horiz-adv-x="596" 
d="M163 20c-40 24 -71.167 56.667 -93.5 98s-33.5 87 -33.5 137s11.167 95.667 33.5 137s53.5 74 93.5 98s85 36 135 36s95 -12 135 -36s71.167 -56.667 93.5 -98s33.5 -87 33.5 -137s-11.167 -95.667 -33.5 -137s-53.5 -74 -93.5 -98s-85 -36 -135 -36s-95 12 -135 36z
M385.5 84.5c27 15.667 48.667 38.167 65 67.5s24.5 63.666 24.5 102.999s-8.16699 73.666 -24.5 102.999s-38 51.833 -65 67.5s-56.167 23.5 -87.5 23.5s-60.666 -7.83301 -87.999 -23.5s-49.166 -38.167 -65.499 -67.5s-24.5 -63.666 -24.5 -102.999
s8.16699 -73.666 24.5 -102.999s38.166 -51.833 65.499 -67.5s56.666 -23.5 87.999 -23.5s60.5 7.83301 87.5 23.5zM160 712h277v-67h-277v67z" />
    <glyph glyph-name="Obreve" unicode="&#x14e;" horiz-adv-x="825" 
d="M225 34c-56 33.333 -100 78.5 -132 135.5s-48 119.833 -48 188.5c0 68 16 130.667 48 188s76 102.666 132 135.999s118.333 50 187 50s131 -16.667 187 -50s100.167 -78.666 132.5 -135.999s48.5 -120 48.5 -188c0 -68.667 -16 -131.5 -48 -188.5
s-76.167 -102.167 -132.5 -135.5s-118.833 -50 -187.5 -50s-131 16.667 -187 50zM553.5 102.5c43 25 77 59.667 102 104s37.5 94.833 37.5 151.5s-12.5 107.167 -37.5 151.5s-59 79 -102 104s-90.167 37.5 -141.5 37.5s-98.333 -12.5 -141 -37.5
s-76.667 -59.833 -102 -104.5s-38 -95 -38 -151s12.667 -106.333 38 -151s59.333 -79.5 102 -104.5s89.667 -37.5 141 -37.5s98.5 12.5 141.5 37.5zM350.5 788.5c-19.667 11 -35.502 26 -47.502 45s-18 39.833 -18 62.5h69c0 -16.667 5.33301 -30.834 16 -42.501
s25 -17.5 43 -17.5c16.667 0 30.334 5.83301 41.001 17.5s16 25.834 16 42.501h68c0 -22.667 -5.83301 -43.5 -17.5 -62.5s-27.167 -34 -46.5 -45s-39.666 -16.5 -60.999 -16.5c-22 0 -42.833 5.5 -62.5 16.5z" />
    <glyph glyph-name="obreve" unicode="&#x14f;" horiz-adv-x="596" 
d="M163 20c-40 24 -71.167 56.667 -93.5 98s-33.5 87 -33.5 137s11.167 95.667 33.5 137s53.5 74 93.5 98s85 36 135 36s95 -12 135 -36s71.167 -56.667 93.5 -98s33.5 -87 33.5 -137s-11.167 -95.667 -33.5 -137s-53.5 -74 -93.5 -98s-85 -36 -135 -36s-95 12 -135 36z
M385.5 84.5c27 15.667 48.667 38.167 65 67.5s24.5 63.666 24.5 102.999s-8.16699 73.666 -24.5 102.999s-38 51.833 -65 67.5s-56.167 23.5 -87.5 23.5s-60.666 -7.83301 -87.999 -23.5s-49.166 -38.167 -65.499 -67.5s-24.5 -63.666 -24.5 -102.999
s8.16699 -73.666 24.5 -102.999s38.166 -51.833 65.499 -67.5s56.666 -23.5 87.999 -23.5s60.5 7.83301 87.5 23.5zM236.5 623.5c-19.667 11 -35.502 26 -47.502 45s-18 40.167 -18 63.5h69c0 -16.667 5.33301 -31 16 -43s25 -18 43 -18c16.667 0 30.334 6 41.001 18
s16 26.333 16 43h68c0 -23.333 -5.83301 -44.5 -17.5 -63.5s-27.167 -34 -46.5 -45s-39.666 -16.5 -60.999 -16.5c-22 0 -42.833 5.5 -62.5 16.5z" />
    <glyph glyph-name="Ohungarumlaut" unicode="&#x150;" horiz-adv-x="825" 
d="M225 34c-56 33.333 -100 78.5 -132 135.5s-48 119.833 -48 188.5c0 68 16 130.667 48 188s76 102.666 132 135.999s118.333 50 187 50s131 -16.667 187 -50s100.167 -78.666 132.5 -135.999s48.5 -120 48.5 -188c0 -68.667 -16 -131.5 -48 -188.5
s-76.167 -102.167 -132.5 -135.5s-118.833 -50 -187.5 -50s-131 16.667 -187 50zM553.5 102.5c43 25 77 59.667 102 104s37.5 94.833 37.5 151.5s-12.5 107.167 -37.5 151.5s-59 79 -102 104s-90.167 37.5 -141.5 37.5s-98.333 -12.5 -141 -37.5
s-76.667 -59.833 -102 -104.5s-38 -95 -38 -151s12.667 -106.333 38 -151s59.333 -79.5 102 -104.5s89.667 -37.5 141 -37.5s98.5 12.5 141.5 37.5zM364 900h93l-71 -127h-74zM491 900h93l-71 -127h-74z" />
    <glyph glyph-name="ohungarumlaut" unicode="&#x151;" horiz-adv-x="596" 
d="M163 20c-40 24 -71.167 56.667 -93.5 98s-33.5 87 -33.5 137s11.167 95.667 33.5 137s53.5 74 93.5 98s85 36 135 36s95 -12 135 -36s71.167 -56.667 93.5 -98s33.5 -87 33.5 -137s-11.167 -95.667 -33.5 -137s-53.5 -74 -93.5 -98s-85 -36 -135 -36s-95 12 -135 36z
M385.5 84.5c27 15.667 48.667 38.167 65 67.5s24.5 63.666 24.5 102.999s-8.16699 73.666 -24.5 102.999s-38 51.833 -65 67.5s-56.167 23.5 -87.5 23.5s-60.666 -7.83301 -87.999 -23.5s-49.166 -38.167 -65.499 -67.5s-24.5 -63.666 -24.5 -102.999
s8.16699 -73.666 24.5 -102.999s38.166 -51.833 65.499 -67.5s56.666 -23.5 87.999 -23.5s60.5 7.83301 87.5 23.5zM234 736h93l-71 -127h-74zM393 736h93l-71 -127h-74z" />
    <glyph glyph-name="OE" unicode="&#x152;" horiz-adv-x="1164" 
d="M225 34c-56 33.333 -100 78.5 -132 135.5s-48 119.833 -48 188.5c0 68 16 130.667 48 188s76 102.666 132 135.999s118.333 50 187 50c59.333 0 113.166 -12.167 161.499 -36.5s88.166 -58.166 119.499 -101.499v122h415v-81h-330v-237h298v-80h-298v-237h330v-81h-415
v121c-31.333 -42.667 -71.166 -76.167 -119.499 -100.5s-102.166 -36.5 -161.499 -36.5c-68.667 0 -131 16.667 -187 50zM553.5 102.5c43 25 77 59.667 102 104s37.5 94.833 37.5 151.5s-12.5 107.167 -37.5 151.5s-59 79 -102 104s-90.167 37.5 -141.5 37.5
s-98.333 -12.5 -141 -37.5s-76.667 -59.833 -102 -104.5s-38 -95 -38 -151s12.667 -106.333 38 -151s59.333 -79.5 102 -104.5s89.667 -37.5 141 -37.5s98.5 12.5 141.5 37.5z" />
    <glyph glyph-name="oe" unicode="&#x153;" horiz-adv-x="1003" 
d="M163 20c-40 24 -71.1689 56.667 -93.502 98s-33.5 87 -33.5 137s11.167 95.667 33.5 137s53.5 74 93.5 98s85 36 135 36c47.333 0 90 -11.167 128 -33.5s68 -53.166 90 -92.499c20.667 39.333 49 70.166 85 92.499s76.667 33.5 122 33.5c50 0 93.333 -11.167 130 -33.5
s64.834 -53.166 84.501 -92.499s29.5 -84.333 29.5 -135c0 -8 -0.666992 -16.667 -2 -26h-404c2 -38.667 11.333 -71.334 28 -98.001s37.834 -46.667 63.501 -60s52.5 -20 80.5 -20c66.667 0 117 30.667 151 92l72 -35c-21.333 -40.667 -51 -73.167 -89 -97.5
s-83.667 -36.5 -137 -36.5c-47.333 0 -89.333 11 -126 33s-66 53 -88 93c-22 -40 -52 -71 -90 -93s-80.667 -33 -128 -33c-50 0 -95 12 -135 36zM385.498 84.5c27 15.667 48.667 38.167 65 67.5s24.5 63.666 24.5 102.999s-8.16699 73.666 -24.5 102.999
s-38 51.833 -65 67.5s-56.167 23.5 -87.5 23.5s-60.666 -7.83301 -87.999 -23.5s-49.166 -38.167 -65.499 -67.5s-24.5 -63.666 -24.5 -102.999s8.16699 -73.666 24.5 -102.999s38.166 -51.833 65.499 -67.5s56.666 -23.5 87.999 -23.5s60.5 7.83301 87.5 23.5zM876.998 309
c-1.33301 21.333 -7.33105 42.667 -17.998 64s-27.334 39.333 -50.001 54s-51.334 22 -86.001 22c-40 0 -74 -12.833 -102 -38.5s-46.333 -59.5 -55 -101.5h311z" />
    <glyph glyph-name="Racute" unicode="&#x154;" horiz-adv-x="586" 
d="M80 716h242c39.333 0 76 -9 110 -27s61.167 -43.167 81.5 -75.5s30.5 -68.833 30.5 -109.5c0 -33.333 -7.5 -64.333 -22.5 -93s-35.667 -52.667 -62 -72s-55.5 -32.333 -87.5 -39l-2 -3l202 -293v-4h-100l-195 292h-113v-292h-84v716zM317 371
c24.667 0 47.832 5.66895 69.499 17.002s39 27.166 52 47.499s19.5 43.166 19.5 68.499c0 22 -5.66699 43 -17 63s-27.166 36.333 -47.499 49s-43.833 19 -70.5 19h-159v-264h153zM294.998 900.002h93l-71 -127h-74z" />
    <glyph glyph-name="racute" unicode="&#x155;" horiz-adv-x="375" 
d="M63 510h81.001v-82h4c10 28 29.333 51.167 58 69.5s58.667 27.5 90 27.5c23.333 0 43.333 -3.33301 60 -10v-92c-21.333 10.667 -45.333 16 -72 16c-24.667 0 -47.334 -7 -68.001 -21s-37.167 -32.833 -49.5 -56.5s-18.5 -49.167 -18.5 -76.5v-285h-85v510zM219.001 736
h93l-71 -127h-74z" />
    <glyph glyph-name="Rcommaaccent" unicode="&#x156;" horiz-adv-x="586" 
d="M80 716h242c39.333 0 76 -9 110 -27s61.167 -43.167 81.5 -75.5s30.5 -68.833 30.5 -109.5c0 -33.333 -7.5 -64.333 -22.5 -93s-35.667 -52.667 -62 -72s-55.5 -32.333 -87.5 -39l-2 -3l202 -293v-4h-100l-195 292h-113v-292h-84v716zM317 371
c24.667 0 47.832 5.66895 69.499 17.002s39 27.166 52 47.499s19.5 43.166 19.5 68.499c0 22 -5.66699 43 -17 63s-27.166 36.333 -47.499 49s-43.833 19 -70.5 19h-159v-264h153zM237.998 -211.998l40 56.998c-12 2.66699 -21.833 8.83398 -29.5 18.501
s-11.5 20.834 -11.5 33.501c0 14 5.33301 26.667 16 38s24 17 40 17c16.667 0 30.167 -5.5 40.5 -16.5s15.5 -24.833 15.5 -41.5c0 -12.667 -4 -27 -12 -43l-61 -89z" />
    <glyph glyph-name="rcommaaccent" unicode="&#x157;" horiz-adv-x="375" 
d="M63 510h81.001v-82h4c10 28 29.333 51.167 58 69.5s58.667 27.5 90 27.5c23.333 0 43.333 -3.33301 60 -10v-92c-21.333 10.667 -45.333 16 -72 16c-24.667 0 -47.334 -7 -68.001 -21s-37.167 -32.833 -49.5 -56.5s-18.5 -49.167 -18.5 -76.5v-285h-85v510zM50.001 -212
l40 56.998c-12 2.66699 -21.833 8.83398 -29.5 18.501s-11.5 20.834 -11.5 33.501c0 14 5.33301 26.667 16 38s24 17 40 17c16.667 0 30.167 -5.5 40.5 -16.5s15.5 -24.833 15.5 -41.5c0 -12.667 -4 -27 -12 -43l-61 -89z" />
    <glyph glyph-name="Rcaron" unicode="&#x158;" horiz-adv-x="586" 
d="M80 716h242c39.333 0 76 -9 110 -27s61.167 -43.167 81.5 -75.5s30.5 -68.833 30.5 -109.5c0 -33.333 -7.5 -64.333 -22.5 -93s-35.667 -52.667 -62 -72s-55.5 -32.333 -87.5 -39l-2 -3l202 -293v-4h-100l-195 292h-113v-292h-84v716zM317 371
c24.667 0 47.832 5.66895 69.499 17.002s39 27.166 52 47.499s19.5 43.166 19.5 68.499c0 22 -5.66699 43 -17 63s-27.166 36.333 -47.499 49s-43.833 19 -70.5 19h-159v-264h153zM140.998 895.002v5h82l53 -63h8l54 63h82v-5l-102 -116h-75z" />
    <glyph glyph-name="rcaron" unicode="&#x159;" horiz-adv-x="375" 
d="M63 510h81.001v-82h4c10 28 29.333 51.167 58 69.5s58.667 27.5 90 27.5c23.333 0 43.333 -3.33301 60 -10v-92c-21.333 10.667 -45.333 16 -72 16c-24.667 0 -47.334 -7 -68.001 -21s-37.167 -32.833 -49.5 -56.5s-18.5 -49.167 -18.5 -76.5v-285h-85v510zM65.001 731v5
h82l53 -64h8l54 64h82v-5l-102 -117h-75z" />
    <glyph glyph-name="Sacute" unicode="&#x15a;" horiz-adv-x="561" 
d="M126 35c-46.667 34 -78.6641 81.666 -95.9971 142.999l81 33c11.333 -42.667 32.333 -77.667 63 -105s66.667 -41 108 -41s76.333 11.167 105 33.5s43 52.833 43 91.5c0 33.333 -12.167 60.833 -36.5 82.5s-64.166 41.834 -119.499 60.501l-45 16
c-50.667 18 -92 41.667 -124 71s-48 70 -48 122c0 34 9.33301 65.5 28 94.5s44.667 52.167 78 69.5s70.666 26 111.999 26s77.333 -7.66699 108 -23s55.167 -34 73.5 -56s31.166 -43.667 38.499 -65l-80 -34c-6.66699 24.667 -21.834 47 -45.501 67s-54.834 30 -93.501 30
c-36.667 0 -68 -10.333 -94 -31s-39 -46.667 -39 -78c0 -28 11 -50.833 33 -68.5s55.333 -34.167 100 -49.5l47 -16c60.667 -22 108 -49.5 142 -82.5s51 -77.833 51 -134.5c0 -46 -11.833 -84.667 -35.5 -116s-53.5 -54.333 -89.5 -69s-73 -22 -111 -22
c-56 0 -107.333 17 -154 51zM290.003 899.999h93l-71 -127h-74z" />
    <glyph glyph-name="sacute" unicode="&#x15b;" horiz-adv-x="473" 
d="M104 22.5c-36.667 25.667 -62.666 58.5039 -77.999 98.5039l76 34c12.667 -30.667 31.5 -54.334 56.5 -71.001s52.5 -25 82.5 -25c32 0 59.333 6.5 82 19.5s34 31.5 34 55.5c0 21.333 -9 38.5 -27 51.5s-46.333 24.167 -85 33.5l-62 16c-40.667 10 -74 27 -100 51
s-39 55 -39 93c0 29.333 8.83301 55.166 26.5 77.499s41.167 39.5 70.5 51.5s61 18 95 18c44.667 0 84.5 -9.66699 119.5 -29s59.833 -46.333 74.5 -81l-74 -34c-22.667 45.333 -63 68 -121 68c-28 0 -52.5 -6.5 -73.5 -19.5s-31.5 -29.5 -31.5 -49.5
c0 -18.667 7.33301 -33.834 22 -45.501s36.667 -21.167 66 -28.5l74 -19c50 -12.667 87.667 -31.5 113 -56.5s38 -55.5 38 -91.5c0 -31.333 -9 -58.833 -27 -82.5s-42.333 -41.834 -73 -54.501s-64.667 -19 -102 -19c-54.667 0 -100.334 12.833 -137.001 38.5z
M251.001 736.004h93l-71 -127h-74z" />
    <glyph glyph-name="Scircumflex" unicode="&#x15c;" horiz-adv-x="561" 
d="M126 35c-46.667 34 -78.6641 81.666 -95.9971 142.999l81 33c11.333 -42.667 32.333 -77.667 63 -105s66.667 -41 108 -41s76.333 11.167 105 33.5s43 52.833 43 91.5c0 33.333 -12.167 60.833 -36.5 82.5s-64.166 41.834 -119.499 60.501l-45 16
c-50.667 18 -92 41.667 -124 71s-48 70 -48 122c0 34 9.33301 65.5 28 94.5s44.667 52.167 78 69.5s70.666 26 111.999 26s77.333 -7.66699 108 -23s55.167 -34 73.5 -56s31.166 -43.667 38.499 -65l-80 -34c-6.66699 24.667 -21.834 47 -45.501 67s-54.834 30 -93.501 30
c-36.667 0 -68 -10.333 -94 -31s-39 -46.667 -39 -78c0 -28 11 -50.833 33 -68.5s55.333 -34.167 100 -49.5l47 -16c60.667 -22 108 -49.5 142 -82.5s51 -77.833 51 -134.5c0 -46 -11.833 -84.667 -35.5 -116s-53.5 -54.333 -89.5 -69s-73 -22 -111 -22
c-56 0 -107.333 17 -154 51zM136.003 783.999l102 116h75l102 -116v-5h-82l-54 63h-8l-53 -63h-82v5z" />
    <glyph glyph-name="scircumflex" unicode="&#x15d;" horiz-adv-x="473" 
d="M104 22.5c-36.667 25.667 -62.666 58.5039 -77.999 98.5039l76 34c12.667 -30.667 31.5 -54.334 56.5 -71.001s52.5 -25 82.5 -25c32 0 59.333 6.5 82 19.5s34 31.5 34 55.5c0 21.333 -9 38.5 -27 51.5s-46.333 24.167 -85 33.5l-62 16c-40.667 10 -74 27 -100 51
s-39 55 -39 93c0 29.333 8.83301 55.166 26.5 77.499s41.167 39.5 70.5 51.5s61 18 95 18c44.667 0 84.5 -9.66699 119.5 -29s59.833 -46.333 74.5 -81l-74 -34c-22.667 45.333 -63 68 -121 68c-28 0 -52.5 -6.5 -73.5 -19.5s-31.5 -29.5 -31.5 -49.5
c0 -18.667 7.33301 -33.834 22 -45.501s36.667 -21.167 66 -28.5l74 -19c50 -12.667 87.667 -31.5 113 -56.5s38 -55.5 38 -91.5c0 -31.333 -9 -58.833 -27 -82.5s-42.333 -41.834 -73 -54.501s-64.667 -19 -102 -19c-54.667 0 -100.334 12.833 -137.001 38.5z
M97.001 619.004l102 117h75l102 -117v-5h-82l-54 64h-8l-53 -64h-82v5z" />
    <glyph glyph-name="Scedilla" unicode="&#x15e;" horiz-adv-x="561" 
d="M483 78.5c-22 -30.333 -49.9971 -53.168 -83.9971 -68.501s-69.333 -24 -106 -26l-15 -33c12 2 19.667 3 23 3c25.333 0 46.833 -9 64.5 -27s26.5 -40.667 26.5 -68c0 -26.667 -9.66699 -49.334 -29 -68.001s-43.333 -28 -72 -28c-21.333 0 -40.5 6.33301 -57.5 19
s-29.167 28.667 -36.5 48l50 22c3.33301 -10 8.83301 -18.5 16.5 -25.5s16.834 -10.5 27.501 -10.5c13.333 0 24 4.16699 32 12.5s12 18.5 12 30.5c0 12.667 -4 23.334 -12 32.001s-18.667 13 -32 13c-14 0 -25.667 -5.66699 -35 -17l-44 20l30 80
c-48.667 7.33301 -92.334 27.5 -131.001 60.5s-65.667 76.5 -81 130.5l81 33c11.333 -42.667 32.333 -77.667 63 -105s66.667 -41 108 -41s76.333 11.167 105 33.5s43 52.833 43 91.5c0 33.333 -12.167 60.833 -36.5 82.5s-64.166 41.834 -119.499 60.501l-45 16
c-50.667 18 -92 41.667 -124 71s-48 70 -48 122c0 34 9.33301 65.5 28 94.5s44.667 52.167 78 69.5s70.666 26 111.999 26s77.333 -7.66699 108 -23s55.167 -34 73.5 -56s31.166 -43.667 38.499 -65l-80 -34c-6.66699 24.667 -21.834 47 -45.501 67s-54.834 30 -93.501 30
c-36.667 0 -68 -10.333 -94 -31s-39 -46.667 -39 -78c0 -28 11 -50.833 33 -68.5s55.333 -34.167 100 -49.5l47 -16c60.667 -22 108 -49.5 142 -82.5s51 -77.833 51 -134.5c0 -44.667 -11 -82.167 -33 -112.5z" />
    <glyph glyph-name="scedilla" unicode="&#x15f;" horiz-adv-x="473" 
d="M392 32c-34 -28 -77.333 -43.6641 -130 -46.9971l-15 -34c12 2 19.667 3 23 3c25.333 0 46.833 -9 64.5 -27s26.5 -40.667 26.5 -68c0 -26.667 -9.66699 -49.334 -29 -68.001s-43.333 -28 -72 -28c-21.333 0 -40.5 6.33301 -57.5 19s-29.167 28.667 -36.5 48l50 22
c3.33301 -10 8.83301 -18.5 16.5 -25.5s16.834 -10.5 27.501 -10.5c13.333 0 24 4.16699 32 12.5s12 18.5 12 30.5c0 12.667 -4 23.334 -12 32.001s-18.667 13 -32 13c-14 0 -25.667 -5.66699 -35 -17l-44 20l30 79c-46.667 4 -85.834 18.5 -117.501 43.5
s-54.167 55.5 -67.5 91.5l76 34c12.667 -30.667 31.5 -54.334 56.5 -71.001s52.5 -25 82.5 -25c32 0 59.333 6.5 82 19.5s34 31.5 34 55.5c0 21.333 -9 38.5 -27 51.5s-46.333 24.167 -85 33.5l-62 16c-40.667 10 -74 27 -100 51s-39 55 -39 93
c0 29.333 8.83301 55.166 26.5 77.499s41.167 39.5 70.5 51.5s61 18 95 18c44.667 0 84.5 -9.66699 119.5 -29s59.833 -46.333 74.5 -81l-74 -34c-22.667 45.333 -63 68 -121 68c-28 0 -52.5 -6.5 -73.5 -19.5s-31.5 -29.5 -31.5 -49.5
c0 -18.667 7.33301 -33.834 22 -45.501s36.667 -21.167 66 -28.5l74 -19c50 -12.667 87.667 -31.5 113 -56.5s38 -55.5 38 -91.5c0 -44 -17 -80 -51 -108z" />
    <glyph glyph-name="Scaron" unicode="&#x160;" horiz-adv-x="561" 
d="M126 35c-46.667 34 -78.6641 81.666 -95.9971 142.999l81 33c11.333 -42.667 32.333 -77.667 63 -105s66.667 -41 108 -41s76.333 11.167 105 33.5s43 52.833 43 91.5c0 33.333 -12.167 60.833 -36.5 82.5s-64.166 41.834 -119.499 60.501l-45 16
c-50.667 18 -92 41.667 -124 71s-48 70 -48 122c0 34 9.33301 65.5 28 94.5s44.667 52.167 78 69.5s70.666 26 111.999 26s77.333 -7.66699 108 -23s55.167 -34 73.5 -56s31.166 -43.667 38.499 -65l-80 -34c-6.66699 24.667 -21.834 47 -45.501 67s-54.834 30 -93.501 30
c-36.667 0 -68 -10.333 -94 -31s-39 -46.667 -39 -78c0 -28 11 -50.833 33 -68.5s55.333 -34.167 100 -49.5l47 -16c60.667 -22 108 -49.5 142 -82.5s51 -77.833 51 -134.5c0 -46 -11.833 -84.667 -35.5 -116s-53.5 -54.333 -89.5 -69s-73 -22 -111 -22
c-56 0 -107.333 17 -154 51zM136.003 894.999v5h82l53 -63h8l54 63h82v-5l-102 -116h-75z" />
    <glyph glyph-name="scaron" unicode="&#x161;" horiz-adv-x="473" 
d="M104 22.5c-36.667 25.667 -62.666 58.5039 -77.999 98.5039l76 34c12.667 -30.667 31.5 -54.334 56.5 -71.001s52.5 -25 82.5 -25c32 0 59.333 6.5 82 19.5s34 31.5 34 55.5c0 21.333 -9 38.5 -27 51.5s-46.333 24.167 -85 33.5l-62 16c-40.667 10 -74 27 -100 51
s-39 55 -39 93c0 29.333 8.83301 55.166 26.5 77.499s41.167 39.5 70.5 51.5s61 18 95 18c44.667 0 84.5 -9.66699 119.5 -29s59.833 -46.333 74.5 -81l-74 -34c-22.667 45.333 -63 68 -121 68c-28 0 -52.5 -6.5 -73.5 -19.5s-31.5 -29.5 -31.5 -49.5
c0 -18.667 7.33301 -33.834 22 -45.501s36.667 -21.167 66 -28.5l74 -19c50 -12.667 87.667 -31.5 113 -56.5s38 -55.5 38 -91.5c0 -31.333 -9 -58.833 -27 -82.5s-42.333 -41.834 -73 -54.501s-64.667 -19 -102 -19c-54.667 0 -100.334 12.833 -137.001 38.5z
M97.001 731.004v5h82l53 -64h8l54 64h82v-5l-102 -117h-75z" />
    <glyph glyph-name="Tcommaaccent" unicode="&#x162;" horiz-adv-x="539" 
d="M227.5 -218c-17 12.667 -29.1689 28.668 -36.502 48.001l49 22c4 -10 9.83301 -18.5 17.5 -25.5s16.834 -10.5 27.501 -10.5c12.667 0 23.167 4.16699 31.5 12.5s12.5 18.5 12.5 30.5s-4.16699 22.5 -12.5 31.5s-18.833 13.5 -31.5 13.5c-14 0 -25.667 -5.66699 -35 -17
l-44 20l34 93h-13v635h-201v81h486v-81h-200v-635h-18l-22 -49c10 2 17.667 3 23 3c24.667 0 45.834 -9 63.501 -27s26.5 -40.667 26.5 -68c0 -26.667 -9.5 -49.334 -28.5 -68.001s-42.833 -28 -71.5 -28c-21.333 0 -40.5 6.33301 -57.5 19z" />
    <glyph glyph-name="tcommaaccent" unicode="&#x163;" horiz-adv-x="366" 
d="M233 -6l-21.002 -43.001c12 2 19.667 3 23 3c24.667 0 45.834 -9 63.501 -27s26.5 -40.667 26.5 -68c0 -26.667 -9.5 -49.334 -28.5 -68.001s-42.833 -28 -71.5 -28c-21.333 0 -40.5 6.33301 -57.5 19s-29.167 28.667 -36.5 48l50 22
c3.33301 -10 8.83301 -18.667 16.5 -26s16.834 -11 27.501 -11c13.333 0 24 4.33301 32 13s12 19 12 31c0 12.667 -4 23.334 -12 32.001s-18.667 13 -32 13c-14 0 -25.667 -5.66699 -35 -17l-44 20l42 101c-11.333 5.33301 -21.666 12.333 -30.999 21
c-13.333 12.667 -23.333 27.334 -30 44.001s-10 37 -10 61v299h-89v77h89v144h85v-144h124v-77h-124v-278c0 -28 5.33301 -48.667 16 -62c12.667 -14.667 31 -22 55 -22c19.333 0 38 5.66699 56 17v-83c-10 -4.66699 -20.167 -8 -30.5 -10s-23.5 -3 -39.5 -3
c-6.66699 0 -15.334 0.666992 -26.001 2z" />
    <glyph glyph-name="Tcaron" unicode="&#x164;" horiz-adv-x="539" 
d="M227 635h-201v81h486v-81h-200v-635h-85v635zM130 895v5h82l53 -63h8l54 63h82v-5l-102 -116h-75z" />
    <glyph glyph-name="tcaron" unicode="&#x165;" horiz-adv-x="359" 
d="M267 716h85l-24 -142h-61v142zM201.5 2c-17.667 6.66699 -32.499 15.666 -44.499 26.999c-13.333 12.667 -23.333 27.334 -30 44.001s-10 37 -10 61v299h-89v77h89v144h85v-144h124v-77h-124v-278c0 -28 5.33301 -48.667 16 -62c12.667 -14.667 31 -22 55 -22
c19.333 0 38 5.66699 56 17v-83c-10 -4.66699 -20.167 -8 -30.5 -10s-23.5 -3 -39.5 -3c-20.667 0 -39.834 3.33301 -57.501 10z" />
    <glyph glyph-name="Tbar" unicode="&#x166;" horiz-adv-x="539" 
d="M312 635v-228h130v-66h-130v-341h-85v341h-130v66h130v228h-201v81h486v-81h-200z" />
    <glyph glyph-name="tbar" unicode="&#x167;" horiz-adv-x="366" 
d="M329 88l0.000976562 -83.001c-10 -4.66699 -20.167 -8 -30.5 -10s-23.5 -3 -39.5 -3c-20.667 0 -39.834 3.33301 -57.501 10s-32.5 15.667 -44.5 27c-13.333 12.667 -23.333 27.334 -30 44.001s-10 37 -10 61v100h-89v77h89v122h-89v77h89v144h85v-144h124v-77h-124v-122
h124v-77h-124v-79c0 -28 5.33301 -48.667 16 -62c12.667 -14.667 31 -22 55 -22c19.333 0 38 5.66699 56 17z" />
    <glyph glyph-name="Utilde" unicode="&#x168;" horiz-adv-x="652" 
d="M193 19.5c-40 23.667 -71 56.668 -93 99.001s-33 91.166 -33 146.499v451h85v-455c0 -58 15.333 -105.167 46 -141.5s74.667 -54.5 132 -54.5s101.5 18.167 132.5 54.5s46.5 83.5 46.5 141.5v455h84v-451c0 -55.333 -10.5 -104.333 -31.5 -147s-51.333 -75.667 -91 -99
s-86.5 -35 -140.5 -35c-51.333 0 -97 11.833 -137 35.5zM352.5 787.501c-11.667 5 -25.8379 12.168 -42.5049 21.501c-19.333 12 -32.666 18 -39.999 18c-22 0 -34 -12.333 -36 -37h-70c0 25.333 5.33301 46.5 16 63.5s24.334 29.667 41.001 38s33.334 12.5 50.001 12.5
c20.667 0 47.334 -10 80.001 -30c20 -11.333 33 -17 39 -17c22 0 34 12.333 36 37h70c0 -36.667 -11.167 -64.834 -33.5 -84.501s-47.166 -29.5 -74.499 -29.5c-12 0 -23.833 2.5 -35.5 7.5z" />
    <glyph glyph-name="utilde" unicode="&#x169;" horiz-adv-x="561" 
d="M107.5 38c-32.333 36 -48.499 86.333 -48.499 151v321h85v-308c0 -48.667 11 -84.334 33 -107.001s51.667 -34 89 -34c28.667 0 54.167 7.66699 76.5 23s39.666 35.333 51.999 60s18.5 50.667 18.5 78v288h85v-510h-81v74h-4c-14 -25.333 -36.333 -46.666 -67 -63.999
s-63.334 -26 -98.001 -26c-61.333 0 -108.166 18 -140.499 54zM300.501 623.5c-11.667 5 -25.835 12.167 -42.502 21.5c-19.333 12 -32.666 18 -39.999 18c-22 0 -34 -12.333 -36 -37h-70c0 36.667 11 64.667 33 84s46.667 29 74 29c20.667 0 47.334 -10 80.001 -30
c20 -11.333 33 -17 39 -17c22 0 34 12.333 36 37h70c0 -36.667 -11 -64.667 -33 -84s-47 -29 -75 -29c-12 0 -23.833 2.5 -35.5 7.5z" />
    <glyph glyph-name="Umacron" unicode="&#x16a;" horiz-adv-x="652" 
d="M193 19.5c-40 23.667 -71 56.668 -93 99.001s-33 91.166 -33 146.499v451h85v-455c0 -58 15.333 -105.167 46 -141.5s74.667 -54.5 132 -54.5s101.5 18.167 132.5 54.5s46.5 83.5 46.5 141.5v455h84v-451c0 -55.333 -10.5 -104.333 -31.5 -147s-51.333 -75.667 -91 -99
s-86.5 -35 -140.5 -35c-51.333 0 -97 11.833 -137 35.5zM192 876.001h277v-66h-277v66z" />
    <glyph glyph-name="umacron" unicode="&#x16b;" horiz-adv-x="561" 
d="M107.5 38c-32.333 36 -48.499 86.333 -48.499 151v321h85v-308c0 -48.667 11 -84.334 33 -107.001s51.667 -34 89 -34c28.667 0 54.167 7.66699 76.5 23s39.666 35.333 51.999 60s18.5 50.667 18.5 78v288h85v-510h-81v74h-4c-14 -25.333 -36.333 -46.666 -67 -63.999
s-63.334 -26 -98.001 -26c-61.333 0 -108.166 18 -140.499 54zM140.001 712h277v-67h-277v67z" />
    <glyph glyph-name="Ubreve" unicode="&#x16c;" horiz-adv-x="652" 
d="M193 19.5c-40 23.667 -71 56.668 -93 99.001s-33 91.166 -33 146.499v451h85v-455c0 -58 15.333 -105.167 46 -141.5s74.667 -54.5 132 -54.5s101.5 18.167 132.5 54.5s46.5 83.5 46.5 141.5v455h84v-451c0 -55.333 -10.5 -104.333 -31.5 -147s-51.333 -75.667 -91 -99
s-86.5 -35 -140.5 -35c-51.333 0 -97 11.833 -137 35.5zM268.5 788.501c-19.667 11 -35.502 26 -47.502 45s-18 39.833 -18 62.5h69c0 -16.667 5.33301 -30.834 16 -42.501s25 -17.5 43 -17.5c16.667 0 30.334 5.83301 41.001 17.5s16 25.834 16 42.501h68
c0 -22.667 -5.83301 -43.5 -17.5 -62.5s-27.167 -34 -46.5 -45s-39.666 -16.5 -60.999 -16.5c-22 0 -42.833 5.5 -62.5 16.5z" />
    <glyph glyph-name="ubreve" unicode="&#x16d;" horiz-adv-x="561" 
d="M107.5 38c-32.333 36 -48.499 86.333 -48.499 151v321h85v-308c0 -48.667 11 -84.334 33 -107.001s51.667 -34 89 -34c28.667 0 54.167 7.66699 76.5 23s39.666 35.333 51.999 60s18.5 50.667 18.5 78v288h85v-510h-81v74h-4c-14 -25.333 -36.333 -46.666 -67 -63.999
s-63.334 -26 -98.001 -26c-61.333 0 -108.166 18 -140.499 54zM216.501 623.5c-19.667 11 -35.502 26 -47.502 45s-18 40.167 -18 63.5h69c0 -16.667 5.33301 -31 16 -43s25 -18 43 -18c16.667 0 30.334 6 41.001 18s16 26.333 16 43h68
c0 -23.333 -5.83301 -44.5 -17.5 -63.5s-27.167 -34 -46.5 -45s-39.666 -16.5 -60.999 -16.5c-22 0 -42.833 5.5 -62.5 16.5z" />
    <glyph glyph-name="Uring" unicode="&#x16e;" horiz-adv-x="652" 
d="M193 19.5c-40 23.667 -71 56.668 -93 99.001s-33 91.166 -33 146.499v451h85v-455c0 -58 15.333 -105.167 46 -141.5s74.667 -54.5 132 -54.5s101.5 18.167 132.5 54.5s46.5 83.5 46.5 141.5v455h84v-451c0 -55.333 -10.5 -104.333 -31.5 -147s-51.333 -75.667 -91 -99
s-86.5 -35 -140.5 -35c-51.333 0 -97 11.833 -137 35.5zM257 783.001c-20 20 -30 44.333 -30 73c0 29.333 9.83301 53.833 29.5 73.5s44.167 29.5 73.5 29.5c28.667 0 53.167 -10 73.5 -30s30.5 -44.333 30.5 -73s-10.167 -53 -30.5 -73s-44.833 -30 -73.5 -30
s-53 10 -73 30zM363 822.001c9.33301 9.33301 14 20.668 14 34.001s-4.66699 24.5 -14 33.5s-20.333 13.5 -33 13.5s-23.667 -4.66699 -33 -14s-14 -20.333 -14 -33s4.66699 -23.834 14 -33.501s20.333 -14.5 33 -14.5s23.667 4.66699 33 14z" />
    <glyph glyph-name="uring" unicode="&#x16f;" horiz-adv-x="561" 
d="M107.5 38c-32.333 36 -48.499 86.333 -48.499 151v321h85v-308c0 -48.667 11 -84.334 33 -107.001s51.667 -34 89 -34c28.667 0 54.167 7.66699 76.5 23s39.666 35.333 51.999 60s18.5 50.667 18.5 78v288h85v-510h-81v74h-4c-14 -25.333 -36.333 -46.666 -67 -63.999
s-63.334 -26 -98.001 -26c-61.333 0 -108.166 18 -140.499 54zM205.001 618.5c-20 20.333 -30 44.833 -30 73.5s10 53 30 73s44.333 30 73 30s53.167 -10 73.5 -30s30.5 -44.333 30.5 -73s-10.167 -53.167 -30.5 -73.5s-44.833 -30.5 -73.5 -30.5s-53 10.167 -73 30.5z
M311.501 658c9 9.33301 13.5 20.666 13.5 33.999s-4.66699 24.5 -14 33.5s-20.333 13.5 -33 13.5s-23.667 -4.66699 -33 -14s-14 -20.333 -14 -33c0 -13.333 4.66699 -24.666 14 -33.999s20.333 -14 33 -14c13.333 0 24.5 4.66699 33.5 14z" />
    <glyph glyph-name="Uhungarumlaut" unicode="&#x170;" horiz-adv-x="652" 
d="M193 19.5c-40 23.667 -71 56.668 -93 99.001s-33 91.166 -33 146.499v451h85v-455c0 -58 15.333 -105.167 46 -141.5s74.667 -54.5 132 -54.5s101.5 18.167 132.5 54.5s46.5 83.5 46.5 141.5v455h84v-451c0 -55.333 -10.5 -104.333 -31.5 -147s-51.333 -75.667 -91 -99
s-86.5 -35 -140.5 -35c-51.333 0 -97 11.833 -137 35.5zM282 900.001h93l-71 -127h-74zM409 900.001h93l-71 -127h-74z" />
    <glyph glyph-name="uhungarumlaut" unicode="&#x171;" horiz-adv-x="561" 
d="M107.5 38c-32.333 36 -48.499 86.333 -48.499 151v321h85v-308c0 -48.667 11 -84.334 33 -107.001s51.667 -34 89 -34c28.667 0 54.167 7.66699 76.5 23s39.666 35.333 51.999 60s18.5 50.667 18.5 78v288h85v-510h-81v74h-4c-14 -25.333 -36.333 -46.666 -67 -63.999
s-63.334 -26 -98.001 -26c-61.333 0 -108.166 18 -140.499 54zM214.001 736h93l-71 -127h-74zM373.001 736h93l-71 -127h-74z" />
    <glyph glyph-name="Uogonek" unicode="&#x172;" horiz-adv-x="661" 
d="M332.5 -191.5c-21.667 21.667 -32.4961 48.167 -32.4961 79.5c0 20 5.16699 38.333 15.5 55s22.833 30.667 37.5 42c-4.66699 -0.666992 -12.334 -1 -23.001 -1c-51.333 0 -97 11.833 -137 35.5s-71 56.667 -93 99s-33 91.166 -33 146.499v451h85v-455
c0 -58 15.333 -105.167 46 -141.5s74.667 -54.5 132 -54.5s101.5 18.167 132.5 54.5s46.5 83.5 46.5 141.5v455h84v-451c0 -52 -9.33301 -98.333 -28 -139s-44.667 -72.667 -78 -96c-74 -50 -111 -93.333 -111 -130c0 -15.333 4.66699 -28.166 14 -38.499
s21.666 -15.5 36.999 -15.5c13.333 0 26.666 3.33301 39.999 10v-72c-12 -5.33301 -27.667 -8 -47 -8c-36.667 0 -65.834 10.833 -87.501 32.5z" />
    <glyph glyph-name="uogonek" unicode="&#x173;" horiz-adv-x="561" 
d="M381.5 -191.5c-21.667 21.667 -32.4971 48.168 -32.4971 79.501c0 24.667 6.66699 46.5 20 65.5s29.333 34.5 48 46.5v74h-4c-14 -25.333 -36.333 -46.666 -67 -63.999s-63.334 -26 -98.001 -26c-61.333 0 -108.166 18 -140.499 54s-48.5 86.333 -48.5 151v321h85v-308
c0 -48.667 11 -84.334 33 -107.001s51.667 -34 89 -34c28.667 0 54.167 7.66699 76.5 23s39.666 35.333 51.999 60s18.5 50.667 18.5 78v288h85v-510c-24 -18.667 -42.167 -35.334 -54.5 -50.001s-18.5 -31.334 -18.5 -50.001c0 -15.333 4.66699 -28.166 14 -38.499
s21.666 -15.5 36.999 -15.5c13.333 0 26.666 3.33301 39.999 10v-72c-12 -5.33301 -28 -8 -48 -8c-36 0 -64.833 10.833 -86.5 32.5z" />
    <glyph glyph-name="Wcircumflex" unicode="&#x174;" horiz-adv-x="944" 
d="M17 716h94l130 -526l12 -49h4l15 49l160 526h88l153 -526l15 -49h4l141 575h94l-193 -716h-88l-152 518l-16 56h-4l-17 -56l-158 -518h-88zM337 784l102 116h75l102 -116v-5h-82l-54 63h-8l-53 -63h-82v5z" />
    <glyph glyph-name="wcircumflex" unicode="&#x175;" horiz-adv-x="777" 
d="M7 510h87l122 -403h1l128 403h88l129 -402h1l121 402h86l-165 -510h-86l-132 407l-131 -407h-85zM250 619l102 117h75l102 -117v-5h-82l-54 64h-8l-53 -64h-82v5z" />
    <glyph glyph-name="Ycircumflex" unicode="&#x176;" horiz-adv-x="595" 
d="M257 331l-242 385h99l183 -300h4l180 300h99l-238 -385v-331h-85v331zM158 784l102 116h75l102 -116v-5h-82l-54 63h-8l-53 -63h-82v5z" />
    <glyph glyph-name="ycircumflex" unicode="&#x177;" horiz-adv-x="516" 
d="M219 32l-211 478h92l160 -379h2l154 379h92l-315 -726h-88zM119 619l102 117h75l102 -117v-5h-82l-54 64h-8l-53 -64h-82v5z" />
    <glyph glyph-name="Ydieresis" unicode="&#x178;" horiz-adv-x="595" 
d="M257 331l-242 385h99l183 -300h4l180 300h99l-238 -385v-331h-85v331zM177 805.5c-10.667 11 -16 23.501 -16 37.501c0 15.333 5.33301 28.166 16 38.499s23.334 15.5 38.001 15.5c15.333 0 28 -5.16699 38 -15.5s15 -23.166 15 -38.499
c0 -14.667 -5 -27.334 -15 -38.001s-22.667 -16 -38 -16c-14.667 0 -27.334 5.5 -38.001 16.5zM341.5 805.501c-11 11 -16.501 23.501 -16.501 37.501c0 15.333 5.33301 28.166 16 38.499s23.334 15.5 38.001 15.5c15.333 0 28.166 -5.16699 38.499 -15.5
s15.5 -23.166 15.5 -38.499c0 -14.667 -5.16699 -27.334 -15.5 -38.001s-23.166 -16 -38.499 -16c-14 0 -26.5 5.5 -37.5 16.5z" />
    <glyph glyph-name="Zacute" unicode="&#x179;" horiz-adv-x="572" 
d="M38 89l386 546h-370v81h468v-89l-386 -546h390v-81h-488v89zM303 900h93l-71 -127h-74z" />
    <glyph glyph-name="zacute" unicode="&#x17a;" horiz-adv-x="487" 
d="M37 73l301 360h-292v77h396v-73l-302 -360h310v-77h-413v73zM259 736h93l-71 -127h-74z" />
    <glyph glyph-name="Zdotaccent" unicode="&#x17b;" horiz-adv-x="572" 
d="M38 89l386 546h-370v81h468v-89l-386 -546h390v-81h-488v89zM254 822c-10 10 -15 21.333 -15 34c0 13.333 5 24.833 15 34.5s21.333 14.5 34 14.5c14.667 0 26.667 -4.66699 36 -14s14 -21 14 -35c0 -13.333 -4.83301 -24.833 -14.5 -34.5s-21.5 -14.5 -35.5 -14.5
c-12.667 0 -24 5 -34 15z" />
    <glyph glyph-name="zdotaccent" unicode="&#x17c;" horiz-adv-x="487" 
d="M37 73l301 360h-292v77h396v-73l-302 -360h310v-77h-413v73zM206 641c-10.667 10.667 -16 23.334 -16 38.001c0 15.333 5.33301 28 16 38s23.334 15 38.001 15c15.333 0 28 -5 38 -15s15 -22.667 15 -38c0 -14.667 -5 -27.334 -15 -38.001s-22.667 -16 -38 -16
c-14.667 0 -27.334 5.33301 -38.001 16z" />
    <glyph glyph-name="Zcaron" unicode="&#x17d;" horiz-adv-x="572" 
d="M38 89l386 546h-370v81h468v-89l-386 -546h390v-81h-488v89zM149 895v5h82l53 -63h8l54 63h82v-5l-102 -116h-75z" />
    <glyph glyph-name="zcaron" unicode="&#x17e;" horiz-adv-x="487" 
d="M37 73l301 360h-292v77h396v-73l-302 -360h310v-77h-413v73zM105 731v5h82l53 -64h8l54 64h82v-5l-102 -117h-75z" />
    <glyph glyph-name="florin" unicode="&#x192;" horiz-adv-x="575" 
d="M427 626c-14.667 -11.333 -24.333 -27.666 -29 -48.999l-35 -174h130v-78h-145l-82 -412c-8 -39.333 -25.667 -71.333 -53 -96s-61 -37 -101 -37c-20.667 0 -40.667 3.33301 -60 10v82c22 -10 42.333 -15 61 -15s34.5 6.16699 47.5 18.5s21.833 29.166 26.5 50.499
l79 399h-106v78h121l37 185c7.33301 39.333 25.833 71.166 55.5 95.499s65.5 36.5 107.5 36.5c14.667 0 25.5 -0.666992 32.5 -2s15.5 -3.66602 25.5 -6.99902v-83c-16.667 10 -36 15 -58 15c-21.333 0 -39.333 -5.66699 -54 -17z" />
    <glyph glyph-name="Aringacute" unicode="&#x1fa;" horiz-adv-x="669" 
d="M654 0l-92.999 0.000976562l-72 197h-309l-72 -197h-93l256 674c-12 10 -21.667 22.167 -29 36.5s-11 29.5 -11 45.5c0 23.333 6.66699 43.833 20 61.5s30.666 29.834 51.999 36.501l33 78h85l-43 -82c18 -8.66699 32.5 -21.334 43.5 -38.001s16.5 -35.334 16.5 -56.001
c0 -16 -3.5 -31 -10.5 -45s-16.833 -26 -29.5 -36zM365.001 725.001c8.66699 8.66699 13 19 13 31s-4.33301 22.333 -13 31s-19 13 -31 13c-11.333 0 -21.333 -4.33301 -30 -13s-13 -19 -13 -31s4.33301 -22.333 13 -31s18.667 -13 30 -13c12 0 22.333 4.33301 31 13z
M460.001 277.001l-95 258l-29 77h-4l-28 -77l-95 -258h251z" />
    <glyph glyph-name="aringacute" unicode="&#x1fb;" horiz-adv-x="531" 
d="M261 919h93l-59 -105h-77zM185 618.5c-20 20.333 -30 44.833 -30 73.5s10 53 30 73s44.333 30 73 30s53.167 -10 73.5 -30s30.5 -44.333 30.5 -73s-10.167 -53.167 -30.5 -73.5s-44.833 -30.5 -73.5 -30.5s-53 10.167 -73 30.5zM291.5 658
c9 9.33301 13.5 20.666 13.5 33.999s-4.5 24.5 -13.5 33.5s-20.167 13.5 -33.5 13.5c-12.667 0 -23.667 -4.66699 -33 -14s-14 -20.333 -14 -33c0 -13.333 4.66699 -24.666 14 -33.999s20.333 -14 33 -14c13.333 0 24.5 4.66699 33.5 14zM126 6
c-29.333 14.667 -52 34.833 -68 60.5s-24 54.834 -24 87.501c0 54 20.333 96.167 61 126.5s92 45.5 154 45.5c30.667 0 59.167 -3.33301 85.5 -10s46.5 -14.334 60.5 -23.001v31c0 38 -13.333 68.5 -40 91.5s-60.334 34.5 -101.001 34.5c-28.667 0 -55 -6.16699 -79 -18.5
s-43 -29.5 -57 -51.5l-64 48c20 30.667 47.5 54.667 82.5 72s73.833 26 116.5 26c69.333 0 123.833 -18.167 163.5 -54.5s59.5 -85.833 59.5 -148.5v-323h-81v73h-4c-14.667 -24.667 -36.667 -45.667 -66 -63s-62.333 -26 -99 -26c-37.333 0 -70.666 7.33301 -99.999 22z
M314 80.999c24.667 14.667 44.333 34.332 59 58.999s22 51.667 22 81c-16 10.667 -35.667 19.334 -59 26.001s-48 10 -74 10c-46.667 0 -81.834 -9.66699 -105.501 -29s-35.5 -44.333 -35.5 -75c0 -28 10.667 -50.667 32 -68s48.333 -26 81 -26
c28.667 0 55.334 7.33301 80.001 22z" />
    <glyph glyph-name="AEacute" unicode="&#x1fc;" horiz-adv-x="960" 
d="M439 716h464v-81h-329v-237h297v-80h-297v-237h329v-81h-414v197h-264l-118 -197h-100zM489 277v358h-4l-29 -50l-184 -308h217zM681 900h93l-71 -127h-74z" />
    <glyph glyph-name="aeacute" unicode="&#x1fd;" horiz-adv-x="919" 
d="M126 6c-29.333 14.667 -52.002 34.834 -68.002 60.501s-24 54.834 -24 87.501c0 54 20.333 96.167 61 126.5s92 45.5 154 45.5c30.667 0 59.167 -3.33301 85.5 -10s46.5 -14.334 60.5 -23.001v31c0 38 -12.667 68.5 -38 91.5s-58 34.5 -98 34.5
c-27.333 0 -51.333 -6.5 -72 -19.5s-37 -30.833 -49 -53.5l-72 36c15.333 34 40.166 61.333 74.499 82s73.166 31 116.499 31c46 0 85.333 -8.83301 118 -26.5s57.667 -42.5 75 -74.5c20.667 31.333 47.167 55.833 79.5 73.5s68.833 26.5 109.5 26.5
c50 0 93.333 -11 130 -33s64.834 -52.667 84.501 -92s29.5 -84.333 29.5 -135c0 -8 -0.666992 -16.667 -2 -26h-404c2 -38.667 11.333 -71.334 28 -98.001s37.834 -46.667 63.501 -60s52.5 -20 80.5 -20c66.667 0 117 30.667 151 92l72 -35
c-21.333 -40.667 -51 -73.167 -89 -97.5s-83.667 -36.5 -137 -36.5c-48.667 0 -91.667 11.5 -129 34.5s-65.666 54.167 -84.999 93.5c-48 -85.333 -116.667 -128 -206 -128c-37.333 0 -70.666 7.33301 -99.999 22zM792.998 309
c-1.33301 21.333 -7.3291 42.668 -17.9961 64.001s-27.334 39.166 -50.001 53.499s-51.334 21.5 -86.001 21.5c-40.667 0 -74.834 -12.667 -102.501 -38s-45.834 -59 -54.501 -101h311zM314.002 81.002c24.667 14.667 44.335 34.333 59.002 59s22 51.667 22 81
c-14.667 10 -33.834 18.5 -57.501 25.5s-48.834 10.5 -75.501 10.5c-46.667 0 -81.834 -9.66699 -105.501 -29s-35.5 -44.333 -35.5 -75c0 -28 10.667 -50.667 32 -68s48.333 -26 81 -26c28.667 0 55.334 7.33301 80.001 22zM465.003 736.001h93l-71 -127h-74z" />
    <glyph glyph-name="Oslashacute" unicode="&#x1fe;" horiz-adv-x="825" 
d="M742.5 525.5c25 -51.667 37.501 -107.498 37.501 -167.498c0 -68.667 -16 -131.5 -48 -188.5s-76.167 -102.167 -132.5 -135.5s-118.833 -50 -187.5 -50c-60.667 0 -116.334 13 -167.001 39l-37 -59l-59 37l37 59c-44 34.667 -78.5 78 -103.5 130s-37.5 108 -37.5 168
c0 68 16 130.667 48 188s76 102.666 132 135.999s118.333 50 187 50c60.667 0 116.667 -13.333 168 -40l38 61l58 -38l-37 -60c44 -34.667 78.5 -77.834 103.5 -129.501zM157.501 229.502c17.667 -39 41.833 -71.833 72.5 -98.5l307 492c-39.333 18.667 -81 28 -125 28
c-51.333 0 -98.333 -12.5 -141 -37.5s-76.667 -59.833 -102 -104.5s-38 -95 -38 -151c0 -46.667 8.83301 -89.5 26.5 -128.5zM553.5 102.502c43 25 77.001 59.665 102.001 103.998s37.5 94.833 37.5 151.5c0 46.667 -8.66699 89.334 -26 128.001s-41.333 71.334 -72 98.001
l-307 -491c39.333 -18.667 80.666 -28 123.999 -28c51.333 0 98.5 12.5 141.5 37.5zM427.001 900h93l-71 -127h-74z" />
    <glyph glyph-name="oslashacute" unicode="&#x1ff;" horiz-adv-x="596" 
d="M535.5 373c16.333 -36.667 24.499 -75.998 24.499 -117.998c0 -50 -11.167 -95.667 -33.5 -137s-53.5 -74 -93.5 -98s-85 -36 -135 -36c-41.333 0 -79.666 8.33301 -114.999 25l-26 -41l-55 31l28 44c-30 25.333 -53.167 56.166 -69.5 92.499s-24.5 76.166 -24.5 119.499
c0 50 11.167 95.667 33.5 137s53.5 74 93.5 98s85 36 135 36c42.667 0 81.334 -8.66699 116.001 -26l27 43l54 -32l-28 -45c29.333 -25.333 52.166 -56.333 68.499 -93zM133.999 175.002c9.33301 -24 22.3311 -44.668 38.998 -62.001l199 319c-24 11.333 -48.667 17 -74 17
c-31.333 0 -60.666 -7.83301 -87.999 -23.5s-49.166 -38.167 -65.499 -67.5s-24.5 -63.666 -24.5 -102.999c0 -29.333 4.66699 -56 14 -80zM385.497 84.501c27 15.667 48.667 38.168 65 67.501s24.5 63.666 24.5 102.999c0 57.333 -17.333 104.333 -52 141l-198 -319
c22 -10.667 46.333 -16 73 -16c31.333 0 60.5 7.83301 87.5 23.5zM312.997 736.002h93l-71 -127h-74z" />
    <glyph glyph-name="Scommaaccent" unicode="&#x218;" horiz-adv-x="561" 
d="M126 35c-46.667 34 -78.6641 81.666 -95.9971 142.999l81 33c11.333 -42.667 32.333 -77.667 63 -105s66.667 -41 108 -41s76.333 11.167 105 33.5s43 52.833 43 91.5c0 33.333 -12.167 60.833 -36.5 82.5s-64.166 41.834 -119.499 60.501l-45 16
c-50.667 18 -92 41.667 -124 71s-48 70 -48 122c0 34 9.33301 65.5 28 94.5s44.667 52.167 78 69.5s70.666 26 111.999 26s77.333 -7.66699 108 -23s55.167 -34 73.5 -56s31.166 -43.667 38.499 -65l-80 -34c-6.66699 24.667 -21.834 47 -45.501 67s-54.834 30 -93.501 30
c-36.667 0 -68 -10.333 -94 -31s-39 -46.667 -39 -78c0 -28 11 -50.833 33 -68.5s55.333 -34.167 100 -49.5l47 -16c60.667 -22 108 -49.5 142 -82.5s51 -77.833 51 -134.5c0 -46 -11.833 -84.667 -35.5 -116s-53.5 -54.333 -89.5 -69s-73 -22 -111 -22
c-56 0 -107.333 17 -154 51zM227.003 -212.001l40 56.998c-12 2.66699 -21.833 8.83398 -29.5 18.501s-11.5 20.834 -11.5 33.501c0 14 5.33301 26.667 16 38s24 17 40 17c16.667 0 30.167 -5.5 40.5 -16.5s15.5 -24.833 15.5 -41.5c0 -12.667 -4 -27 -12 -43l-61 -89z" />
    <glyph glyph-name="scommaaccent" unicode="&#x219;" horiz-adv-x="473" 
d="M104 22.5c-36.667 25.667 -62.666 58.5039 -77.999 98.5039l76 34c12.667 -30.667 31.5 -54.334 56.5 -71.001s52.5 -25 82.5 -25c32 0 59.333 6.5 82 19.5s34 31.5 34 55.5c0 21.333 -9 38.5 -27 51.5s-46.333 24.167 -85 33.5l-62 16c-40.667 10 -74 27 -100 51
s-39 55 -39 93c0 29.333 8.83301 55.166 26.5 77.499s41.167 39.5 70.5 51.5s61 18 95 18c44.667 0 84.5 -9.66699 119.5 -29s59.833 -46.333 74.5 -81l-74 -34c-22.667 45.333 -63 68 -121 68c-28 0 -52.5 -6.5 -73.5 -19.5s-31.5 -29.5 -31.5 -49.5
c0 -18.667 7.33301 -33.834 22 -45.501s36.667 -21.167 66 -28.5l74 -19c50 -12.667 87.667 -31.5 113 -56.5s38 -55.5 38 -91.5c0 -31.333 -9 -58.833 -27 -82.5s-42.333 -41.834 -73 -54.501s-64.667 -19 -102 -19c-54.667 0 -100.334 12.833 -137.001 38.5z
M187.001 -211.996l40 56.998c-12 2.66699 -21.833 8.83398 -29.5 18.501s-11.5 20.834 -11.5 33.501c0 14 5.33301 26.667 16 38s24 17 40 17c16.667 0 30.167 -5.5 40.5 -16.5s15.5 -24.833 15.5 -41.5c0 -12.667 -4 -27 -12 -43l-61 -89z" />
    <glyph glyph-name="uni021A" unicode="&#x21a;" horiz-adv-x="539" 
d="M227 635h-201v81h486v-81h-200v-635h-85v635zM214 -212l40 56.998c-12 2.66699 -21.833 8.83398 -29.5 18.501s-11.5 20.834 -11.5 33.501c0 14 5.33301 26.667 16 38s24 17 40 17c16.667 0 30.167 -5.5 40.5 -16.5s15.5 -24.833 15.5 -41.5c0 -12.667 -4 -27 -12 -43
l-61 -89z" />
    <glyph glyph-name="uni021B" unicode="&#x21b;" horiz-adv-x="366" 
d="M201.5 2c-17.667 6.66699 -32.499 15.666 -44.499 26.999c-13.333 12.667 -23.333 27.334 -30 44.001s-10 37 -10 61v299h-89v77h89v144h85v-144h124v-77h-124v-278c0 -28 5.33301 -48.667 16 -62c12.667 -14.667 31 -22 55 -22c19.333 0 38 5.66699 56 17v-83
c-10 -4.66699 -20.167 -8 -30.5 -10s-23.5 -3 -39.5 -3c-20.667 0 -39.834 3.33301 -57.501 10zM179.001 -212.001l40 56.998c-12 2.66699 -21.833 8.83398 -29.5 18.501s-11.5 20.834 -11.5 33.501c0 14 5.33301 26.667 16 38s24 17 40 17c16.667 0 30.167 -5.5 40.5 -16.5
s15.5 -24.833 15.5 -41.5c0 -12.667 -4 -27 -12 -43l-61 -89z" />
    <glyph glyph-name="uni0237" unicode="&#x237;" horiz-adv-x="226" 
d="M-30 -219v81c5.33301 -3.33301 12 -6 20 -8s15.333 -3 22 -3c20.667 0 35.667 6.5 45 19.5s14 32.167 14 57.5v582h84v-582c0 -51.333 -12.333 -89.833 -37 -115.5s-59 -38.5 -103 -38.5c-16 0 -31 2.33301 -45 7z" />
    <glyph glyph-name="uni0259" unicode="&#x259;" horiz-adv-x="563" 
d="M404 491c38.667 -23.333 68.8311 -55.502 90.498 -96.502s32.5 -87.167 32.5 -138.5c0 -49.333 -10.167 -94.666 -30.5 -135.999s-49.166 -74.333 -86.499 -99s-80.666 -37 -129.999 -37c-50 0 -93.333 11.167 -130 33.5s-64.834 53.166 -84.501 92.499
s-29.5 84.333 -29.5 135c0 10.667 1 19.334 3 26.001h403c-2 38.667 -11.333 71.334 -28 98.001s-37.834 46.667 -63.501 60s-52.5 20 -80.5 20c-65.333 0 -115.666 -30.667 -150.999 -92l-72 35c22 41.333 51.833 74 89.5 98s83.167 36 136.5 36
c48.667 0 92.334 -11.667 131.001 -35zM125.997 200.998c1.33301 -21.333 7.33203 -42.667 17.999 -64s27.5 -39.333 50.5 -54s51.833 -22 86.5 -22c40 0 73.833 12.833 101.5 38.5s45.834 59.5 54.501 101.5h-311z" />
    <glyph glyph-name="circumflex" unicode="&#x2c6;" horiz-adv-x="395" 
d="M58 600l102 116h75l102 -116v-5h-82l-54 63h-8l-53 -63h-82v5z" />
    <glyph glyph-name="caron" unicode="&#x2c7;" horiz-adv-x="395" 
d="M58 711v5h82l53 -63h8l54 63h82v-5l-102 -116h-75z" />
    <glyph glyph-name="breve" unicode="&#x2d8;" horiz-adv-x="399" 
d="M138.5 604.5c-19.667 11 -35.502 26 -47.502 45s-18 39.833 -18 62.5h69c0 -16.667 5.33301 -30.834 16 -42.501s25 -17.5 43 -17.5c16.667 0 30.334 5.83301 41.001 17.5s16 25.834 16 42.501h68c0 -22.667 -5.83301 -43.5 -17.5 -62.5s-27.167 -34 -46.5 -45
s-39.666 -16.5 -60.999 -16.5c-22 0 -42.833 5.5 -62.5 16.5z" />
    <glyph glyph-name="dotaccent" unicode="&#x2d9;" horiz-adv-x="227" 
d="M76 621.5c-10.667 11 -16 23.501 -16 37.501c0 15.333 5.33301 28.166 16 38.499s23.334 15.5 38.001 15.5c15.333 0 28 -5.16699 38 -15.5s15 -23.166 15 -38.499c0 -14.667 -5 -27.334 -15 -38.001s-22.667 -16 -38 -16c-14.667 0 -27.334 5.5 -38.001 16.5z" />
    <glyph glyph-name="ring" unicode="&#x2da;" horiz-adv-x="402" 
d="M128 599c-20 20 -30 44.333 -30 73c0 29.333 10 53.833 30 73.5s44.333 29.5 73 29.5s53.167 -10 73.5 -30s30.5 -44.333 30.5 -73s-10.167 -53 -30.5 -73s-44.833 -30 -73.5 -30s-53 10 -73 30zM234 638c9.33301 9.33301 14 20.668 14 34.001s-4.5 24.5 -13.5 33.5
s-20.167 13.5 -33.5 13.5c-12.667 0 -23.667 -4.66699 -33 -14s-14 -20.333 -14 -33s4.66699 -23.834 14 -33.501s20.333 -14.5 33 -14.5s23.667 4.66699 33 14z" />
    <glyph glyph-name="ogonek" unicode="&#x2db;" horiz-adv-x="401" 
d="M122.5 -192c-21.667 21.333 -32.498 48.001 -32.498 80.001c0 42.667 21 80 63 112h85c-24 -18.667 -42.167 -35.334 -54.5 -50.001s-18.5 -31.334 -18.5 -50.001c0 -15.333 4.66699 -28.166 14 -38.499s21.666 -15.5 36.999 -15.5c13.333 0 26.666 3.33301 39.999 10
v-72c-12 -5.33301 -27.667 -8 -47 -8c-36 0 -64.833 10.667 -86.5 32z" />
    <glyph glyph-name="tilde" unicode="&#x2dc;" horiz-adv-x="398" 
d="M221.5 603.5c-11.667 5 -25.8379 12.168 -42.5049 21.501c-19.333 12 -32.666 18 -39.999 18c-22 0 -34 -12.333 -36 -37h-70c0 25.333 5.33301 46.5 16 63.5s24.334 29.667 41.001 38s33.334 12.5 50.001 12.5c20.667 0 47.334 -10 80.001 -30c20 -11.333 33 -17 39 -17
c22 0 34 12.333 36 37h70c0 -36.667 -11.167 -64.834 -33.5 -84.501s-47.166 -29.5 -74.499 -29.5c-12 0 -23.833 2.5 -35.5 7.5z" />
    <glyph glyph-name="hungarumlaut" unicode="&#x2dd;" horiz-adv-x="389" 
d="M126 716h93l-71 -127h-74zM285 716h93l-71 -127h-74z" />
    <glyph glyph-name="gravecomb" unicode="&#x300;" horiz-adv-x="0" 
d="M-299 736h93l52 -127h-75z" />
    <glyph glyph-name="acutecomb" unicode="&#x301;" horiz-adv-x="0" 
d="M-190 736h93l-71 -127h-74z" />
    <glyph glyph-name="uni0302" unicode="&#x302;" horiz-adv-x="0" 
d="M-337 619l102 117h75l102 -117v-5h-82l-54 64h-8l-53 -64h-82v5z" />
    <glyph glyph-name="tildecomb" unicode="&#x303;" horiz-adv-x="0" 
d="M-176.5 623.5c-11.667 5 -25.835 12.167 -42.502 21.5c-19.333 12 -32.666 18 -39.999 18c-22 0 -34 -12.333 -36 -37h-70c0 36.667 11 64.667 33 84s46.667 29 74 29c20.667 0 47.334 -10 80.001 -30c20 -11.333 33 -17 39 -17c22 0 34 12.333 36 37h70
c0 -36.667 -11 -64.667 -33 -84s-47 -29 -75 -29c-12 0 -23.833 2.5 -35.5 7.5z" />
    <glyph glyph-name="uni0304" unicode="&#x304;" horiz-adv-x="0" 
d="M-338 712h277v-67h-277v67z" />
    <glyph glyph-name="uni0306" unicode="&#x306;" horiz-adv-x="0" 
d="M-260.5 623.5c-19.667 11 -35.502 26 -47.502 45s-18 40.167 -18 63.5h69c0 -16.667 5.33301 -31 16 -43s25 -18 43 -18c16.667 0 30.334 6 41.001 18s16 26.333 16 43h68c0 -23.333 -5.83301 -44.5 -17.5 -63.5s-27.167 -34 -46.5 -45s-39.666 -16.5 -60.999 -16.5
c-22 0 -42.833 5.5 -62.5 16.5z" />
    <glyph glyph-name="uni0307" unicode="&#x307;" horiz-adv-x="0" 
d="M-151 641c-10.667 10.667 -16 23.334 -16 38.001c0 15.333 5.33301 28 16 38s23.334 15 38.001 15c15.333 0 28 -5 38 -15s15 -22.667 15 -38c0 -14.667 -5 -27.334 -15 -38.001s-22.667 -16 -38 -16c-14.667 0 -27.334 5.33301 -38.001 16z" />
    <glyph glyph-name="uni0308" unicode="&#x308;" horiz-adv-x="0" 
d="M-316 641c-10.667 10.667 -16 23.334 -16 38.001c0 15.333 5.33301 28 16 38s23.334 15 38.001 15c15.333 0 28 -5 38 -15s15 -22.667 15 -38c0 -14.667 -5 -27.334 -15 -38.001s-22.667 -16 -38 -16c-14.667 0 -27.334 5.33301 -38.001 16zM-151.5 641
c-11 10.667 -16.501 23.334 -16.501 38.001c0 15.333 5.33301 28 16 38s23.334 15 38.001 15c15.333 0 28.166 -5 38.499 -15s15.5 -22.667 15.5 -38c0 -14.667 -5.16699 -27.334 -15.5 -38.001s-23.166 -16 -38.499 -16c-14 0 -26.5 5.33301 -37.5 16z" />
    <glyph glyph-name="uni030A" unicode="&#x30a;" horiz-adv-x="0" 
d="M-274 618.5c-20 20.333 -30 44.833 -30 73.5s10 53 30 73s44.333 30 73 30s53.167 -10 73.5 -30s30.5 -44.333 30.5 -73s-10.167 -53.167 -30.5 -73.5s-44.833 -30.5 -73.5 -30.5s-53 10.167 -73 30.5zM-167.5 658c9 9.33301 13.5 20.666 13.5 33.999
s-4.66699 24.5 -14 33.5s-20.333 13.5 -33 13.5s-23.667 -4.66699 -33 -14s-14 -20.333 -14 -33c0 -13.333 4.66699 -24.666 14 -33.999s20.333 -14 33 -14c13.333 0 24.5 4.66699 33.5 14z" />
    <glyph glyph-name="uni030B" unicode="&#x30b;" horiz-adv-x="0" 
d="M-263 736h93l-71 -127h-74zM-104 736h93l-71 -127h-74z" />
    <glyph glyph-name="uni030C" unicode="&#x30c;" horiz-adv-x="0" 
d="M-337 731v5h82l53 -64h8l54 64h82v-5l-102 -117h-75z" />
    <glyph glyph-name="uni0312" unicode="&#x312;" horiz-adv-x="0" 
d="M-147 756l-40 -56.998c12 -2.66699 21.833 -8.83398 29.5 -18.501s11.5 -20.834 11.5 -33.501c0 -14 -5.33301 -26.667 -16 -38s-24 -17 -40 -17c-16.667 0 -30.167 5.5 -40.5 16.5s-15.5 24.833 -15.5 41.5c0 12.667 4 27 12 43l61 89z" />
    <glyph glyph-name="uni0326" unicode="&#x326;" horiz-adv-x="0" 
d="M-259 -212l40 56.998c-12 2.66699 -21.833 8.83398 -29.5 18.501s-11.5 20.834 -11.5 33.501c0 14 5.33301 26.667 16 38s24 17 40 17c16.667 0 30.167 -5.5 40.5 -16.5s15.5 -24.833 15.5 -41.5c0 -12.667 -4 -27 -12 -43l-61 -89z" />
    <glyph glyph-name="uni0327" unicode="&#x327;" horiz-adv-x="0" 
d="M-294.5 -218c-17 12.667 -29.168 28.667 -36.501 48l50 22c3.33301 -10 8.83301 -18.5 16.5 -25.5s16.834 -10.5 27.501 -10.5c13.333 0 24 4.16699 32 12.5s12 18.5 12 30.5c0 12.667 -4 23.334 -12 32.001s-18.667 13 -32 13c-14 0 -25.667 -5.66699 -35 -17l-44 20
l35 93h53l-22 -49c12 2 19.667 3 23 3c25.333 0 46.833 -9 64.5 -27s26.5 -40.667 26.5 -68c0 -26.667 -9.66699 -49.334 -29 -68.001s-43.333 -28 -72 -28c-21.333 0 -40.5 6.33301 -57.5 19z" />
    <glyph glyph-name="uni0328" unicode="&#x328;" horiz-adv-x="0" 
d="M-279 -192c-21.333 21.333 -31.998 48.001 -31.998 80.001c0 42.667 21 80 63 112h85c-24 -18.667 -42.167 -35.334 -54.5 -50.001s-18.5 -31.334 -18.5 -50.001c0 -15.333 4.66699 -28.166 14 -38.499s21.666 -15.5 36.999 -15.5c13.333 0 26.666 3.33301 39.999 10v-72
c-12 -5.33301 -27.667 -8 -47 -8c-36.667 0 -65.667 10.667 -87 32z" />
    <glyph glyph-name="uni0374" unicode="&#x374;" horiz-adv-x="270" 
d="M121 716h106l-117 -209h-71z" />
    <glyph glyph-name="uni0375" unicode="&#x375;" horiz-adv-x="270" 
d="M155 122h74l-82 -209h-106z" />
    <glyph glyph-name="uni037E" unicode="&#x37e;" horiz-adv-x="233" 
d="M71.5 406.5c-12.333 12.333 -18.5 27.5 -18.5 45.5s6.16699 33.167 18.5 45.5s27.166 18.5 44.499 18.5c18 0 33.167 -6.16699 45.5 -18.5s18.5 -27.5 18.5 -45.5s-6.16699 -33.167 -18.5 -45.5s-27.5 -18.5 -45.5 -18.5c-17.333 0 -32.166 6.16699 -44.499 18.5zM47 -67
l53 82.998c-12 2 -22.667 8.33301 -32 19s-14 23.667 -14 39c0 17.333 6.16699 32.166 18.5 44.499s27.5 18.5 45.5 18.5s33.167 -6.16699 45.5 -18.5s18.5 -27.166 18.5 -44.499c0 -11.333 -2.33301 -22.166 -7 -32.499s-11.667 -22.166 -21 -35.499l-66 -100z" />
    <glyph glyph-name="tonos" unicode="&#x384;" horiz-adv-x="397" 
d="M182 736h93l-70 -127h-74z" />
    <glyph glyph-name="dieresistonos" unicode="&#x385;" horiz-adv-x="393" 
d="M166 752h60v-144h-60v144zM48 644c-10 10 -15 21.667 -15 35c0 14 4.83301 25.667 14.5 35s21.167 14 34.5 14c14 0 25.667 -4.66699 35 -14s14 -21 14 -35c0 -13.333 -4.66699 -25 -14 -35s-21 -15 -35 -15c-12.667 0 -24 5 -34 15zM276.5 644.5
c-10.333 10.333 -15.5 21.833 -15.5 34.5c0 14 5 25.667 15 35s21.667 14 35 14c14 0 25.667 -4.66699 35 -14s14 -21 14 -35c0 -13.333 -4.66699 -25 -14 -35s-21 -15 -35 -15c-12.667 0 -24.167 5.16699 -34.5 15.5z" />
    <glyph glyph-name="Alphatonos" unicode="&#x386;" horiz-adv-x="669" 
d="M112 716h93l-71 -127h-74zM286 716h96l272 -716h-93l-72 197h-309l-72 -197h-93zM460 277l-95 258l-29 77h-4l-28 -77l-95 -258h251z" />
    <glyph glyph-name="anoteleia" unicode="&#x387;" horiz-adv-x="183" 
d="M46.5 278.5c-12.333 12.333 -18.5 27.5 -18.5 45.5s6.16699 33.167 18.5 45.5s27.5 18.5 45.5 18.5c17.333 0 32.166 -6.16699 44.499 -18.5s18.5 -27.5 18.5 -45.5s-6.16699 -33.167 -18.5 -45.5s-27.166 -18.5 -44.499 -18.5c-18 0 -33.167 6.16699 -45.5 18.5z" />
    <glyph glyph-name="Epsilontonos" unicode="&#x388;" horiz-adv-x="584" 
d="M-23 716h93l-71 -127h-74zM113 716h414v-81h-330v-237h298v-80h-298v-237h330v-81h-414v716z" />
    <glyph glyph-name="Etatonos" unicode="&#x389;" horiz-adv-x="731" 
d="M-23 716h93l-71 -127h-74zM113 716h84v-310h370v310h84v-716h-84v326h-370v-326h-84v716z" />
    <glyph glyph-name="Iotatonos" unicode="&#x38a;" horiz-adv-x="278" 
d="M-23 716h93l-71 -127h-74zM113 716h84v-716h-84v716z" />
    <glyph glyph-name="Omicrontonos" unicode="&#x38c;" horiz-adv-x="783" 
d="M-20 716h93l-71 -127h-74zM184 34c-56 33.333 -100 78.5 -132 135.5s-48 119.833 -48 188.5c0 68 16 130.667 48 188s76 102.666 132 135.999s118.333 50 187 50s131 -16.667 187 -50s100.167 -78.666 132.5 -135.999s48.5 -120 48.5 -188
c0 -68.667 -16 -131.5 -48 -188.5s-76.167 -102.167 -132.5 -135.5s-118.833 -50 -187.5 -50s-131 16.667 -187 50zM512.5 102.5c43 25 77 59.667 102 104s37.5 94.833 37.5 151.5s-12.5 107.167 -37.5 151.5s-59 79 -102 104s-90.167 37.5 -141.5 37.5
s-98.333 -12.5 -141 -37.5s-76.667 -59.833 -102 -104.5s-38 -95 -38 -151s12.667 -106.333 38 -151s59.333 -79.5 102 -104.5s89.667 -37.5 141 -37.5s98.5 12.5 141.5 37.5z" />
    <glyph glyph-name="Upsilontonos" unicode="&#x38e;" horiz-adv-x="664" 
d="M-23 716h93l-71 -127h-74zM326 331l-242 385h99l183 -300h4l180 300h99l-238 -385v-331h-85v331z" />
    <glyph glyph-name="Omegatonos" unicode="&#x38f;" horiz-adv-x="758" 
d="M-20 716h93l-71 -127h-74zM23 81h165.001v4c-56.667 29.333 -101 70 -133 122s-48 110.667 -48 176c0 61.333 15.333 118.833 46 172.5s72.667 96.5 126 128.5s112.666 48 177.999 48s124.833 -16 178.5 -48s95.667 -74.667 126 -128s45.5 -111 45.5 -173
c0 -65.333 -16 -124 -48 -176s-76.333 -92.667 -133 -122v-4h166v-81h-276v120c38.667 9.33301 73.667 26.333 105 51s55.833 55.334 73.5 92.001s26.5 76.667 26.5 120c0 50 -11.833 95.333 -35.5 136s-55.667 72.834 -96 96.501s-84.5 35.5 -132.5 35.5
s-92.167 -11.833 -132.5 -35.5s-72.333 -55.834 -96 -96.501s-35.5 -86 -35.5 -136c0 -43.333 8.83301 -83.333 26.5 -120s42.167 -67.334 73.5 -92.001s66.333 -41.667 105 -51v-120h-275v81z" />
    <glyph glyph-name="iotadieresistonos" unicode="&#x390;" horiz-adv-x="226" 
d="M71 510h84v-510h-84v510zM83 752h60v-144h-60v144zM-35 644c-10 10 -15 21.667 -15 35c0 14 4.83301 25.667 14.5 35s21.167 14 34.5 14c14 0 25.667 -4.66699 35 -14s14 -21 14 -35c0 -13.333 -4.66699 -25 -14 -35s-21 -15 -35 -15c-12.667 0 -24 5 -34 15z
M193.5 644.5c-10.333 10.333 -15.5 21.833 -15.5 34.5c0 14 5 25.667 15 35s21.667 14 35 14c14 0 25.667 -4.66699 35 -14s14 -21 14 -35c0 -13.333 -4.66699 -25 -14 -35s-21 -15 -35 -15c-12.667 0 -24.167 5.16699 -34.5 15.5z" />
    <glyph glyph-name="Alpha" unicode="&#x391;" horiz-adv-x="669" 
d="M286 716h96l272 -716h-93l-72 197h-309l-72 -197h-93zM460 277l-95 258l-29 77h-4l-28 -77l-95 -258h251z" />
    <glyph glyph-name="Beta" unicode="&#x392;" horiz-adv-x="606" 
d="M80 716l256.999 -0.000976562c36 0 69.833 -8.33301 101.5 -25s56.834 -39.667 75.501 -69s28 -62.333 28 -99c0 -34.667 -8.83301 -65 -26.5 -91s-41.5 -46 -71.5 -60v-4c36 -12 65.333 -32.667 88 -62s34 -63.666 34 -102.999c0 -38.667 -9.83301 -73.5 -29.5 -104.5
s-46 -55.167 -79 -72.5s-68.5 -26 -106.5 -26h-271v716zM336.999 405.999c24 0 45.168 5.66602 63.501 16.999s32.5 25.833 42.5 43.5s15 35.834 15 54.501c0 18 -4.83301 35.833 -14.5 53.5s-23.334 32.167 -41.001 43.5s-38.167 17 -61.5 17h-177v-229h173zM356 80.998
c24 0 45.499 6 64.499 18s33.667 27.5 44 46.5s15.5 38.5 15.5 58.5s-5.33301 39.5 -16 58.5s-25.667 34.333 -45 46s-41.666 17.5 -66.999 17.5h-188v-245h192z" />
    <glyph glyph-name="Gamma" unicode="&#x393;" horiz-adv-x="504" 
d="M80 716h398v-81h-314v-635h-84v716z" />
    <glyph glyph-name="Delta" unicode="&#x394;" horiz-adv-x="659" 
d="M281 716h96l267 -716h-629zM522 81l-191 531h-4l-190 -531h385z" />
    <glyph glyph-name="Epsilon" unicode="&#x395;" horiz-adv-x="551" 
d="M80 716h414v-81h-330v-237h298v-80h-298v-237h330v-81h-414v716z" />
    <glyph glyph-name="Zeta" unicode="&#x396;" horiz-adv-x="572" 
d="M38 89l386 546h-370v81h468v-89l-386 -546h390v-81h-488v89z" />
    <glyph glyph-name="Eta" unicode="&#x397;" horiz-adv-x="698" 
d="M80 716h84v-310h370v310h84v-716h-84v326h-370v-326h-84v716z" />
    <glyph glyph-name="Theta" unicode="&#x398;" horiz-adv-x="838" 
d="M225 34c-56 33.333 -100 78.5 -132 135.5s-48 119.833 -48 188.5c0 68 16 130.667 48 188s76 102.666 132 135.999s118.333 50 187 50s131 -16.667 187 -50s100.167 -78.666 132.5 -135.999s48.5 -120 48.5 -188c0 -68.667 -16 -131.5 -48 -188.5
s-76.167 -102.167 -132.5 -135.5s-118.833 -50 -187.5 -50s-131 16.667 -187 50zM553.5 102.5c43 25 77 59.667 102 104s37.5 94.833 37.5 151.5s-12.5 107.167 -37.5 151.5s-59 79 -102 104s-90.167 37.5 -141.5 37.5s-98.333 -12.5 -141 -37.5
s-76.667 -59.833 -102 -104.5s-38 -95 -38 -151s12.667 -106.333 38 -151s59.333 -79.5 102 -104.5s89.667 -37.5 141 -37.5s98.5 12.5 141.5 37.5zM260 398h319v-80h-319v80z" />
    <glyph glyph-name="Iota" unicode="&#x399;" horiz-adv-x="244" 
d="M80 716h84v-716h-84v716z" />
    <glyph glyph-name="Kappa" unicode="&#x39a;" horiz-adv-x="614" 
d="M80 716h84v-357h4l315 357h111v-4l-326 -362l340 -346v-4h-118l-322 337h-4v-337h-84v716z" />
    <glyph glyph-name="Lambda" unicode="&#x39b;" 
d="M277 716h96l262 -716h-94l-190 543l-24 69h-4l-24 -69l-191 -543h-93z" />
    </font>
</defs>
</svg>
