<svg width="379" height="227" viewBox="0 0 379 227" fill="none" xmlns="http://www.w3.org/2000/svg">
<path opacity="0.2" fill-rule="evenodd" clip-rule="evenodd" d="M223.929 0.0603435L223.95 0L223.978 0.0869049C224.331 1.19913 225.19 2.05813 226.302 2.41168L226.389 2.43927L226.274 2.48182C225.187 2.88411 224.315 3.74388 223.896 4.8249L223.828 5L223.801 4.91309C223.447 3.80112 222.588 2.94187 221.476 2.58832L221.389 2.56073C222.57 2.16592 223.515 1.23498 223.929 0.0603435ZM147.931 27L147.848 27.234C146.243 31.789 142.578 35.399 138 36.93L138.337 37.037C142.649 38.408 145.981 41.74 147.352 46.052L147.459 46.389L147.722 45.71C149.345 41.518 152.729 38.184 156.943 36.624L157.389 36.459L157.052 36.352C152.74 34.981 149.409 31.65 148.038 27.337L147.931 27ZM258.487 138L258.452 138.097C257.79 139.976 256.278 141.465 254.389 142.097L254.528 142.141C256.307 142.707 257.682 144.082 258.248 145.861L258.292 146L258.4 145.72C259.07 143.99 260.466 142.615 262.205 141.971L262.389 141.903L262.25 141.859C260.471 141.293 259.096 139.919 258.531 138.139L258.487 138ZM348.992 189.157L349.048 189L349.119 189.226C350.039 192.118 352.272 194.351 355.163 195.27L355.389 195.342L355.09 195.453C352.265 196.499 349.996 198.734 348.907 201.545L348.731 202L348.659 201.774C347.74 198.883 345.506 196.649 342.615 195.73L342.389 195.658C345.458 194.631 347.916 192.211 348.992 189.157ZM5.95 98L5.92859 98.0603C5.5147 99.235 4.56957 100.166 3.38901 100.561L3.47591 100.588C4.58788 100.942 5.44713 101.801 5.80068 102.913L5.82828 103L5.8961 102.825C6.31464 101.744 7.1873 100.884 8.27399 100.482L8.38901 100.439L8.3021 100.412C7.19013 100.058 6.33114 99.1991 5.97759 98.0869L5.95 98ZM223.929 220.06L223.95 220L223.978 220.087C224.331 221.199 225.19 222.058 226.302 222.412L226.389 222.439L226.274 222.482C225.187 222.884 224.315 223.744 223.896 224.825L223.828 225L223.801 224.913C223.447 223.801 222.588 222.942 221.476 222.588L221.389 222.561C222.57 222.166 223.515 221.235 223.929 220.06ZM161.95 152L161.929 152.06C161.515 153.235 160.57 154.166 159.389 154.561L159.476 154.588C160.588 154.942 161.447 155.801 161.801 156.913L161.828 157L161.896 156.825C162.315 155.744 163.187 154.884 164.274 154.482L164.389 154.439L164.302 154.412C163.19 154.058 162.331 153.199 161.978 152.087L161.95 152ZM2.95 219L2.92859 219.06C2.5147 220.235 1.56957 221.166 0.389008 221.561L0.475913 221.588C1.58788 221.942 2.44713 222.801 2.80068 223.913L2.82828 224L2.8961 223.825C3.31464 222.744 4.1873 221.884 5.27399 221.482L5.38901 221.439L5.3021 221.412C4.19013 221.058 3.33114 220.199 2.97759 219.087L2.95 219ZM354.929 14.0603L354.95 14L354.978 14.0869C355.331 15.1991 356.19 16.0581 357.302 16.4117L357.389 16.4393L357.274 16.4818C356.187 16.8841 355.315 17.7439 354.896 18.8249L354.828 19L354.801 18.9131C354.447 17.8011 353.588 16.9419 352.476 16.5883L352.389 16.5607C353.57 16.1659 354.515 15.235 354.929 14.0603ZM71.5 16C72.8807 16 74 14.8807 74 13.5C74 12.1193 72.8807 11 71.5 11C70.1193 11 69 12.1193 69 13.5C69 14.8807 70.1193 16 71.5 16ZM43 177.5C43 178.881 41.8807 180 40.5 180C39.1193 180 38 178.881 38 177.5C38 176.119 39.1193 175 40.5 175C41.8807 175 43 176.119 43 177.5ZM251.5 87C252.881 87 254 85.8807 254 84.5C254 83.1193 252.881 82 251.5 82C250.119 82 249 83.1193 249 84.5C249 85.8807 250.119 87 251.5 87ZM125 158.5C125 159.328 124.328 160 123.5 160C122.672 160 122 159.328 122 158.5C122 157.672 122.672 157 123.5 157C124.328 157 125 157.672 125 158.5ZM376.5 110C377.881 110 379 108.881 379 107.5C379 106.119 377.881 105 376.5 105C375.119 105 374 106.119 374 107.5C374 108.881 375.119 110 376.5 110ZM328 226C328 226.552 327.552 227 327 227C326.448 227 326 226.552 326 226C326 225.448 326.448 225 327 225C327.552 225 328 225.448 328 226ZM156 195C156.552 195 157 194.552 157 194C157 193.448 156.552 193 156 193C155.448 193 155 193.448 155 194C155 194.552 155.448 195 156 195Z" fill="black"/>
</svg>
