<svg width="32" height="30" viewBox="0 0 32 30" fill="none" xmlns="http://www.w3.org/2000/svg">
<path fill-rule="evenodd" clip-rule="evenodd" d="M9.66667 0.145836C10.3225 0.145836 10.8542 0.677498 10.8542 1.33334V3.3125H21.1458V1.33334C21.1458 0.677498 21.6775 0.145836 22.3333 0.145836C22.9892 0.145836 23.5208 0.677498 23.5208 1.33334V3.3125H27.0833C29.4881 3.3125 31.4375 5.26194 31.4375 7.66667V25.0833C31.4375 27.4881 29.4881 29.4375 27.0833 29.4375H4.91667C2.51194 29.4375 0.5625 27.4881 0.5625 25.0833V7.66667C0.5625 5.26193 2.51193 3.3125 4.91667 3.3125H8.47917V1.33334C8.47917 0.677498 9.01083 0.145836 9.66667 0.145836ZM8.47917 5.6875H4.91667C3.8236 5.6875 2.9375 6.57361 2.9375 7.66667V25.0833C2.9375 26.1764 3.82359 27.0625 4.91667 27.0625H27.0833C28.1764 27.0625 29.0625 26.1764 29.0625 25.0833V7.66667C29.0625 6.57359 28.1764 5.6875 27.0833 5.6875H23.5208V6.08334C23.5208 6.73917 22.9892 7.27084 22.3333 7.27084C21.6775 7.27084 21.1458 6.73917 21.1458 6.08334V5.6875H10.8542V6.08334C10.8542 6.73917 10.3225 7.27084 9.66667 7.27084C9.01083 7.27084 8.47917 6.73917 8.47917 6.08334V5.6875ZM13.8625 13.6042C12.9878 13.6042 12.4375 14.2399 12.4375 14.8357C12.4375 15.1358 12.5627 15.4238 12.7994 15.6533L15.9998 18.695L19.1365 15.7129C19.1449 15.7049 19.1534 15.6971 19.1621 15.6893C19.4239 15.4546 19.5625 15.1511 19.5625 14.8357C19.5625 14.2399 19.0122 13.6042 18.1375 13.6042C17.6185 13.6042 17.1895 13.842 16.9452 14.1633C16.7206 14.4586 16.371 14.6319 16 14.6319C15.629 14.6319 15.2794 14.4586 15.0548 14.1633C14.8105 13.842 14.3815 13.6042 13.8625 13.6042ZM10.0625 14.8357C10.0625 12.7594 11.8515 11.2292 13.8625 11.2292C14.6464 11.2292 15.3852 11.4558 16 11.8529C16.6148 11.4558 17.3536 11.2292 18.1375 11.2292C20.1485 11.2292 21.9375 12.7594 21.9375 14.8357C21.9375 15.8776 21.4727 16.8009 20.7615 17.445L16.8182 21.194C16.3599 21.6297 15.6404 21.6298 15.1819 21.1941L11.1534 17.3655C10.4904 16.7262 10.0625 15.8347 10.0625 14.8357Z" fill="#EE0F32"/>
</svg>
