<svg width="20" height="16" viewBox="0 0 20 16" fill="none" xmlns="http://www.w3.org/2000/svg">
<path fill-rule="evenodd" clip-rule="evenodd" d="M0.739917 2.68217C0.847124 2.28207 1.25838 2.04463 1.65848 2.15184L11.3177 4.74006C11.6254 4.8225 11.8474 5.09027 11.8715 5.40788C11.8955 5.72549 11.7163 6.02364 11.4246 6.15146L5.88986 8.57641L4.62435 13.2993L5.83179 13.6229C6.23188 13.7301 6.46931 14.1413 6.36209 14.5414C6.25487 14.9415 5.84361 15.179 5.44351 15.0717L3.51166 14.554C3.11157 14.4468 2.87414 14.0356 2.98135 13.6355L4.53427 7.83999C4.59324 7.61991 4.74905 7.43858 4.95773 7.34715L8.86426 5.63557L1.27024 3.60073C0.870144 3.49352 0.632709 3.08227 0.739917 2.68217Z" fill="white"/>
<path fill-rule="evenodd" clip-rule="evenodd" d="M1.04949 13.1179C1.1567 12.7178 1.56796 12.4803 1.96806 12.5876L4.86582 13.3641C5.26592 13.4713 5.50335 13.8825 5.39614 14.2826C5.28893 14.6827 4.87767 14.9202 4.47758 14.8129L1.57981 14.0364C1.17971 13.9292 0.942277 13.518 1.04949 13.1179Z" fill="white"/>
<path fill-rule="evenodd" clip-rule="evenodd" d="M1.01993 2.27215C1.35358 2.0267 1.82304 2.0982 2.0685 2.43185L5.86285 7.58967C6.1083 7.92333 6.0368 8.39279 5.70314 8.63824C5.36949 8.88369 4.90003 8.81219 4.65457 8.47854L0.860225 3.32072C0.614771 2.98706 0.686273 2.5176 1.01993 2.27215Z" fill="white"/>
<path fill-rule="evenodd" clip-rule="evenodd" d="M13.9552 6.48448C14.3139 6.27737 14.7726 6.40028 14.9797 6.759L17.9797 11.9551C18.0792 12.1274 18.1061 12.3321 18.0546 12.5242C18.0032 12.7164 17.8775 12.8802 17.7052 12.9796L15.9731 13.9796C15.6144 14.1867 15.1557 14.0638 14.9486 13.7051C14.7415 13.3464 14.8644 12.8877 15.2231 12.6806L16.3057 12.0556L13.6807 7.509C13.4736 7.15028 13.5965 6.69159 13.9552 6.48448Z" fill="white"/>
<path fill-rule="evenodd" clip-rule="evenodd" d="M19.7118 10.9551C19.9189 11.3138 19.796 11.7725 19.4373 11.9796L16.8392 13.4796C16.4805 13.6867 16.0218 13.5638 15.8147 13.2051C15.6076 12.8464 15.7305 12.3877 16.0892 12.1806L18.6873 10.6806C19.046 10.4735 19.5047 10.5964 19.7118 10.9551Z" fill="white"/>
<path fill-rule="evenodd" clip-rule="evenodd" d="M17.1659 0.615907C17.3951 0.82508 17.4718 1.15378 17.3589 1.44278L15.0288 7.40692C14.878 7.79274 14.4431 7.98331 14.0573 7.83258C13.6715 7.68185 13.4809 7.24689 13.6316 6.86107L15.2525 2.71228L13.3354 3.67082C12.9649 3.85606 12.5144 3.70589 12.3292 3.33541C12.1439 2.96492 12.2941 2.51442 12.6646 2.32918L16.3249 0.499038C16.6024 0.360277 16.9367 0.406734 17.1659 0.615907Z" fill="white"/>
</svg>
