<svg width="14" height="18" viewBox="0 0 14 18" fill="none" xmlns="http://www.w3.org/2000/svg">
<path fill-rule="evenodd" clip-rule="evenodd" d="M11.1762 10.8702L11.1278 10.9348C11.0612 11.0235 10.9639 11.1529 10.8415 11.3151C10.5965 11.6397 10.2511 12.0955 9.84962 12.6198C9.04499 13.6707 8.0221 14.988 7.13348 16.0749C7.0906 16.1273 7.04353 16.1435 7.00045 16.1435C6.95737 16.1435 6.9103 16.1273 6.86743 16.0748C5.98161 14.9903 4.96087 13.6748 4.15768 12.6251C3.75695 12.1013 3.41207 11.646 3.16746 11.3217C3.04518 11.1596 2.94802 11.0303 2.88155 10.9417L2.78012 10.8063C2.78012 10.8063 2.77979 10.8058 2.75853 10.8217L2.78012 10.8063C2.77143 10.7947 2.76222 10.7827 2.75313 10.7714L2.7482 10.7653C2.74825 10.7653 2.74814 10.7652 2.7482 10.7653C2.00076 9.83277 1.55434 8.65126 1.55434 7.36232C1.55434 4.35477 3.99244 1.91667 6.99999 1.91667C10.0075 1.91667 12.4456 4.35477 12.4456 7.36232C12.4456 8.65137 11.9993 9.83274 11.2518 10.7653C11.2246 10.7992 11.1994 10.8342 11.1762 10.8702ZM12.2295 11.5491C12.2289 11.5499 12.2281 11.551 12.2271 11.5523C12.1911 11.6005 11.9063 11.981 11.4769 12.5469C10.6428 13.6462 9.26309 15.4449 8.10122 16.8661C7.5261 17.5695 6.47409 17.5693 5.89931 16.8655C4.10235 14.6654 1.7783 11.5539 1.7783 11.5539L1.77288 11.5471C0.853981 10.4008 0.304337 8.94576 0.304337 7.36232C0.304337 3.66442 3.30208 0.666672 6.99999 0.666672C10.6979 0.666672 13.6956 3.66442 13.6956 7.36232C13.6956 8.49666 13.4136 9.56511 12.9157 10.5014C12.7196 10.8702 12.49 11.2185 12.231 11.5423C12.2302 11.5433 12.2294 11.5443 12.2285 11.5453C12.2281 11.5459 12.2276 11.5465 12.2271 11.5471H12.231C12.231 11.5471 12.2305 11.5478 12.2295 11.5491Z" fill="#F59B5A"/>
</svg>
