<svg width="16" height="16" viewBox="0 0 16 16" fill="none" xmlns="http://www.w3.org/2000/svg">
<path fill-rule="evenodd" clip-rule="evenodd" d="M4.25 0.6875C4.56066 0.6875 4.8125 0.93934 4.8125 1.25V2H11.1875V1.25C11.1875 0.93934 11.4393 0.6875 11.75 0.6875C12.0607 0.6875 12.3125 0.93934 12.3125 1.25V2H13.25C14.4926 2 15.5 3.00736 15.5 4.25V13.25C15.5 14.4926 14.4926 15.5 13.25 15.5H2.75C1.50736 15.5 0.5 14.4926 0.5 13.25V4.25C0.5 3.00736 1.50736 2 2.75 2H3.6875V1.25C3.6875 0.93934 3.93934 0.6875 4.25 0.6875ZM11.1875 3.125V4.25C11.1875 4.56066 11.4393 4.8125 11.75 4.8125C12.0607 4.8125 12.3125 4.56066 12.3125 4.25V3.125H13.25C13.8713 3.125 14.375 3.62868 14.375 4.25V13.25C14.375 13.8713 13.8713 14.375 13.25 14.375H2.75C2.12868 14.375 1.625 13.8713 1.625 13.25V4.25C1.625 3.62868 2.12868 3.125 2.75 3.125H3.6875V4.25C3.6875 4.56066 3.93934 4.8125 4.25 4.8125C4.56066 4.8125 4.8125 4.56066 4.8125 4.25V3.125H11.1875Z" fill="white"/>
<path d="M8.5625 6.5C8.5625 6.18934 8.31066 5.9375 8 5.9375C7.68934 5.9375 7.4375 6.18934 7.4375 6.5L7.4375 8.1875H5.75C5.43934 8.1875 5.1875 8.43934 5.1875 8.75C5.1875 9.06066 5.43934 9.3125 5.75 9.3125H7.4375V11C7.4375 11.3107 7.68934 11.5625 8 11.5625C8.31066 11.5625 8.5625 11.3107 8.5625 11V9.3125H10.25C10.5607 9.3125 10.8125 9.06066 10.8125 8.75C10.8125 8.43934 10.5607 8.1875 10.25 8.1875H8.5625V6.5Z" fill="white"/>
</svg>
