<svg width="17" height="17" viewBox="0 0 17 17" fill="none" xmlns="http://www.w3.org/2000/svg">
<path fill-rule="evenodd" clip-rule="evenodd" d="M6.33334 6.12502C3.91709 6.12502 1.95834 8.08377 1.95834 10.5C1.95834 12.9163 3.91709 14.875 6.33334 14.875C8.74958 14.875 10.7083 12.9163 10.7083 10.5C10.7083 8.08377 8.74958 6.12502 6.33334 6.12502ZM0.708336 10.5C0.708336 7.39341 3.22673 4.87502 6.33334 4.87502C9.43994 4.87502 11.9583 7.39341 11.9583 10.5C11.9583 13.6066 9.43994 16.125 6.33334 16.125C3.22673 16.125 0.708336 13.6066 0.708336 10.5Z" fill="#F59B5A"/>
<path fill-rule="evenodd" clip-rule="evenodd" d="M15.9419 1.77529L10.1086 7.60862L9.22473 6.72474L15.0581 0.891403L15.9419 1.77529Z" fill="#F59B5A"/>
<path fill-rule="evenodd" clip-rule="evenodd" d="M11.5417 1.33334C11.5417 0.988166 11.8215 0.708344 12.1667 0.708344H15.5C15.8452 0.708344 16.125 0.988166 16.125 1.33334V4.66668C16.125 5.01185 15.8452 5.29168 15.5 5.29168C15.1548 5.29168 14.875 5.01185 14.875 4.66668V1.95834H12.1667C11.8215 1.95834 11.5417 1.67852 11.5417 1.33334Z" fill="#F59B5A"/>
</svg>
