<svg width="20" height="20" viewBox="0 0 20 20" fill="none" xmlns="http://www.w3.org/2000/svg">
<path fill-rule="evenodd" clip-rule="evenodd" d="M7 17.75C6.86193 17.75 6.75 17.8619 6.75 18C6.75 18.1381 6.86193 18.25 7 18.25C7.13807 18.25 7.25 18.1381 7.25 18C7.25 17.8619 7.13807 17.75 7 17.75ZM5.25 18C5.25 17.0335 6.0335 16.25 7 16.25C7.9665 16.25 8.75 17.0335 8.75 18C8.75 18.9665 7.9665 19.75 7 19.75C6.0335 19.75 5.25 18.9665 5.25 18Z" fill="#ED9B59"/>
<path fill-rule="evenodd" clip-rule="evenodd" d="M13 17.75C12.8619 17.75 12.75 17.8619 12.75 18C12.75 18.1381 12.8619 18.25 13 18.25C13.1381 18.25 13.25 18.1381 13.25 18C13.25 17.8619 13.1381 17.75 13 17.75ZM11.25 18C11.25 17.0335 12.0335 16.25 13 16.25C13.9665 16.25 14.75 17.0335 14.75 18C14.75 18.9665 13.9665 19.75 13 19.75C12.0335 19.75 11.25 18.9665 11.25 18Z" fill="#ED9B59"/>
<path fill-rule="evenodd" clip-rule="evenodd" d="M3.76702 0.287135C3.98608 0.215549 4.22589 0.248648 4.41736 0.376899C6.74411 1.93535 7.98779 3.71875 8.41592 5.51693C8.84272 7.30953 8.43454 9.01527 7.64951 10.375C7.54623 10.5539 7.37375 10.6822 7.17274 10.7298C6.97174 10.7774 6.76001 10.74 6.5875 10.6264C3.92249 8.87137 2.85094 6.92008 2.60982 5.07223C2.37522 3.27432 2.94912 1.69483 3.29518 0.743617C3.37398 0.527045 3.54796 0.358721 3.76702 0.287135ZM4.38279 2.20581C4.14606 2.99344 3.97007 3.90378 4.09721 4.87814C4.25427 6.08183 4.89137 7.4825 6.71356 8.87802C7.08114 7.95683 7.20873 6.92286 6.95671 5.86436C6.67955 4.70025 5.92498 3.43065 4.38279 2.20581Z" fill="#ED9B59"/>
<path fill-rule="evenodd" clip-rule="evenodd" d="M10 10.75C5.44365 10.75 1.75 14.4436 1.75 19C1.75 19.4142 1.41421 19.75 1 19.75C0.585786 19.75 0.25 19.4142 0.25 19C0.25 13.6152 4.61523 9.25 10 9.25C15.3848 9.25 19.75 13.6152 19.75 19C19.75 19.4142 19.4142 19.75 19 19.75C18.5858 19.75 18.25 19.4142 18.25 19C18.25 14.4436 14.5564 10.75 10 10.75Z" fill="#ED9B59"/>
<path fill-rule="evenodd" clip-rule="evenodd" d="M16.1547 0.266071C16.3802 0.313601 16.5713 0.46217 16.673 0.668978C17.937 3.23937 17.8223 5.3833 16.9692 7.09304C16.1385 8.75794 14.6589 9.90815 13.375 10.6494C13.1961 10.7527 12.9825 10.7776 12.7847 10.7183C12.5868 10.659 12.4222 10.5207 12.3296 10.3361C11.6104 8.90195 11.3235 7.62472 11.3614 6.48219C11.3994 5.33619 11.7628 4.37414 12.2694 3.57177C13.0533 2.33008 14.2387 1.41852 15.0246 0.814093C15.2168 0.666311 15.3851 0.53689 15.5178 0.425492C15.6943 0.277325 15.9292 0.21854 16.1547 0.266071ZM13.3296 8.90679C12.9638 7.9855 12.8384 7.20091 12.8606 6.53197C12.8885 5.69028 13.1517 4.98395 13.5377 4.37257C14.128 3.43771 14.9535 2.77246 15.6996 2.19348C16.3566 3.96877 16.1639 5.34734 15.627 6.42332C15.1136 7.45217 14.25 8.27456 13.3296 8.90679Z" fill="#ED9B59"/>
</svg>
