<svg width="26" height="36" viewBox="0 0 26 36" fill="none" xmlns="http://www.w3.org/2000/svg">
<path fill-rule="evenodd" clip-rule="evenodd" d="M4.59464 16.2722C5.22701 16.6926 5.3988 17.5461 4.97834 18.1785C3.96529 19.7021 3.375 21.53 3.375 23.4998C3.375 28.8155 7.68426 33.1248 13 33.1248C18.3157 33.1248 22.625 28.8155 22.625 23.4998C22.625 21.53 22.0346 19.7021 21.0216 18.1784C20.6012 17.5461 20.773 16.6926 21.4054 16.2721C22.0378 15.8517 22.8913 16.0235 23.3117 16.6559C24.6153 18.6167 25.375 20.9717 25.375 23.4998C25.375 30.3343 19.8345 35.8748 13 35.8748C6.16547 35.8748 0.625 30.3343 0.625 23.4998C0.625 20.9717 1.3846 18.6167 2.68833 16.6559C3.10879 16.0235 3.96227 15.8517 4.59464 16.2722Z" fill="#EE0F32"/>
<path fill-rule="evenodd" clip-rule="evenodd" d="M8.36106 0.527728C8.61893 0.269866 8.96866 0.125 9.33333 0.125H16.6667C17.0313 0.125 17.3811 0.269866 17.6389 0.527728L23.1389 6.02773C23.6418 6.53059 23.6782 7.33393 23.223 7.88025L14.0563 18.8803C13.7951 19.1937 13.4081 19.375 13 19.375C12.5919 19.375 12.2049 19.1937 11.9437 18.8803L2.77703 7.88025C2.32176 7.33393 2.3582 6.53059 2.86106 6.02773L8.36106 0.527728ZM9.90288 2.875L5.6935 7.08438L13 15.8522L20.3065 7.08438L16.0971 2.875H9.90288Z" fill="#EE0F32"/>
<path d="M14.8333 8.83333C14.8333 9.84586 14.0125 10.6667 13 10.6667C11.9875 10.6667 11.1667 9.84586 11.1667 8.83333C11.1667 7.82081 11.9875 7 13 7C14.0125 7 14.8333 7.82081 14.8333 8.83333Z" fill="#EE0F32"/>
</svg>
