<svg width="104" height="97" viewBox="0 0 104 97" fill="none" xmlns="http://www.w3.org/2000/svg">
<path fill-rule="evenodd" clip-rule="evenodd" d="M9.42614 0.58628C12.0269 6.03927 15.0837 11.2816 17.2962 16.9016C19.5087 22.5216 20.857 28.6612 19.8432 34.6049C18.0399 45.193 9.37937 52.9606 3.13204 61.6686C1.87379 63.424 0.673876 65.313 0.326044 67.4504C-0.0210178 69.5895 0.682236 72.0372 2.52697 73.1743C4.85227 74.6083 7.8359 73.5067 10.3158 72.3845C13.7206 70.8431 17.1254 69.3016 20.5294 67.7586C24.1806 66.1063 28.4231 64.4477 32.0525 66.1727C34.7961 67.4739 36.371 70.3621 37.7645 73.0673C40.4222 78.2262 43.08 83.3851 45.7377 88.544C47.6546 92.2643 50.4847 96.5443 54.6433 96.3148C57.182 96.1769 59.3326 94.2328 60.4564 91.9488C61.5809 89.6664 61.8713 87.0711 62.1431 84.5347C62.6336 79.9573 63.1251 75.3775 63.6165 70.7977C64.0487 66.7604 64.6995 62.2994 67.8178 59.723C70.2892 57.6815 73.708 57.3545 76.9046 57.1129C81.9994 56.7285 87.0934 56.3424 92.1857 55.9571C94.851 55.7561 97.6129 55.5262 99.9431 54.2204C102.273 52.9146 104.049 50.2098 103.413 47.6002C102.858 45.3246 100.747 43.8367 98.844 42.4755C92.9347 38.2555 87.5626 33.2782 82.8999 27.7026C81.3359 25.8332 79.8024 23.7846 79.4058 21.3809C79.1207 19.6452 79.4561 17.8717 79.8669 16.1655C81.1626 10.8004 83.242 5.45993 82.7986 -0.0476624C82.6072 -2.41031 81.5184 -5.15299 79.1934 -5.56933C78.2055 -5.74426 77.2024 -5.44546 76.2615 -5.10328C70.9507 -3.16989 66.2836 0.160988 61.3414 2.90204C56.3983 5.64552 50.8498 7.8587 45.2246 7.22133C40.0236 6.63555 35.3729 3.67312 31.3707 0.273541C27.3693 -3.12439 23.7951 -7.03932 19.5394 -10.1115C16.8517 -12.0523 11.1029 -14.744 8.43491 -11.4422C5.81967 -8.20331 7.88502 -2.64144 9.42614 0.58628Z" fill="#F55959"/>
</svg>
