<svg width="21" height="20" viewBox="0 0 21 20" fill="none" xmlns="http://www.w3.org/2000/svg">
<path fill-rule="evenodd" clip-rule="evenodd" d="M5.2 8.30599L7.4577 5.08071C7.81067 4.57646 8 3.97584 8 3.36033V1.79626C8 0.571147 9.20023 -0.293931 10.3625 0.0934834C12.4572 0.791725 13.7326 2.91012 13.3696 5.08811L13 7.30599L18.4394 7.30832C19.7402 7.30888 20.6944 8.53154 20.3788 9.79352L18.5682 17.0338C18.2343 18.3692 17.0344 19.306 15.6578 19.306H3C1.34315 19.306 0 17.9628 0 16.306V11.306C0 9.64914 1.34315 8.30599 3 8.30599H5.2ZM11.5204 7.05939C11.4479 7.49421 11.5704 7.9389 11.8553 8.27531C12.1401 8.61172 12.5585 8.8058 12.9994 8.80599L18.4388 8.80832C18.764 8.80846 19.0025 9.11413 18.9236 9.42962L17.113 16.6699C16.946 17.3376 16.3461 17.806 15.6578 17.806H6V9.77883L8.68654 5.94091C9.21601 5.18453 9.5 4.2836 9.5 3.36033V1.79626C9.5 1.59498 9.69719 1.45286 9.88813 1.51651C11.2826 1.98134 12.1317 3.39159 11.8901 4.84151L11.5204 7.05939ZM4.5 9.80599H3C2.17157 9.80599 1.5 10.4776 1.5 11.306V16.306C1.5 17.1344 2.17157 17.806 3 17.806H4.5V9.80599Z" fill="white"/>
</svg>
