<svg width="0" height="0" class="hidden">
    <symbol fill="none" xmlns="http://www.w3.org/2000/svg" viewBox="0 0 379 227" id="background">
        <path opacity="0.2" fill-rule="evenodd" clip-rule="evenodd" d="M223.929 0.0603435L223.95 0L223.978 0.0869049C224.331 1.19913 225.19 2.05813 226.302 2.41168L226.389 2.43927L226.274 2.48182C225.187 2.88411 224.315 3.74388 223.896 4.8249L223.828 5L223.801 4.91309C223.447 3.80112 222.588 2.94187 221.476 2.58832L221.389 2.56073C222.57 2.16592 223.515 1.23498 223.929 0.0603435ZM147.931 27L147.848 27.234C146.243 31.789 142.578 35.399 138 36.93L138.337 37.037C142.649 38.408 145.981 41.74 147.352 46.052L147.459 46.389L147.722 45.71C149.345 41.518 152.729 38.184 156.943 36.624L157.389 36.459L157.052 36.352C152.74 34.981 149.409 31.65 148.038 27.337L147.931 27ZM258.487 138L258.452 138.097C257.79 139.976 256.278 141.465 254.389 142.097L254.528 142.141C256.307 142.707 257.682 144.082 258.248 145.861L258.292 146L258.4 145.72C259.07 143.99 260.466 142.615 262.205 141.971L262.389 141.903L262.25 141.859C260.471 141.293 259.096 139.919 258.531 138.139L258.487 138ZM348.992 189.157L349.048 189L349.119 189.226C350.039 192.118 352.272 194.351 355.163 195.27L355.389 195.342L355.09 195.453C352.265 196.499 349.996 198.734 348.907 201.545L348.731 202L348.659 201.774C347.74 198.883 345.506 196.649 342.615 195.73L342.389 195.658C345.458 194.631 347.916 192.211 348.992 189.157ZM5.95 98L5.92859 98.0603C5.5147 99.235 4.56957 100.166 3.38901 100.561L3.47591 100.588C4.58788 100.942 5.44713 101.801 5.80068 102.913L5.82828 103L5.8961 102.825C6.31464 101.744 7.1873 100.884 8.27399 100.482L8.38901 100.439L8.3021 100.412C7.19013 100.058 6.33114 99.1991 5.97759 98.0869L5.95 98ZM223.929 220.06L223.95 220L223.978 220.087C224.331 221.199 225.19 222.058 226.302 222.412L226.389 222.439L226.274 222.482C225.187 222.884 224.315 223.744 223.896 224.825L223.828 225L223.801 224.913C223.447 223.801 222.588 222.942 221.476 222.588L221.389 222.561C222.57 222.166 223.515 221.235 223.929 220.06ZM161.95 152L161.929 152.06C161.515 153.235 160.57 154.166 159.389 154.561L159.476 154.588C160.588 154.942 161.447 155.801 161.801 156.913L161.828 157L161.896 156.825C162.315 155.744 163.187 154.884 164.274 154.482L164.389 154.439L164.302 154.412C163.19 154.058 162.331 153.199 161.978 152.087L161.95 152ZM2.95 219L2.92859 219.06C2.5147 220.235 1.56957 221.166 0.389008 221.561L0.475913 221.588C1.58788 221.942 2.44713 222.801 2.80068 223.913L2.82828 224L2.8961 223.825C3.31464 222.744 4.1873 221.884 5.27399 221.482L5.38901 221.439L5.3021 221.412C4.19013 221.058 3.33114 220.199 2.97759 219.087L2.95 219ZM354.929 14.0603L354.95 14L354.978 14.0869C355.331 15.1991 356.19 16.0581 357.302 16.4117L357.389 16.4393L357.274 16.4818C356.187 16.8841 355.315 17.7439 354.896 18.8249L354.828 19L354.801 18.9131C354.447 17.8011 353.588 16.9419 352.476 16.5883L352.389 16.5607C353.57 16.1659 354.515 15.235 354.929 14.0603ZM71.5 16C72.8807 16 74 14.8807 74 13.5C74 12.1193 72.8807 11 71.5 11C70.1193 11 69 12.1193 69 13.5C69 14.8807 70.1193 16 71.5 16ZM43 177.5C43 178.881 41.8807 180 40.5 180C39.1193 180 38 178.881 38 177.5C38 176.119 39.1193 175 40.5 175C41.8807 175 43 176.119 43 177.5ZM251.5 87C252.881 87 254 85.8807 254 84.5C254 83.1193 252.881 82 251.5 82C250.119 82 249 83.1193 249 84.5C249 85.8807 250.119 87 251.5 87ZM125 158.5C125 159.328 124.328 160 123.5 160C122.672 160 122 159.328 122 158.5C122 157.672 122.672 157 123.5 157C124.328 157 125 157.672 125 158.5ZM376.5 110C377.881 110 379 108.881 379 107.5C379 106.119 377.881 105 376.5 105C375.119 105 374 106.119 374 107.5C374 108.881 375.119 110 376.5 110ZM328 226C328 226.552 327.552 227 327 227C326.448 227 326 226.552 326 226C326 225.448 326.448 225 327 225C327.552 225 328 225.448 328 226ZM156 195C156.552 195 157 194.552 157 194C157 193.448 156.552 193 156 193C155.448 193 155 193.448 155 194C155 194.552 155.448 195 156 195Z" fill="black"></path>
    </symbol>
    <symbol xmlns="http://www.w3.org/2000/svg" viewBox="0 0 32 30" id="calendar">
        <path fill-rule="evenodd" clip-rule="evenodd" d="M9.66667 0.145836C10.3225 0.145836 10.8542 0.677498 10.8542 1.33334V3.3125H21.1458V1.33334C21.1458 0.677498 21.6775 0.145836 22.3333 0.145836C22.9892 0.145836 23.5208 0.677498 23.5208 1.33334V3.3125H27.0833C29.4881 3.3125 31.4375 5.26194 31.4375 7.66667V25.0833C31.4375 27.4881 29.4881 29.4375 27.0833 29.4375H4.91667C2.51194 29.4375 0.5625 27.4881 0.5625 25.0833V7.66667C0.5625 5.26193 2.51193 3.3125 4.91667 3.3125H8.47917V1.33334C8.47917 0.677498 9.01083 0.145836 9.66667 0.145836ZM8.47917 5.6875H4.91667C3.8236 5.6875 2.9375 6.57361 2.9375 7.66667V25.0833C2.9375 26.1764 3.82359 27.0625 4.91667 27.0625H27.0833C28.1764 27.0625 29.0625 26.1764 29.0625 25.0833V7.66667C29.0625 6.57359 28.1764 5.6875 27.0833 5.6875H23.5208V6.08334C23.5208 6.73917 22.9892 7.27084 22.3333 7.27084C21.6775 7.27084 21.1458 6.73917 21.1458 6.08334V5.6875H10.8542V6.08334C10.8542 6.73917 10.3225 7.27084 9.66667 7.27084C9.01083 7.27084 8.47917 6.73917 8.47917 6.08334V5.6875ZM13.8625 13.6042C12.9878 13.6042 12.4375 14.2399 12.4375 14.8357C12.4375 15.1358 12.5627 15.4238 12.7994 15.6533L15.9998 18.695L19.1365 15.7129C19.1449 15.7049 19.1534 15.6971 19.1621 15.6893C19.4239 15.4546 19.5625 15.1511 19.5625 14.8357C19.5625 14.2399 19.0122 13.6042 18.1375 13.6042C17.6185 13.6042 17.1895 13.842 16.9452 14.1633C16.7206 14.4586 16.371 14.6319 16 14.6319C15.629 14.6319 15.2794 14.4586 15.0548 14.1633C14.8105 13.842 14.3815 13.6042 13.8625 13.6042ZM10.0625 14.8357C10.0625 12.7594 11.8515 11.2292 13.8625 11.2292C14.6464 11.2292 15.3852 11.4558 16 11.8529C16.6148 11.4558 17.3536 11.2292 18.1375 11.2292C20.1485 11.2292 21.9375 12.7594 21.9375 14.8357C21.9375 15.8776 21.4727 16.8009 20.7615 17.445L16.8182 21.194C16.3599 21.6297 15.6404 21.6298 15.1819 21.1941L11.1534 17.3655C10.4904 16.7262 10.0625 15.8347 10.0625 14.8357Z"></path>
    </symbol>
    <symbol xmlns="http://www.w3.org/2000/svg" viewBox="0 0 20 16" id="chinchin">
        <path fill-rule="evenodd" clip-rule="evenodd" d="M0.739917 2.68217C0.847124 2.28207 1.25838 2.04463 1.65848 2.15184L11.3177 4.74006C11.6254 4.8225 11.8474 5.09027 11.8715 5.40788C11.8955 5.72549 11.7163 6.02364 11.4246 6.15146L5.88986 8.57641L4.62435 13.2993L5.83179 13.6229C6.23188 13.7301 6.46931 14.1413 6.36209 14.5414C6.25487 14.9415 5.84361 15.179 5.44351 15.0717L3.51166 14.554C3.11157 14.4468 2.87414 14.0356 2.98135 13.6355L4.53427 7.83999C4.59324 7.61991 4.74905 7.43858 4.95773 7.34715L8.86426 5.63557L1.27024 3.60073C0.870144 3.49352 0.632709 3.08227 0.739917 2.68217Z"></path>
        <path fill-rule="evenodd" clip-rule="evenodd" d="M1.04949 13.1179C1.1567 12.7178 1.56796 12.4803 1.96806 12.5876L4.86582 13.3641C5.26592 13.4713 5.50335 13.8825 5.39614 14.2826C5.28893 14.6827 4.87767 14.9202 4.47758 14.8129L1.57981 14.0364C1.17971 13.9292 0.942277 13.518 1.04949 13.1179Z"></path>
        <path fill-rule="evenodd" clip-rule="evenodd" d="M1.01993 2.27215C1.35358 2.0267 1.82304 2.0982 2.0685 2.43185L5.86285 7.58967C6.1083 7.92333 6.0368 8.39279 5.70314 8.63824C5.36949 8.88369 4.90003 8.81219 4.65457 8.47854L0.860225 3.32072C0.614771 2.98706 0.686273 2.5176 1.01993 2.27215Z"></path>
        <path fill-rule="evenodd" clip-rule="evenodd" d="M13.9552 6.48448C14.3139 6.27737 14.7726 6.40028 14.9797 6.759L17.9797 11.9551C18.0792 12.1274 18.1061 12.3321 18.0546 12.5242C18.0032 12.7164 17.8775 12.8802 17.7052 12.9796L15.9731 13.9796C15.6144 14.1867 15.1557 14.0638 14.9486 13.7051C14.7415 13.3464 14.8644 12.8877 15.2231 12.6806L16.3057 12.0556L13.6807 7.509C13.4736 7.15028 13.5965 6.69159 13.9552 6.48448Z"></path>
        <path fill-rule="evenodd" clip-rule="evenodd" d="M19.7118 10.9551C19.9189 11.3138 19.796 11.7725 19.4373 11.9796L16.8392 13.4796C16.4805 13.6867 16.0218 13.5638 15.8147 13.2051C15.6076 12.8464 15.7305 12.3877 16.0892 12.1806L18.6873 10.6806C19.046 10.4735 19.5047 10.5964 19.7118 10.9551Z"></path>
        <path fill-rule="evenodd" clip-rule="evenodd" d="M17.1659 0.615907C17.3951 0.82508 17.4718 1.15378 17.3589 1.44278L15.0288 7.40692C14.878 7.79274 14.4431 7.98331 14.0573 7.83258C13.6715 7.68185 13.4809 7.24689 13.6316 6.86107L15.2525 2.71228L13.3354 3.67082C12.9649 3.85606 12.5144 3.70589 12.3292 3.33541C12.1439 2.96492 12.2941 2.51442 12.6646 2.32918L16.3249 0.499038C16.6024 0.360277 16.9367 0.406734 17.1659 0.615907Z"></path>
    </symbol>
    <symbol fill="none" xmlns="http://www.w3.org/2000/svg" viewBox="0 0 14 18" id="drop">
        <path fill-rule="evenodd" clip-rule="evenodd" d="M11.1762 10.8702L11.1278 10.9348C11.0612 11.0235 10.9639 11.1529 10.8415 11.3151C10.5965 11.6397 10.2511 12.0955 9.84962 12.6198C9.04499 13.6707 8.0221 14.988 7.13348 16.0749C7.0906 16.1273 7.04353 16.1435 7.00045 16.1435C6.95737 16.1435 6.9103 16.1273 6.86743 16.0748C5.98161 14.9903 4.96087 13.6748 4.15768 12.6251C3.75695 12.1013 3.41207 11.646 3.16746 11.3217C3.04518 11.1596 2.94802 11.0303 2.88155 10.9417L2.78012 10.8063C2.78012 10.8063 2.77979 10.8058 2.75853 10.8217L2.78012 10.8063C2.77143 10.7947 2.76222 10.7827 2.75313 10.7714L2.7482 10.7653C2.74825 10.7653 2.74814 10.7652 2.7482 10.7653C2.00076 9.83277 1.55434 8.65126 1.55434 7.36232C1.55434 4.35477 3.99244 1.91667 6.99999 1.91667C10.0075 1.91667 12.4456 4.35477 12.4456 7.36232C12.4456 8.65137 11.9993 9.83274 11.2518 10.7653C11.2246 10.7992 11.1994 10.8342 11.1762 10.8702ZM12.2295 11.5491C12.2289 11.5499 12.2281 11.551 12.2271 11.5523C12.1911 11.6005 11.9063 11.981 11.4769 12.5469C10.6428 13.6462 9.26309 15.4449 8.10122 16.8661C7.5261 17.5695 6.47409 17.5693 5.89931 16.8655C4.10235 14.6654 1.7783 11.5539 1.7783 11.5539L1.77288 11.5471C0.853981 10.4008 0.304337 8.94576 0.304337 7.36232C0.304337 3.66442 3.30208 0.666672 6.99999 0.666672C10.6979 0.666672 13.6956 3.66442 13.6956 7.36232C13.6956 8.49666 13.4136 9.56511 12.9157 10.5014C12.7196 10.8702 12.49 11.2185 12.231 11.5423C12.2302 11.5433 12.2294 11.5443 12.2285 11.5453C12.2281 11.5459 12.2276 11.5465 12.2271 11.5471H12.231C12.231 11.5471 12.2305 11.5478 12.2295 11.5491Z" fill="#F59B5A"></path>
    </symbol>
    <symbol fill="none" xmlns="http://www.w3.org/2000/svg" viewBox="0 0 20 16" id="envelope">
        <path fill-rule="evenodd" clip-rule="evenodd" d="M0 3C0 1.34315 1.34315 0 3 0H17C18.6569 0 20 1.34315 20 3V13C20 14.6569 18.6569 16 17 16H3C1.34315 16 0 14.6569 0 13V3ZM3 1.5H17C17.6497 1.5 18.203 1.91311 18.4114 2.49101L10.6934 7.63638C10.2735 7.91629 9.72651 7.91629 9.30663 7.63638L1.58857 2.491C1.79701 1.91311 2.35026 1.5 3 1.5ZM1.5 4.23473V13C1.5 13.8284 2.17157 14.5 3 14.5H17C17.8284 14.5 18.5 13.8284 18.5 13V4.23474L11.5254 8.88445C10.6017 9.50027 9.39831 9.50027 8.47458 8.88445L1.5 4.23473Z" fill="#1A1D32"></path>
    </symbol>
    <symbol fill="none" xmlns="http://www.w3.org/2000/svg" viewBox="0 0 16 16" id="event">
        <path fill-rule="evenodd" clip-rule="evenodd" d="M4.25 0.6875C4.56066 0.6875 4.8125 0.93934 4.8125 1.25V2H11.1875V1.25C11.1875 0.93934 11.4393 0.6875 11.75 0.6875C12.0607 0.6875 12.3125 0.93934 12.3125 1.25V2H13.25C14.4926 2 15.5 3.00736 15.5 4.25V13.25C15.5 14.4926 14.4926 15.5 13.25 15.5H2.75C1.50736 15.5 0.5 14.4926 0.5 13.25V4.25C0.5 3.00736 1.50736 2 2.75 2H3.6875V1.25C3.6875 0.93934 3.93934 0.6875 4.25 0.6875ZM11.1875 3.125V4.25C11.1875 4.56066 11.4393 4.8125 11.75 4.8125C12.0607 4.8125 12.3125 4.56066 12.3125 4.25V3.125H13.25C13.8713 3.125 14.375 3.62868 14.375 4.25V13.25C14.375 13.8713 13.8713 14.375 13.25 14.375H2.75C2.12868 14.375 1.625 13.8713 1.625 13.25V4.25C1.625 3.62868 2.12868 3.125 2.75 3.125H3.6875V4.25C3.6875 4.56066 3.93934 4.8125 4.25 4.8125C4.56066 4.8125 4.8125 4.56066 4.8125 4.25V3.125H11.1875Z" fill="white"></path>
        <path d="M8.5625 6.5C8.5625 6.18934 8.31066 5.9375 8 5.9375C7.68934 5.9375 7.4375 6.18934 7.4375 6.5L7.4375 8.1875H5.75C5.43934 8.1875 5.1875 8.43934 5.1875 8.75C5.1875 9.06066 5.43934 9.3125 5.75 9.3125H7.4375V11C7.4375 11.3107 7.68934 11.5625 8 11.5625C8.31066 11.5625 8.5625 11.3107 8.5625 11V9.3125H10.25C10.5607 9.3125 10.8125 9.06066 10.8125 8.75C10.8125 8.43934 10.5607 8.1875 10.25 8.1875H8.5625V6.5Z" fill="white"></path>
    </symbol>
    <symbol xmlns="http://www.w3.org/2000/svg" viewBox="0 0 20 18" id="heart">
        <path fill-rule="evenodd" clip-rule="evenodd" d="M8.55115 3.43929C6.99526 1.85357 4.47866 1.85357 2.92276 3.43929C1.35908 5.03295 1.35908 7.62257 2.92276 9.21623L9.10777 15.5198C9.59777 16.0192 10.4022 16.0192 10.8922 15.5198L17.0772 9.21623C18.6409 7.62257 18.6409 5.03295 17.0772 3.43929C15.5213 1.85357 13.0047 1.85357 11.4489 3.43929L10.5353 4.37031C10.3943 4.51405 10.2014 4.59504 10 4.59504C9.79862 4.59504 9.6057 4.51405 9.46466 4.37031L8.55115 3.43929ZM9.62183 2.38875L10 2.77416L10.3782 2.38875C12.5221 0.203751 16.004 0.203751 18.1479 2.38875C20.284 4.5658 20.284 8.08971 18.1479 10.2668L11.9629 16.5703C10.8849 17.669 9.11509 17.669 8.03708 16.5703L1.85208 10.2668C-0.284027 8.08971 -0.284027 4.5658 1.85208 2.38875C3.99598 0.203751 7.47793 0.203751 9.62183 2.38875Z"></path>
    </symbol>
    <symbol fill="none" xmlns="http://www.w3.org/2000/svg" viewBox="0 0 17 17" id="male">
        <path fill-rule="evenodd" clip-rule="evenodd" d="M6.33334 6.12502C3.91709 6.12502 1.95834 8.08377 1.95834 10.5C1.95834 12.9163 3.91709 14.875 6.33334 14.875C8.74958 14.875 10.7083 12.9163 10.7083 10.5C10.7083 8.08377 8.74958 6.12502 6.33334 6.12502ZM0.708336 10.5C0.708336 7.39341 3.22673 4.87502 6.33334 4.87502C9.43994 4.87502 11.9583 7.39341 11.9583 10.5C11.9583 13.6066 9.43994 16.125 6.33334 16.125C3.22673 16.125 0.708336 13.6066 0.708336 10.5Z" fill="#F59B5A"></path>
        <path fill-rule="evenodd" clip-rule="evenodd" d="M15.9419 1.77529L10.1086 7.60862L9.22473 6.72474L15.0581 0.891403L15.9419 1.77529Z" fill="#F59B5A"></path>
        <path fill-rule="evenodd" clip-rule="evenodd" d="M11.5417 1.33334C11.5417 0.988166 11.8215 0.708344 12.1667 0.708344H15.5C15.8452 0.708344 16.125 0.988166 16.125 1.33334V4.66668C16.125 5.01185 15.8452 5.29168 15.5 5.29168C15.1548 5.29168 14.875 5.01185 14.875 4.66668V1.95834H12.1667C11.8215 1.95834 11.5417 1.67852 11.5417 1.33334Z" fill="#F59B5A"></path>
    </symbol>
    <symbol fill="none" xmlns="http://www.w3.org/2000/svg" viewBox="0 0 85 79" id="moon">
        <path fill-rule="evenodd" clip-rule="evenodd" d="M8.12044 10.7873C10.528 7.18511 13.3584 4.05173 16.4923 1.41406C18.2395 -0.0522529 20.8837 1.4457 20.5232 3.69443C18.0926 18.9292 23.7883 34.987 36.8078 45.1808C49.834 55.3808 66.8136 57.076 81.0599 51.0903C83.1528 50.2124 85.2518 52.3947 84.2495 54.4257C82.9218 57.1009 81.3013 59.6792 79.3832 62.1186C63.7834 81.9611 34.4892 84.7626 15.3615 67.6517C-0.745219 53.2363 -3.88284 28.7613 8.12044 10.7873Z" fill="#FFC051"></path>
    </symbol>
    <symbol fill="none" xmlns="http://www.w3.org/2000/svg" viewBox="0 0 20 20" id="rabbit">
        <path fill-rule="evenodd" clip-rule="evenodd" d="M7 17.75C6.86193 17.75 6.75 17.8619 6.75 18C6.75 18.1381 6.86193 18.25 7 18.25C7.13807 18.25 7.25 18.1381 7.25 18C7.25 17.8619 7.13807 17.75 7 17.75ZM5.25 18C5.25 17.0335 6.0335 16.25 7 16.25C7.9665 16.25 8.75 17.0335 8.75 18C8.75 18.9665 7.9665 19.75 7 19.75C6.0335 19.75 5.25 18.9665 5.25 18Z" fill="#ED9B59"></path>
        <path fill-rule="evenodd" clip-rule="evenodd" d="M13 17.75C12.8619 17.75 12.75 17.8619 12.75 18C12.75 18.1381 12.8619 18.25 13 18.25C13.1381 18.25 13.25 18.1381 13.25 18C13.25 17.8619 13.1381 17.75 13 17.75ZM11.25 18C11.25 17.0335 12.0335 16.25 13 16.25C13.9665 16.25 14.75 17.0335 14.75 18C14.75 18.9665 13.9665 19.75 13 19.75C12.0335 19.75 11.25 18.9665 11.25 18Z" fill="#ED9B59"></path>
        <path fill-rule="evenodd" clip-rule="evenodd" d="M3.76702 0.287135C3.98608 0.215549 4.22589 0.248648 4.41736 0.376899C6.74411 1.93535 7.98779 3.71875 8.41592 5.51693C8.84272 7.30953 8.43454 9.01527 7.64951 10.375C7.54623 10.5539 7.37375 10.6822 7.17274 10.7298C6.97174 10.7774 6.76001 10.74 6.5875 10.6264C3.92249 8.87137 2.85094 6.92008 2.60982 5.07223C2.37522 3.27432 2.94912 1.69483 3.29518 0.743617C3.37398 0.527045 3.54796 0.358721 3.76702 0.287135ZM4.38279 2.20581C4.14606 2.99344 3.97007 3.90378 4.09721 4.87814C4.25427 6.08183 4.89137 7.4825 6.71356 8.87802C7.08114 7.95683 7.20873 6.92286 6.95671 5.86436C6.67955 4.70025 5.92498 3.43065 4.38279 2.20581Z" fill="#ED9B59"></path>
        <path fill-rule="evenodd" clip-rule="evenodd" d="M10 10.75C5.44365 10.75 1.75 14.4436 1.75 19C1.75 19.4142 1.41421 19.75 1 19.75C0.585786 19.75 0.25 19.4142 0.25 19C0.25 13.6152 4.61523 9.25 10 9.25C15.3848 9.25 19.75 13.6152 19.75 19C19.75 19.4142 19.4142 19.75 19 19.75C18.5858 19.75 18.25 19.4142 18.25 19C18.25 14.4436 14.5564 10.75 10 10.75Z" fill="#ED9B59"></path>
        <path fill-rule="evenodd" clip-rule="evenodd" d="M16.1547 0.266071C16.3802 0.313601 16.5713 0.46217 16.673 0.668978C17.937 3.23937 17.8223 5.3833 16.9692 7.09304C16.1385 8.75794 14.6589 9.90815 13.375 10.6494C13.1961 10.7527 12.9825 10.7776 12.7847 10.7183C12.5868 10.659 12.4222 10.5207 12.3296 10.3361C11.6104 8.90195 11.3235 7.62472 11.3614 6.48219C11.3994 5.33619 11.7628 4.37414 12.2694 3.57177C13.0533 2.33008 14.2387 1.41852 15.0246 0.814093C15.2168 0.666311 15.3851 0.53689 15.5178 0.425492C15.6943 0.277325 15.9292 0.21854 16.1547 0.266071ZM13.3296 8.90679C12.9638 7.9855 12.8384 7.20091 12.8606 6.53197C12.8885 5.69028 13.1517 4.98395 13.5377 4.37257C14.128 3.43771 14.9535 2.77246 15.6996 2.19348C16.3566 3.96877 16.1639 5.34734 15.627 6.42332C15.1136 7.45217 14.25 8.27456 13.3296 8.90679Z" fill="#ED9B59"></path>
    </symbol>
    <symbol fill="none" xmlns="http://www.w3.org/2000/svg" viewBox="0 0 104 97" id="star">
        <path fill-rule="evenodd" clip-rule="evenodd" d="M9.42614 0.58628C12.0269 6.03927 15.0837 11.2816 17.2962 16.9016C19.5087 22.5216 20.857 28.6612 19.8432 34.6049C18.0399 45.193 9.37937 52.9606 3.13204 61.6686C1.87379 63.424 0.673876 65.313 0.326044 67.4504C-0.0210178 69.5895 0.682236 72.0372 2.52697 73.1743C4.85227 74.6083 7.8359 73.5067 10.3158 72.3845C13.7206 70.8431 17.1254 69.3016 20.5294 67.7586C24.1806 66.1063 28.4231 64.4477 32.0525 66.1727C34.7961 67.4739 36.371 70.3621 37.7645 73.0673C40.4222 78.2262 43.08 83.3851 45.7377 88.544C47.6546 92.2643 50.4847 96.5443 54.6433 96.3148C57.182 96.1769 59.3326 94.2328 60.4564 91.9488C61.5809 89.6664 61.8713 87.0711 62.1431 84.5347C62.6336 79.9573 63.1251 75.3775 63.6165 70.7977C64.0487 66.7604 64.6995 62.2994 67.8178 59.723C70.2892 57.6815 73.708 57.3545 76.9046 57.1129C81.9994 56.7285 87.0934 56.3424 92.1857 55.9571C94.851 55.7561 97.6129 55.5262 99.9431 54.2204C102.273 52.9146 104.049 50.2098 103.413 47.6002C102.858 45.3246 100.747 43.8367 98.844 42.4755C92.9347 38.2555 87.5626 33.2782 82.8999 27.7026C81.3359 25.8332 79.8024 23.7846 79.4058 21.3809C79.1207 19.6452 79.4561 17.8717 79.8669 16.1655C81.1626 10.8004 83.242 5.45993 82.7986 -0.0476624C82.6072 -2.41031 81.5184 -5.15299 79.1934 -5.56933C78.2055 -5.74426 77.2024 -5.44546 76.2615 -5.10328C70.9507 -3.16989 66.2836 0.160988 61.3414 2.90204C56.3983 5.64552 50.8498 7.8587 45.2246 7.22133C40.0236 6.63555 35.3729 3.67312 31.3707 0.273541C27.3693 -3.12439 23.7951 -7.03932 19.5394 -10.1115C16.8517 -12.0523 11.1029 -14.744 8.43491 -11.4422C5.81967 -8.20331 7.88502 -2.64144 9.42614 0.58628Z" fill="#F55959"></path>
    </symbol>
    <symbol xmlns="http://www.w3.org/2000/svg" viewBox="0 0 21 20" id="thumbup">
        <path fill-rule="evenodd" clip-rule="evenodd" d="M5.2 8.30599L7.4577 5.08071C7.81067 4.57646 8 3.97584 8 3.36033V1.79626C8 0.571147 9.20023 -0.293931 10.3625 0.0934834C12.4572 0.791725 13.7326 2.91012 13.3696 5.08811L13 7.30599L18.4394 7.30832C19.7402 7.30888 20.6944 8.53154 20.3788 9.79352L18.5682 17.0338C18.2343 18.3692 17.0344 19.306 15.6578 19.306H3C1.34315 19.306 0 17.9628 0 16.306V11.306C0 9.64914 1.34315 8.30599 3 8.30599H5.2ZM11.5204 7.05939C11.4479 7.49421 11.5704 7.9389 11.8553 8.27531C12.1401 8.61172 12.5585 8.8058 12.9994 8.80599L18.4388 8.80832C18.764 8.80846 19.0025 9.11413 18.9236 9.42962L17.113 16.6699C16.946 17.3376 16.3461 17.806 15.6578 17.806H6V9.77883L8.68654 5.94091C9.21601 5.18453 9.5 4.2836 9.5 3.36033V1.79626C9.5 1.59498 9.69719 1.45286 9.88813 1.51651C11.2826 1.98134 12.1317 3.39159 11.8901 4.84151L11.5204 7.05939ZM4.5 9.80599H3C2.17157 9.80599 1.5 10.4776 1.5 11.306V16.306C1.5 17.1344 2.17157 17.806 3 17.806H4.5V9.80599Z"></path>
    </symbol>
    <symbol fill="none" xmlns="http://www.w3.org/2000/svg" viewBox="0 0 585 371" id="vaves1">
        <g opacity="0.2">
            <path d="M74.5 441.651C48.1667 364.984 -90.2 206.151 -433 184.151" stroke="#ED9B59"></path>
            <path d="M420.73 409.651C415.136 328.781 322.593 139.548 -2.83192 29.5741" stroke="#ED9B59"></path>
            <path d="M308.294 381.077C302.701 300.207 210.158 110.974 -115.268 1.00004" stroke="#ED9B59"></path>
            <path d="M164.5 398.151C132.833 302.984 -12 119.651 -338 147.651" stroke="#ED9B59"></path>
            <path d="M518.921 390.927C512.965 290.807 420.517 76.2347 98.3779 18.9057" stroke="#ED9B59"></path>
        </g>
    </symbol>
    <symbol fill="none" xmlns="http://www.w3.org/2000/svg" viewBox="0 0 923 385" id="vaves2">
        <g opacity="0.5">
            <path d="M510 -56.5C536.333 20.1667 674.7 179 1017.5 201" stroke="url(#paint0_linear_0_432)"></path>
            <path d="M163.77 -24.5001C169.364 56.3698 261.907 245.603 587.332 355.577" stroke="url(#paint1_linear_0_432)"></path>
            <path d="M626 -58C652.333 18.6667 790.7 177.5 1133.5 199.5" stroke="url(#paint2_linear_0_432)"></path>
            <path d="M276.206 4.07404C281.799 84.9439 374.342 274.177 699.768 384.151" stroke="url(#paint3_linear_0_432)"></path>
            <path d="M420 -13.0001C451.667 82.1666 596.5 265.5 922.5 237.5" stroke="url(#paint4_linear_0_432)"></path>
            <path d="M65.5786 -5.776C71.5353 94.3439 163.983 308.916 486.122 366.245" stroke="url(#paint5_linear_0_432)"></path>
        </g>
        <defs>
            <linearGradient id="paint0_linear_0_432" x1="763.75" y1="-56.5" x2="763.75" y2="201" gradientUnits="userSpaceOnUse">
                <stop offset="0.15625" stop-color="#FFAB2E"></stop>
                <stop offset="1" stop-color="#FFC960" stop-opacity="0"></stop>
            </linearGradient>
            <linearGradient id="paint1_linear_0_432" x1="408.874" y1="41.1753" x2="342.228" y2="289.901" gradientUnits="userSpaceOnUse">
                <stop offset="0.15625" stop-color="#FFAB2E"></stop>
                <stop offset="1" stop-color="#FFC960" stop-opacity="0"></stop>
            </linearGradient>
            <linearGradient id="paint2_linear_0_432" x1="879.75" y1="-58" x2="879.75" y2="199.5" gradientUnits="userSpaceOnUse">
                <stop offset="0.15625" stop-color="#FFAB2E"></stop>
                <stop offset="1" stop-color="#FFC960" stop-opacity="0"></stop>
            </linearGradient>
            <linearGradient id="paint3_linear_0_432" x1="521.31" y1="69.7494" x2="454.664" y2="318.475" gradientUnits="userSpaceOnUse">
                <stop offset="0.15625" stop-color="#FFAB2E"></stop>
                <stop offset="1" stop-color="#FFC960" stop-opacity="0"></stop>
            </linearGradient>
            <linearGradient id="paint4_linear_0_432" x1="671.25" y1="-13.0001" x2="671.25" y2="240.376" gradientUnits="userSpaceOnUse">
                <stop offset="0.15625" stop-color="#FFAB2E"></stop>
                <stop offset="1" stop-color="#FFC960" stop-opacity="0"></stop>
            </linearGradient>
            <linearGradient id="paint5_linear_0_432" x1="308.267" y1="59.2523" x2="242.689" y2="303.995" gradientUnits="userSpaceOnUse">
                <stop offset="0.15625" stop-color="#FFAB2E"></stop>
                <stop offset="1" stop-color="#FFC960" stop-opacity="0"></stop>
            </linearGradient>
        </defs>
    </symbol>
    <symbol fill="none" xmlns="http://www.w3.org/2000/svg" viewBox="0 0 893 618" id="area">
        <path opacity="0.3" fill-rule="evenodd" clip-rule="evenodd" d="M666.718 4.69187C793.044 25.7106 857.922 160.807 959.8 238.457C1058.29 313.528 1197.16 340.933 1252.98 451.531C1312.08 568.648 1283.32 706.13 1261.07 835.434C1235.12 986.25 1250.15 1188.53 1114.15 1258.48C973.576 1330.78 823.97 1156.97 666.718 1141.13C534.848 1127.85 402.049 1226.83 280.272 1174.48C148.601 1117.88 37.1619 997.011 5.88926 857.051C-24.5756 720.706 70.5586 594.938 121.735 464.952C169.109 344.621 194.34 210.94 293.105 127.529C395.8 40.7994 534.163 -17.3633 666.718 4.69187Z" fill="#DDD0CB"></path>
    </symbol>
    <symbol xmlns="http://www.w3.org/2000/svg" viewBox="0 0 26 36" id="ringstone">
        <path fill-rule="evenodd" clip-rule="evenodd" d="M4.59464 16.2722C5.22701 16.6926 5.3988 17.5461 4.97834 18.1785C3.96529 19.7021 3.375 21.53 3.375 23.4998C3.375 28.8155 7.68426 33.1248 13 33.1248C18.3157 33.1248 22.625 28.8155 22.625 23.4998C22.625 21.53 22.0346 19.7021 21.0216 18.1784C20.6012 17.5461 20.773 16.6926 21.4054 16.2721C22.0378 15.8517 22.8913 16.0235 23.3117 16.6559C24.6153 18.6167 25.375 20.9717 25.375 23.4998C25.375 30.3343 19.8345 35.8748 13 35.8748C6.16547 35.8748 0.625 30.3343 0.625 23.4998C0.625 20.9717 1.3846 18.6167 2.68833 16.6559C3.10879 16.0235 3.96227 15.8517 4.59464 16.2722Z"></path>
        <path fill-rule="evenodd" clip-rule="evenodd" d="M8.36106 0.527728C8.61893 0.269866 8.96866 0.125 9.33333 0.125H16.6667C17.0313 0.125 17.3811 0.269866 17.6389 0.527728L23.1389 6.02773C23.6418 6.53059 23.6782 7.33393 23.223 7.88025L14.0563 18.8803C13.7951 19.1937 13.4081 19.375 13 19.375C12.5919 19.375 12.2049 19.1937 11.9437 18.8803L2.77703 7.88025C2.32176 7.33393 2.3582 6.53059 2.86106 6.02773L8.36106 0.527728ZM9.90288 2.875L5.6935 7.08438L13 15.8522L20.3065 7.08438L16.0971 2.875H9.90288Z"></path>
        <path d="M14.8333 8.83333C14.8333 9.84586 14.0125 10.6667 13 10.6667C11.9875 10.6667 11.1667 9.84586 11.1667 8.83333C11.1667 7.82081 11.9875 7 13 7C14.0125 7 14.8333 7.82081 14.8333 8.83333Z"></path>
    </symbol>
</svg>